<svg width="212" height="30" viewBox="0 0 212 30" fill="none" xmlns="http://www.w3.org/2000/svg">
<path d="M17.1065 5.7843H32.1948V25.1245H17.1065V5.7843Z" fill="#C5C5C5"/>
<path d="M26.3521 5.84536V21.1267H9.38489V2.91187H23.3493L26.3521 5.84536Z" fill="#DBDBDB"/>
<path d="M17.8675 7.67895H12.0444C11.9367 7.67161 11.8359 7.62354 11.7623 7.54446C11.6886 7.46539 11.6476 7.36121 11.6476 7.25299C11.6476 7.14477 11.6886 7.04059 11.7623 6.96152C11.8359 6.88244 11.9367 6.83438 12.0444 6.82703H17.8675C17.9257 6.82306 17.984 6.83113 18.039 6.85074C18.0939 6.87035 18.1443 6.90108 18.1869 6.94102C18.2295 6.98097 18.2635 7.02927 18.2867 7.08294C18.31 7.1366 18.3219 7.19448 18.3219 7.25299C18.3219 7.3115 18.31 7.36938 18.2867 7.42305C18.2635 7.47671 18.2295 7.52501 18.1869 7.56496C18.1443 7.6049 18.0939 7.63563 18.039 7.65524C17.984 7.67485 17.9257 7.68292 17.8675 7.67895Z" fill="#8ADBFF"/>
<path d="M24.5456 10.8998H16.4278C16.3315 10.8779 16.2455 10.8238 16.1839 10.7464C16.1222 10.669 16.0887 10.5729 16.0887 10.4739C16.0887 10.3748 16.1222 10.2787 16.1839 10.2013C16.2455 10.1239 16.3315 10.0698 16.4278 10.0479H24.5456C24.6419 10.0698 24.7279 10.1239 24.7895 10.2013C24.8511 10.2787 24.8847 10.3748 24.8847 10.4739C24.8847 10.5729 24.8511 10.669 24.7895 10.7464C24.7279 10.8238 24.6419 10.8779 24.5456 10.8998Z" fill="#8ADBFF"/>
<path d="M22.3392 12.4619H16.5142C16.4065 12.4546 16.3057 12.4065 16.232 12.3274C16.1584 12.2483 16.1174 12.1442 16.1174 12.0359C16.1174 11.9277 16.1584 11.8235 16.232 11.7445C16.3057 11.6654 16.4065 11.6173 16.5142 11.61H22.3392C22.4468 11.6173 22.5477 11.6654 22.6213 11.7445C22.695 11.8235 22.7359 11.9277 22.7359 12.0359C22.7359 12.1442 22.695 12.2483 22.6213 12.3274C22.5477 12.4065 22.4468 12.4546 22.3392 12.4619Z" fill="#8ADBFF"/>
<path d="M15.0274 9.86688H12.0266C11.8468 9.86688 11.701 10.0131 11.701 10.1935V12.5682C11.701 12.7486 11.8468 12.8948 12.0266 12.8948H15.0274C15.2072 12.8948 15.353 12.7486 15.353 12.5682V10.1935C15.353 10.0131 15.2072 9.86688 15.0274 9.86688Z" fill="#8ADBFF"/>
<path d="M24.5456 15.5253H16.4278C16.3315 15.5033 16.2455 15.4493 16.1839 15.3719C16.1222 15.2945 16.0887 15.1983 16.0887 15.0993C16.0887 15.0002 16.1222 14.9041 16.1839 14.8267C16.2455 14.7493 16.3315 14.6953 16.4278 14.6733H24.5456C24.6419 14.6953 24.7279 14.7493 24.7895 14.8267C24.8511 14.9041 24.8847 15.0002 24.8847 15.0993C24.8847 15.1983 24.8511 15.2945 24.7895 15.3719C24.7279 15.4493 24.6419 15.5033 24.5456 15.5253Z" fill="#8ADBFF"/>
<path d="M22.3392 17.0836H16.5142C16.4065 17.0763 16.3057 17.0282 16.232 16.9491C16.1584 16.87 16.1174 16.7659 16.1174 16.6576C16.1174 16.5494 16.1584 16.4453 16.232 16.3662C16.3057 16.2871 16.4065 16.239 16.5142 16.2317H22.3392C22.4468 16.239 22.5477 16.2871 22.6213 16.3662C22.695 16.4453 22.7359 16.5494 22.7359 16.6576C22.7359 16.7659 22.695 16.87 22.6213 16.9491C22.5477 17.0282 22.4468 17.0763 22.3392 17.0836Z" fill="#8ADBFF"/>
<path d="M15.0274 14.4885H12.0266C11.8468 14.4885 11.701 14.6347 11.701 14.8151V17.1898C11.701 17.3702 11.8468 17.5164 12.0266 17.5164H15.0274C15.2072 17.5164 15.353 17.3702 15.353 17.1898V14.8151C15.353 14.6347 15.2072 14.4885 15.0274 14.4885Z" fill="#8ADBFF"/>
<path d="M18.0262 2.9335V18.2148H1.05902V0H15.0235L18.0262 2.9335Z" fill="#EFEFEF"/>
<path d="M16.2199 7.98796H8.10209C8.0058 7.96605 7.91979 7.91196 7.85818 7.83456C7.79656 7.75716 7.763 7.66105 7.763 7.562C7.763 7.46296 7.79656 7.36685 7.85818 7.28945C7.91979 7.21205 8.0058 7.15796 8.10209 7.13605H16.2199C16.3162 7.15796 16.4022 7.21205 16.4638 7.28945C16.5254 7.36685 16.559 7.46296 16.559 7.562C16.559 7.66105 16.5254 7.75716 16.4638 7.83456C16.4022 7.91196 16.3162 7.96605 16.2199 7.98796Z" fill="#80CCFF"/>
<path d="M14.0135 9.55016H8.18841C8.08078 9.54281 7.97995 9.49475 7.9063 9.41567C7.83265 9.3366 7.79169 9.23242 7.79169 9.1242C7.79169 9.01598 7.83265 8.9118 7.9063 8.83273C7.97995 8.75365 8.08078 8.70558 8.18841 8.69824H14.0135C14.1211 8.70558 14.2219 8.75365 14.2956 8.83273C14.3692 8.9118 14.4102 9.01598 14.4102 9.1242C14.4102 9.23242 14.3692 9.3366 14.2956 9.41567C14.2219 9.49475 14.1211 9.54281 14.0135 9.55016Z" fill="#80CCFF"/>
<path d="M6.70179 6.95502H3.701C3.52119 6.95502 3.37543 7.10124 3.37543 7.28162V9.65635C3.37543 9.83673 3.52119 9.98295 3.701 9.98295H6.70179C6.8816 9.98295 7.02737 9.83673 7.02737 9.65635V7.28162C7.02737 7.10124 6.8816 6.95502 6.70179 6.95502Z" fill="#80CCFF"/>
<path d="M16.2199 12.6095H8.10209C8.0058 12.5876 7.91979 12.5335 7.85818 12.4561C7.79656 12.3787 7.763 12.2826 7.763 12.1836C7.763 12.0845 7.79656 11.9884 7.85818 11.911C7.91979 11.8336 8.0058 11.7795 8.10209 11.7576H16.2199C16.3162 11.7795 16.4022 11.8336 16.4638 11.911C16.5254 11.9884 16.559 12.0845 16.559 12.1836C16.559 12.2826 16.5254 12.3787 16.4638 12.4561C16.4022 12.5335 16.3162 12.5876 16.2199 12.6095Z" fill="#80CCFF"/>
<path d="M14.0135 14.1717H8.18841C8.08078 14.1643 7.97995 14.1163 7.9063 14.0372C7.83265 13.9581 7.79169 13.8539 7.79169 13.7457C7.79169 13.6375 7.83265 13.5333 7.9063 13.4542C7.97995 13.3752 8.08078 13.3271 8.18841 13.3198H14.0135C14.1211 13.3271 14.2219 13.3752 14.2956 13.4542C14.3692 13.5333 14.4102 13.6375 14.4102 13.7457C14.4102 13.8539 14.3692 13.9581 14.2956 14.0372C14.2219 14.1163 14.1211 14.1643 14.0135 14.1717Z" fill="#80CCFF"/>
<path d="M6.70179 11.5766H3.701C3.52119 11.5766 3.37543 11.7228 3.37543 11.9032V14.2779C3.37543 14.4583 3.52119 14.6045 3.701 14.6045H6.70179C6.8816 14.6045 7.02737 14.4583 7.02737 14.2779V11.9032C7.02737 11.7228 6.8816 11.5766 6.70179 11.5766Z" fill="#80CCFF"/>
<path d="M28.8841 29.4117H4.0089C2.96363 29.4117 1.96088 28.9965 1.21992 28.2569C0.478968 27.5173 0.0601013 26.5135 0.0549164 25.4649L0 13.2666H13.1211L17.5203 9.18018H32.8949L32.8361 25.461C32.8325 26.51 32.4145 27.5149 31.6737 28.2554C30.933 28.9959 29.9298 29.4117 28.8841 29.4117Z" fill="#93D7FC"/>
<path d="M17.5204 9.18018L16.4064 10.2131V29.4117H28.8842C29.9299 29.4117 30.9331 28.9959 31.6738 28.2554C32.4146 27.5149 32.8325 26.51 32.8362 25.461L32.895 9.18018H17.5204Z" fill="#69CCF9"/>
<path d="M22.5314 17.2607H21.943L23.5395 21.7858L24.4319 19.2281L23.7396 17.2607H23.1237V16.8298H25.8695V17.2607H25.2282L26.8247 21.7858L27.3974 20.141C28.1505 18.0358 26.7815 17.3866 26.7815 16.9085C26.7815 16.6825 26.871 16.4658 27.0303 16.3061C27.1895 16.1463 27.4056 16.0566 27.6308 16.0566H27.7034C27.2341 15.6121 26.6738 15.2758 26.0615 15.0711C25.4492 14.8664 24.7998 14.7983 24.1586 14.8716C23.5173 14.9448 22.8998 15.1577 22.3491 15.4952C21.7984 15.8328 21.3278 16.2869 20.9702 16.8258H22.5393V17.2567L22.5314 17.2607Z" fill="#E9FAFF"/>
<path d="M20.221 19.2969C20.2196 20.1055 20.438 20.8991 20.8527 21.5925C21.2674 22.2858 21.8627 22.8526 22.5746 23.2318L20.5702 17.5518C20.3375 18.1039 20.2188 18.6975 20.221 19.2969Z" fill="#E9FAFF"/>
<path d="M28.5115 17.0993C28.5727 17.5056 28.5541 17.92 28.4566 18.3191H28.4742L28.4075 18.5159C28.3664 18.6589 28.3173 18.7994 28.2604 18.9369L26.7346 23.226C27.258 22.9467 27.7204 22.565 28.0944 22.1035C28.4684 21.642 28.7464 21.11 28.9121 20.5389C29.0777 19.9678 29.1276 19.3692 29.0588 18.7784C28.99 18.1877 28.8039 17.6167 28.5115 17.0993Z" fill="#E9FAFF"/>
<path d="M23.2827 23.5289C24.1519 23.8106 25.0865 23.8175 25.9598 23.5486L24.6614 19.8694L23.2827 23.5289Z" fill="#E9FAFF"/>
<path d="M28.3996 15.5372C27.5333 14.6683 26.3936 14.1276 25.1745 14.0072C23.9554 13.8868 22.7324 14.194 21.7138 14.8767C20.6952 15.5593 19.944 16.5751 19.5883 17.7509C19.2325 18.9268 19.2941 20.19 19.7626 21.3255C20.2311 22.4609 21.0775 23.3982 22.1576 23.9779C23.2378 24.5575 24.4848 24.7436 25.6864 24.5043C26.8879 24.2651 27.9696 23.6154 28.7473 22.6659C29.5249 21.7164 29.9503 20.5258 29.951 19.297C29.9531 18.5985 29.8171 17.9065 29.5508 17.2612C29.2845 16.6158 28.8932 16.0298 28.3996 15.5372ZM24.6516 24.2373C23.677 24.2377 22.7242 23.9481 21.9137 23.4052C21.1032 22.8623 20.4714 22.0904 20.0982 21.1873C19.7251 20.2841 19.6274 19.2902 19.8174 18.3313C20.0074 17.3724 20.4767 16.4916 21.1658 15.8003C21.855 15.109 22.733 14.6383 23.6889 14.4476C24.6448 14.257 25.6356 14.355 26.5359 14.7293C27.4362 15.1036 28.2057 15.7374 28.7469 16.5505C29.2881 17.3635 29.5768 18.3193 29.5764 19.297C29.5748 20.6068 29.0555 21.8625 28.1322 22.7886C27.209 23.7148 25.9572 24.2358 24.6516 24.2373Z" fill="#E9FAFF"/>
<path d="M5.20139 16.0663H1.54749C1.39254 16.0663 1.26898 16.0033 1.26898 15.9266V15.4544C1.26898 15.3777 1.39254 15.3147 1.54749 15.3147H5.20139C5.35633 15.3147 5.47989 15.3777 5.47989 15.4544V15.9187C5.47989 16.0033 5.35633 16.0663 5.20139 16.0663Z" fill="#E9FAFF"/>
<path d="M5.1191 17.778H1.46716C1.31222 17.778 1.18866 17.715 1.18866 17.6383V17.1661C1.18866 17.0894 1.31222 17.0264 1.46716 17.0264H5.1191C5.27405 17.0264 5.39761 17.0894 5.39761 17.1661V17.6383C5.39957 17.715 5.27601 17.778 5.1191 17.778Z" fill="#E9FAFF"/>
<path d="M40.2191 23.9406C39.9374 23.9406 39.7182 23.8859 39.5617 23.7763C39.4209 23.6824 39.327 23.5415 39.28 23.3537C39.2331 23.1503 39.2096 22.9312 39.2096 22.6964V8.75154C39.2096 8.51678 39.2331 8.31332 39.28 8.14116C39.3426 7.95335 39.4444 7.81249 39.5852 7.71859C39.7417 7.60903 39.9608 7.55425 40.2425 7.55425H46.7924C47.6688 7.55425 48.4357 7.74989 49.0931 8.14116C49.7661 8.53243 50.2904 9.06455 50.666 9.73754C51.0416 10.4105 51.2216 11.1461 51.2059 11.9443C51.2216 12.3512 51.1746 12.7503 51.0651 13.1416C50.9555 13.5329 50.7912 13.9006 50.5721 14.245C50.3686 14.5736 50.1104 14.8475 49.7974 15.0666C50.2199 15.3327 50.5799 15.677 50.8773 16.0996C51.1746 16.5222 51.4016 16.9917 51.5581 17.5082C51.7146 18.0246 51.7928 18.5646 51.7928 19.128C51.7772 19.801 51.652 20.4349 51.4172 21.0296C51.1825 21.6087 50.846 22.1173 50.4077 22.5555C49.9695 22.9938 49.4609 23.3381 48.8818 23.5885C48.3027 23.8233 47.6845 23.9406 47.0272 23.9406H40.2191ZM41.3225 21.9217H46.7924C47.4028 21.9217 47.9271 21.8043 48.3653 21.5695C48.8035 21.3348 49.14 20.9905 49.3748 20.5366C49.6095 20.0827 49.7269 19.5271 49.7269 18.8698C49.7269 18.3063 49.6487 17.8525 49.4922 17.5082C49.3357 17.1638 49.1244 16.9056 48.8583 16.7334C48.5922 16.5456 48.3027 16.4126 47.9897 16.3343C47.6923 16.2561 47.395 16.217 47.0976 16.217C46.8159 16.2013 46.5576 16.1935 46.3229 16.1935H44.8908C44.5778 16.1935 44.3509 16.1152 44.21 15.9587C44.0692 15.8022 43.9987 15.5518 43.9987 15.2075C43.9987 14.8788 44.0692 14.6441 44.21 14.5032C44.3665 14.3623 44.6013 14.2919 44.9143 14.2919H46.3464C46.5968 14.2919 46.8785 14.2841 47.1915 14.2684C47.5045 14.2528 47.8097 14.1902 48.1071 14.0806C48.4201 13.9711 48.6705 13.7676 48.8583 13.4703C49.0618 13.1572 49.1635 12.719 49.1635 12.1556C49.1635 11.2791 48.9287 10.6375 48.4592 10.2305C47.9897 9.80797 47.215 9.59668 46.1351 9.59668H41.3225V21.9217ZM55.4949 23.9406C55.1976 23.9406 54.9706 23.8937 54.8141 23.7998C54.6732 23.7215 54.5793 23.6041 54.5324 23.4476C54.4854 23.2911 54.462 23.1033 54.462 22.8842V13.6111C54.462 13.392 54.4854 13.2042 54.5324 13.0477C54.5793 12.8912 54.6732 12.7738 54.8141 12.6955C54.9706 12.6173 55.2054 12.5782 55.5184 12.5782C55.8158 12.5782 56.0349 12.6251 56.1757 12.719C56.3166 12.7973 56.4105 12.9146 56.4574 13.0712C56.5044 13.2277 56.5279 13.4233 56.5279 13.6581V22.9077C56.5279 23.1268 56.5044 23.3146 56.4574 23.4711C56.4105 23.6276 56.3088 23.745 56.1522 23.8233C56.0114 23.9015 55.7923 23.9406 55.4949 23.9406ZM55.4949 9.76101C55.1506 9.76101 54.8924 9.71406 54.7202 9.62016C54.548 9.5106 54.4307 9.36192 54.3681 9.17411C54.3211 8.9863 54.2976 8.76719 54.2976 8.51678C54.2976 8.26636 54.3289 8.05508 54.3915 7.88292C54.4541 7.69511 54.5715 7.56208 54.7437 7.48382C54.9158 7.38992 55.1741 7.34297 55.5184 7.34297C55.8471 7.34297 56.0975 7.38992 56.2696 7.48382C56.4418 7.57773 56.5513 7.71859 56.5983 7.9064C56.6609 8.09421 56.6922 8.31332 56.6922 8.56373C56.6922 8.81414 56.6609 9.03325 56.5983 9.22106C56.5513 9.39322 56.4418 9.52625 56.2696 9.62016C56.0975 9.71406 55.8392 9.76101 55.4949 9.76101ZM64.4887 23.9406C63.7531 23.9406 63.1271 23.8702 62.6106 23.7293C62.1098 23.5885 61.695 23.3694 61.3663 23.072C61.0377 22.7746 60.8029 22.3912 60.6621 21.9217C60.5212 21.4365 60.4508 20.8418 60.4508 20.1375V9.76101C60.4508 9.5419 60.4743 9.35409 60.5212 9.19759C60.5682 9.04108 60.6621 8.9237 60.8029 8.84544C60.9438 8.75154 61.1629 8.70459 61.4603 8.70459C61.7576 8.70459 61.9846 8.75154 62.1411 8.84544C62.2976 8.9237 62.3993 9.04108 62.4463 9.19759C62.4932 9.33844 62.5167 9.51843 62.5167 9.73754V20.1375C62.5167 20.5444 62.548 20.8731 62.6106 21.1235C62.6888 21.3583 62.7984 21.5382 62.9393 21.6634C63.0958 21.7886 63.2992 21.8669 63.5496 21.8982C63.8 21.9295 64.1052 21.9452 64.4652 21.9452C64.7156 21.9452 64.9191 21.9686 65.0756 22.0156C65.2321 22.0625 65.3495 22.1564 65.4277 22.2973C65.506 22.4382 65.5451 22.6494 65.5451 22.9312C65.5451 23.2285 65.4982 23.4555 65.4043 23.612C65.326 23.7528 65.2008 23.8389 65.0286 23.8702C64.8721 23.9172 64.6921 23.9406 64.4887 23.9406ZM59.23 12.8364L61.4837 12.8599L64.7469 12.8129C64.966 12.8129 65.1538 12.8364 65.3103 12.8833C65.4669 12.9146 65.5842 13.0086 65.6625 13.1651C65.7564 13.3059 65.8033 13.525 65.8033 13.8224C65.8033 14.1198 65.7642 14.3467 65.686 14.5032C65.6077 14.6441 65.4903 14.738 65.3338 14.7849C65.1773 14.8319 64.9895 14.8553 64.7704 14.8553L61.5542 14.8084L59.1831 14.8319C58.8544 14.8319 58.6275 14.7536 58.5023 14.5971C58.3927 14.4406 58.3379 14.1824 58.3379 13.8224C58.3379 13.4781 58.4083 13.2277 58.5492 13.0712C58.6901 12.9146 58.917 12.8364 59.23 12.8364Z" fill="#17283F"/>
<path d="M75.3554 23.9406C74.9172 23.9406 74.5963 23.8702 74.3929 23.7293C74.1894 23.6041 74.0642 23.432 74.0173 23.2129C73.9703 22.9938 73.9468 22.7512 73.9468 22.4851V8.93935C73.9468 8.40722 74.0486 8.03943 74.252 7.83597C74.4711 7.63251 74.8624 7.53078 75.4258 7.53078H84.5815C84.8476 7.53078 85.0824 7.56208 85.2858 7.62468C85.4893 7.67163 85.6536 7.79684 85.7788 8.0003C85.904 8.18811 85.9666 8.50895 85.9666 8.96282C85.9666 9.40105 85.8962 9.72189 85.7554 9.92535C85.6302 10.1288 85.458 10.254 85.2389 10.301C85.0354 10.3479 84.8007 10.3714 84.5346 10.3714H76.7875V14.3154H82.1165C82.3826 14.3154 82.6095 14.3467 82.7974 14.4093C83.0008 14.4563 83.1495 14.5736 83.2434 14.7614C83.353 14.9336 83.4077 15.2231 83.4077 15.6301C83.4077 16.0057 83.353 16.2874 83.2434 16.4752C83.1339 16.6474 82.9773 16.7569 82.7739 16.8039C82.5861 16.8352 82.3591 16.8508 82.0931 16.8508H76.7875V22.5086C76.7875 22.7746 76.7562 23.0172 76.6935 23.2363C76.6466 23.4398 76.5214 23.6041 76.3179 23.7293C76.1145 23.8702 75.7936 23.9406 75.3554 23.9406ZM89.3817 23.9406C88.9591 23.9406 88.6461 23.8702 88.4426 23.7293C88.2392 23.6041 88.114 23.4398 88.067 23.2363C88.0201 23.0172 87.9966 22.7746 87.9966 22.5086V13.7754C87.9966 13.525 88.0201 13.2981 88.067 13.0946C88.1296 12.8755 88.2548 12.7034 88.4426 12.5782C88.6461 12.453 88.967 12.3903 89.4052 12.3903C89.8434 12.3903 90.1564 12.453 90.3442 12.5782C90.5477 12.7034 90.6729 12.8755 90.7198 13.0946C90.7668 13.3137 90.7903 13.5563 90.7903 13.8224V22.5321C90.7903 22.7981 90.7668 23.0407 90.7198 23.2598C90.6729 23.4633 90.5477 23.6276 90.3442 23.7528C90.1564 23.878 89.8356 23.9406 89.3817 23.9406ZM89.3817 10.1132C88.9278 10.1132 88.5913 10.0506 88.3722 9.92535C88.1688 9.78449 88.0357 9.59668 87.9731 9.36192C87.9262 9.12716 87.9027 8.86892 87.9027 8.5872C87.9027 8.28984 87.9262 8.0316 87.9731 7.81249C88.0357 7.59338 88.1766 7.42122 88.3957 7.29601C88.6148 7.15516 88.9513 7.08473 89.4052 7.08473C89.8747 7.08473 90.2112 7.15516 90.4146 7.29601C90.6181 7.43687 90.7511 7.62468 90.8137 7.85944C90.8763 8.07856 90.9076 8.33679 90.9076 8.63416C90.9076 8.90022 90.8763 9.15063 90.8137 9.3854C90.7511 9.62016 90.6181 9.80014 90.4146 9.92535C90.2112 10.0506 89.8669 10.1132 89.3817 10.1132ZM97.3964 23.9406C96.8174 23.9406 96.3009 23.9015 95.847 23.8233C95.4088 23.745 95.0253 23.612 94.6967 23.4242C94.3837 23.2363 94.1254 22.9859 93.922 22.6729C93.7185 22.3443 93.562 21.9452 93.4524 21.4756C93.3585 21.0061 93.3116 20.4427 93.3116 19.7853V8.46982C93.3116 8.20376 93.335 7.969 93.382 7.76554C93.4446 7.54643 93.5698 7.37427 93.7576 7.24906C93.9611 7.10821 94.2819 7.03778 94.7201 7.03778C95.1584 7.03778 95.4714 7.10038 95.6592 7.22559C95.8627 7.35079 95.9879 7.52295 96.0348 7.74206C96.0974 7.94552 96.1287 8.18028 96.1287 8.44635V19.668C96.1287 19.9653 96.1444 20.2157 96.1757 20.4192C96.2226 20.607 96.293 20.7635 96.387 20.8887C96.4965 20.9983 96.6295 21.0765 96.786 21.1235C96.9582 21.1704 97.1617 21.1939 97.3964 21.1939C97.5999 21.1939 97.7799 21.2174 97.9364 21.2643C98.1085 21.3113 98.2416 21.4287 98.3355 21.6165C98.445 21.8043 98.4998 22.1095 98.4998 22.5321C98.4998 22.9703 98.445 23.2911 98.3355 23.4946C98.2416 23.698 98.1085 23.8233 97.9364 23.8702C97.7642 23.9172 97.5842 23.9406 97.3964 23.9406ZM105.778 24.0815C104.76 24.0815 103.868 23.9172 103.102 23.5885C102.35 23.2598 101.716 22.8138 101.2 22.2503C100.699 21.6713 100.316 21.0296 100.05 20.3253C99.7992 19.6054 99.674 18.862 99.674 18.0951C99.674 16.9682 99.9322 15.9666 100.449 15.0901C100.965 14.2137 101.677 13.525 102.585 13.0242C103.508 12.5234 104.565 12.273 105.754 12.273C106.599 12.273 107.343 12.406 107.985 12.6721C108.626 12.9381 109.158 13.2903 109.581 13.7285C110.019 14.1511 110.348 14.6206 110.567 15.1371C110.802 15.6535 110.919 16.1544 110.919 16.6395C110.919 17.469 110.716 18.0716 110.309 18.4472C109.917 18.8228 109.424 19.0106 108.83 19.0106H102.632C102.648 19.5428 102.812 20.0045 103.125 20.3957C103.454 20.787 103.861 21.0922 104.346 21.3113C104.847 21.5148 105.355 21.6165 105.872 21.6165C106.263 21.6165 106.607 21.593 106.905 21.5461C107.218 21.4991 107.484 21.4443 107.703 21.3817C107.922 21.3035 108.11 21.2252 108.266 21.147C108.438 21.0687 108.595 20.9983 108.736 20.9357C108.877 20.8731 109.01 20.834 109.135 20.8183C109.307 20.8026 109.479 20.8418 109.651 20.9357C109.824 21.0296 109.964 21.1939 110.074 21.4287C110.168 21.5852 110.23 21.7339 110.262 21.8747C110.309 21.9999 110.332 22.1251 110.332 22.2503C110.332 22.5634 110.144 22.8607 109.769 23.1424C109.393 23.4085 108.861 23.6276 108.172 23.7998C107.499 23.9876 106.701 24.0815 105.778 24.0815ZM102.632 17.3438H107.445C107.711 17.3438 107.914 17.3047 108.055 17.2264C108.196 17.1325 108.266 16.9447 108.266 16.663C108.266 16.303 108.157 15.9822 107.938 15.7005C107.718 15.4031 107.421 15.1762 107.046 15.0197C106.67 14.8475 106.232 14.7614 105.731 14.7614C105.152 14.7614 104.627 14.8788 104.158 15.1136C103.688 15.3327 103.313 15.6379 103.031 16.0292C102.765 16.4204 102.632 16.8586 102.632 17.3438ZM120.148 23.9172C119.741 23.9172 119.436 23.8546 119.232 23.7293C119.029 23.6041 118.896 23.432 118.833 23.2129C118.786 22.9938 118.763 22.7512 118.763 22.4851V8.93935C118.763 8.68894 118.786 8.462 118.833 8.25854C118.896 8.03943 119.029 7.86727 119.232 7.74206C119.436 7.60121 119.757 7.53078 120.195 7.53078C120.523 7.53078 120.766 7.55425 120.923 7.60121C121.095 7.63251 121.228 7.68729 121.322 7.76554C121.416 7.82814 121.509 7.91422 121.603 8.02378L127.332 16.0292H126.792L132.543 8.0003C132.653 7.87509 132.762 7.78119 132.872 7.71859C132.981 7.65598 133.122 7.60903 133.294 7.57773C133.467 7.54643 133.694 7.53078 133.975 7.53078C134.398 7.53078 134.711 7.60121 134.914 7.74206C135.118 7.86727 135.243 8.03943 135.29 8.25854C135.353 8.47765 135.384 8.72024 135.384 8.9863V22.5321C135.384 22.7668 135.353 22.9938 135.29 23.2129C135.243 23.432 135.118 23.6041 134.914 23.7293C134.711 23.8546 134.39 23.9172 133.952 23.9172C133.529 23.9172 133.216 23.8467 133.013 23.7059C132.809 23.5807 132.676 23.4085 132.614 23.1894C132.567 22.9703 132.543 22.7355 132.543 22.4851V12.4138L128.271 18.5881C128.224 18.6507 128.153 18.7367 128.059 18.8463C127.965 18.9402 127.84 19.0263 127.684 19.1045C127.527 19.1828 127.316 19.2219 127.05 19.2219C126.799 19.2219 126.596 19.1828 126.439 19.1045C126.283 19.0263 126.158 18.9402 126.064 18.8463C125.986 18.7524 125.907 18.6585 125.829 18.5646L121.58 12.4138V22.5321C121.58 22.7668 121.549 22.9938 121.486 23.2129C121.439 23.432 121.314 23.6041 121.11 23.7293C120.907 23.8546 120.586 23.9172 120.148 23.9172ZM147.323 23.8937C146.869 23.8937 146.532 23.8076 146.313 23.6354C146.094 23.4633 145.984 23.2285 145.984 22.9312L146.149 22.1564C146.024 22.3599 145.812 22.6025 145.515 22.8842C145.218 23.1503 144.826 23.3929 144.341 23.612C143.856 23.8154 143.269 23.9172 142.58 23.9172C141.845 23.9172 141.148 23.7685 140.491 23.4711C139.849 23.1581 139.278 22.7355 138.777 22.2034C138.292 21.6556 137.901 21.0374 137.603 20.3488C137.322 19.6445 137.181 18.8933 137.181 18.0951C137.181 17.3282 137.322 16.6082 137.603 15.9353C137.901 15.2466 138.3 14.6362 138.801 14.1041C139.302 13.572 139.873 13.1572 140.514 12.8599C141.172 12.5469 141.86 12.3903 142.58 12.3903C143.222 12.3903 143.762 12.4764 144.2 12.6486C144.654 12.8207 145.038 13.0399 145.351 13.3059C145.664 13.5563 145.922 13.8224 146.125 14.1041L145.984 13.4233C145.984 13.079 146.094 12.8207 146.313 12.6486C146.532 12.4608 146.877 12.3669 147.346 12.3669C147.784 12.3669 148.097 12.4373 148.285 12.5782C148.473 12.7034 148.59 12.8833 148.637 13.1181C148.684 13.3372 148.708 13.5876 148.708 13.8693V22.4616C148.708 22.7277 148.684 22.9703 148.637 23.1894C148.59 23.4085 148.465 23.5807 148.262 23.7059C148.074 23.8311 147.761 23.8937 147.323 23.8937ZM143.003 21.1704C143.535 21.1704 144.012 21.0374 144.435 20.7713C144.858 20.5053 145.194 20.1453 145.444 19.6914C145.711 19.2219 145.844 18.7054 145.844 18.142C145.844 17.5316 145.711 16.9995 145.444 16.5456C145.178 16.0918 144.826 15.7396 144.388 15.4892C143.965 15.2231 143.488 15.0901 142.956 15.0901C142.377 15.0901 141.86 15.231 141.407 15.5127C140.953 15.7787 140.593 16.1465 140.327 16.6161C140.076 17.0699 139.951 17.5864 139.951 18.1655C139.951 18.7289 140.084 19.2376 140.35 19.6914C140.616 20.1453 140.976 20.5053 141.43 20.7713C141.9 21.0374 142.424 21.1704 143.003 21.1704ZM152.448 23.9172C152.026 23.9172 151.713 23.8467 151.509 23.7059C151.321 23.5807 151.204 23.4163 151.157 23.2129C151.11 22.9938 151.087 22.7512 151.087 22.4851V13.705C151.087 13.4546 151.11 13.2277 151.157 13.0242C151.204 12.8207 151.329 12.6642 151.533 12.5547C151.736 12.4295 152.049 12.3669 152.472 12.3669C152.847 12.3669 153.129 12.4138 153.317 12.5077C153.505 12.6016 153.63 12.719 153.693 12.8599C153.755 13.0007 153.786 13.1416 153.786 13.2824C153.802 13.4233 153.818 13.5329 153.833 13.6111L153.739 14.3623C153.833 14.1119 153.99 13.8693 154.209 13.6346C154.428 13.3998 154.694 13.1885 155.007 13.0007C155.32 12.7973 155.657 12.6408 156.017 12.5312C156.392 12.406 156.776 12.3434 157.167 12.3434C157.903 12.3434 158.56 12.4764 159.139 12.7425C159.718 13.0086 160.211 13.3842 160.618 13.8693C161.041 14.3545 161.361 14.9336 161.581 15.6066C161.8 16.2639 161.909 17.0073 161.909 17.8368V22.5086C161.909 22.7746 161.878 23.0172 161.815 23.2363C161.768 23.4398 161.651 23.6041 161.463 23.7293C161.275 23.8546 160.954 23.9172 160.501 23.9172C160.062 23.9172 159.742 23.8467 159.538 23.7059C159.335 23.5807 159.209 23.4163 159.162 23.2129C159.116 22.9938 159.092 22.7512 159.092 22.4851V17.8133C159.092 17.2499 158.99 16.7647 158.787 16.3578C158.599 15.9509 158.317 15.6379 157.942 15.4188C157.582 15.1997 157.12 15.0901 156.557 15.0901C156.009 15.0901 155.531 15.2075 155.125 15.4423C154.718 15.6614 154.405 15.9744 154.186 16.3813C153.966 16.7882 153.857 17.2656 153.857 17.8133V22.5086C153.857 22.7746 153.833 23.0172 153.786 23.2363C153.739 23.4398 153.614 23.6041 153.411 23.7293C153.223 23.8546 152.902 23.9172 152.448 23.9172ZM173.825 23.8937C173.371 23.8937 173.035 23.8076 172.816 23.6354C172.596 23.4633 172.487 23.2285 172.487 22.9312L172.651 22.1564C172.526 22.3599 172.315 22.6025 172.017 22.8842C171.72 23.1503 171.329 23.3929 170.844 23.612C170.358 23.8154 169.771 23.9172 169.083 23.9172C168.347 23.9172 167.651 23.7685 166.993 23.4711C166.352 23.1581 165.78 22.7355 165.28 22.2034C164.794 21.6556 164.403 21.0374 164.106 20.3488C163.824 19.6445 163.683 18.8933 163.683 18.0951C163.683 17.3282 163.824 16.6082 164.106 15.9353C164.403 15.2466 164.802 14.6362 165.303 14.1041C165.804 13.572 166.375 13.1572 167.017 12.8599C167.674 12.5469 168.363 12.3903 169.083 12.3903C169.724 12.3903 170.264 12.4764 170.703 12.6486C171.157 12.8207 171.54 13.0399 171.853 13.3059C172.166 13.5563 172.424 13.8224 172.628 14.1041L172.487 13.4233C172.487 13.079 172.596 12.8207 172.816 12.6486C173.035 12.4608 173.379 12.3669 173.848 12.3669C174.287 12.3669 174.6 12.4373 174.788 12.5782C174.975 12.7034 175.093 12.8833 175.14 13.1181C175.187 13.3372 175.21 13.5876 175.21 13.8693V22.4616C175.21 22.7277 175.187 22.9703 175.14 23.1894C175.093 23.4085 174.968 23.5807 174.764 23.7059C174.576 23.8311 174.263 23.8937 173.825 23.8937ZM169.505 21.1704C170.038 21.1704 170.515 21.0374 170.937 20.7713C171.36 20.5053 171.696 20.1453 171.947 19.6914C172.213 19.2219 172.346 18.7054 172.346 18.142C172.346 17.5316 172.213 16.9995 171.947 16.5456C171.681 16.0918 171.329 15.7396 170.89 15.4892C170.468 15.2231 169.991 15.0901 169.458 15.0901C168.879 15.0901 168.363 15.231 167.909 15.5127C167.455 15.7787 167.095 16.1465 166.829 16.6161C166.579 17.0699 166.453 17.5864 166.453 18.1655C166.453 18.7289 166.587 19.2376 166.853 19.6914C167.119 20.1453 167.479 20.5053 167.932 20.7713C168.402 21.0374 168.926 21.1704 169.505 21.1704ZM182.613 28.6359C182.05 28.6359 181.51 28.5654 180.993 28.4246C180.477 28.2994 180.007 28.1272 179.585 27.9081C179.178 27.689 178.849 27.4542 178.599 27.2038C178.364 26.9534 178.246 26.7186 178.246 26.4995C178.246 26.2804 178.278 26.0926 178.34 25.9361C178.419 25.7796 178.528 25.6231 178.669 25.4666C178.857 25.2788 179.005 25.1379 179.115 25.044C179.24 24.9501 179.405 24.9032 179.608 24.9032C179.78 24.9032 179.945 24.9658 180.101 25.091C180.273 25.2162 180.469 25.357 180.688 25.5135C180.907 25.67 181.173 25.8109 181.486 25.9361C181.799 26.0613 182.198 26.1239 182.683 26.1239C183.09 26.1239 183.466 26.0535 183.81 25.9126C184.155 25.7718 184.444 25.5605 184.679 25.2788C184.929 25.0127 185.125 24.6919 185.266 24.3163C185.407 23.9406 185.477 23.5181 185.477 23.0485L185.454 13.3294C185.485 12.9694 185.61 12.719 185.829 12.5782C186.048 12.4216 186.385 12.3434 186.839 12.3434C187.261 12.3434 187.566 12.406 187.754 12.5312C187.942 12.6408 188.059 12.8051 188.106 13.0242C188.153 13.2277 188.177 13.4546 188.177 13.705V23.2129C188.177 24.0737 188.028 24.8406 187.731 25.5135C187.433 26.1865 187.026 26.75 186.51 27.2038C185.994 27.6733 185.399 28.0255 184.726 28.2603C184.069 28.5107 183.364 28.6359 182.613 28.6359ZM182.355 23.6354C181.619 23.6354 180.931 23.4946 180.289 23.2129C179.663 22.9312 179.107 22.5321 178.622 22.0156C178.152 21.4991 177.777 20.9044 177.495 20.2314C177.229 19.5428 177.096 18.7993 177.096 18.0012C177.096 17.2186 177.229 16.4909 177.495 15.8179C177.777 15.1449 178.152 14.5502 178.622 14.0337C179.107 13.5172 179.663 13.1181 180.289 12.8364C180.931 12.539 181.611 12.3903 182.331 12.3903C183.036 12.3903 183.646 12.5312 184.162 12.8129C184.695 13.079 185.133 13.4624 185.477 13.9633C185.821 14.4641 186.08 15.0588 186.252 15.7474C186.44 16.4361 186.533 17.1951 186.533 18.0246C186.533 19.1671 186.377 20.161 186.064 21.0061C185.751 21.8513 185.289 22.5008 184.679 22.9546C184.068 23.4085 183.294 23.6354 182.355 23.6354ZM182.613 20.9826C183.145 20.9826 183.615 20.8574 184.022 20.607C184.444 20.341 184.773 19.981 185.008 19.5271C185.258 19.0732 185.383 18.5646 185.383 18.0012C185.383 17.4221 185.258 16.9134 185.008 16.4752C184.773 16.0213 184.444 15.6692 184.022 15.4188C183.599 15.1684 183.122 15.0432 182.589 15.0432C182.057 15.0432 181.58 15.1762 181.157 15.4423C180.751 15.6927 180.43 16.037 180.195 16.4752C179.96 16.9134 179.843 17.4221 179.843 18.0012C179.843 18.5802 179.96 19.0967 180.195 19.5506C180.445 19.9888 180.774 20.341 181.181 20.607C181.603 20.8574 182.081 20.9826 182.613 20.9826ZM196.267 24.0815C195.249 24.0815 194.357 23.9172 193.59 23.5885C192.839 23.2598 192.205 22.8138 191.689 22.2503C191.188 21.6713 190.804 21.0296 190.538 20.3253C190.288 19.6054 190.163 18.862 190.163 18.0951C190.163 16.9682 190.421 15.9666 190.937 15.0901C191.454 14.2137 192.166 13.525 193.074 13.0242C193.997 12.5234 195.054 12.273 196.243 12.273C197.088 12.273 197.832 12.406 198.473 12.6721C199.115 12.9381 199.647 13.2903 200.07 13.7285C200.508 14.1511 200.837 14.6206 201.056 15.1371C201.29 15.6535 201.408 16.1544 201.408 16.6395C201.408 17.469 201.204 18.0716 200.797 18.4472C200.406 18.8228 199.913 19.0106 199.318 19.0106H193.121C193.136 19.5428 193.301 20.0045 193.614 20.3957C193.942 20.787 194.349 21.0922 194.835 21.3113C195.335 21.5148 195.844 21.6165 196.36 21.6165C196.752 21.6165 197.096 21.593 197.393 21.5461C197.706 21.4991 197.973 21.4443 198.192 21.3817C198.411 21.3035 198.599 21.2252 198.755 21.147C198.927 21.0687 199.084 20.9983 199.225 20.9357C199.365 20.8731 199.498 20.834 199.624 20.8183C199.796 20.8026 199.968 20.8418 200.14 20.9357C200.312 21.0296 200.453 21.1939 200.563 21.4287C200.657 21.5852 200.719 21.7339 200.751 21.8747C200.797 21.9999 200.821 22.1251 200.821 22.2503C200.821 22.5634 200.633 22.8607 200.258 23.1424C199.882 23.4085 199.35 23.6276 198.661 23.7998C197.988 23.9876 197.19 24.0815 196.267 24.0815ZM193.121 17.3438H197.933C198.199 17.3438 198.403 17.3047 198.544 17.2264C198.685 17.1325 198.755 16.9447 198.755 16.663C198.755 16.303 198.645 15.9822 198.426 15.7005C198.207 15.4031 197.91 15.1762 197.534 15.0197C197.159 14.8475 196.72 14.7614 196.22 14.7614C195.641 14.7614 195.116 14.8788 194.647 15.1136C194.177 15.3327 193.802 15.6379 193.52 16.0292C193.254 16.4204 193.121 16.8586 193.121 17.3438ZM204.719 23.9406C204.297 23.9406 203.984 23.8702 203.78 23.7293C203.593 23.6041 203.475 23.432 203.428 23.2129C203.381 22.9938 203.358 22.7512 203.358 22.4851V13.7754C203.358 13.4937 203.381 13.2511 203.428 13.0477C203.475 12.8286 203.593 12.6642 203.78 12.5547C203.984 12.4295 204.305 12.3669 204.743 12.3669C205.166 12.3669 205.471 12.4216 205.659 12.5312C205.862 12.6408 205.987 12.7816 206.034 12.9538C206.097 13.1103 206.128 13.2668 206.128 13.4233L205.94 13.8459C206.018 13.7207 206.128 13.572 206.269 13.3998C206.41 13.212 206.598 13.032 206.832 12.8599C207.067 12.6721 207.349 12.5234 207.677 12.4138C208.006 12.2886 208.397 12.226 208.851 12.226C209.039 12.226 209.235 12.2495 209.438 12.2964C209.657 12.3277 209.869 12.3825 210.072 12.4608C210.291 12.5234 210.487 12.6095 210.659 12.719C210.831 12.8286 210.964 12.9616 211.058 13.1181C211.152 13.259 211.199 13.4233 211.199 13.6111C211.199 14.1119 211.074 14.5345 210.823 14.8788C210.573 15.2231 210.276 15.3953 209.931 15.3953C209.696 15.3953 209.524 15.3718 209.415 15.3249C209.305 15.2779 209.211 15.2231 209.133 15.1605C209.07 15.0979 208.969 15.0432 208.828 14.9962C208.703 14.9493 208.499 14.9258 208.217 14.9258C207.983 14.9258 207.74 14.9649 207.49 15.0432C207.255 15.1214 207.036 15.2388 206.832 15.3953C206.629 15.5518 206.465 15.7553 206.339 16.0057C206.214 16.2404 206.152 16.5143 206.152 16.8273V22.5321C206.152 22.7981 206.128 23.0407 206.081 23.2598C206.034 23.4633 205.909 23.6276 205.705 23.7528C205.502 23.878 205.173 23.9406 204.719 23.9406Z" fill="#2BBDFF"/>
</svg>
