<svg xmlns="http://www.w3.org/2000/svg" width="356" height="356" fill="none"><path d="M0 178c0-66.354 0-99.53 14.205-124.273a107 107 0 0 1 39.522-39.522C78.47 0 111.646 0 178 0s99.53 0 124.273 14.205c16.443 9.44 30.083 23.079 39.522 39.522C356 78.47 356 111.646 356 178s0 99.53-14.205 124.273c-9.439 16.443-23.079 30.083-39.522 39.522C277.53 356 244.354 356 178 356s-99.53 0-124.273-14.205c-16.443-9.439-30.082-23.079-39.522-39.522C0 277.53 0 244.354 0 178z" fill="#1f2539"/><path d="M233.81 169.947c3.6 1.26 6.8 2.16 9.82 3.48 17.44 7.61 28.6 20.86 32.36 39.34 4.36 21.48-3.38 41.49-21.86 55.1-10.22 7.52-21.75 10.55-34.37 10.51-18.12-.06-36.25.32-54.37.29-2.29 0-4.88-.92-6.79-2.21-3.79-2.57-4.63-5.89-3.32-9.95 1.25-3.87 4.17-6.29 8.54-6.37l30.26-.15 29.59-.08c18.07-.17 33.66-15.94 34.64-33.99 1-18.4-12.61-34.01-30.5-37.79-.76-.16-1.56-.19-2.34-.19-16.82-.01-33.63-.01-50.45 0-.43 0-.87.07-1.83.15v11.29l.03 12.44c-.03 1.97.61 2.86 2.69 2.85l30.47-.17c1.48-.03 3.18-.99 4.36-2 7.21-6.21 13.91-5.04 19.13-1.55 7.07 4.73 8.77 12.81 5.22 20.21-3.99 8.31-16.48 10.94-23.25 4.71-2.15-1.98-4.27-2.79-7.15-2.77-13.56.1-27.13.05-40.69-.01-5.96-.03-9.39-3.35-9.42-9.34l.04-45.05c.05-6.25 2.23-8.99 8.5-9.31 9.84-.5 19.71-.35 29.57-.37a35.84 35.84 0 0 0 35.56-41.34c-2.29-15.35-14.4-26.15-27.86-29.61-3.2-.82-6.67-.77-10.02-.78-23.54-.09-47.08-.3-70.62.03-5.37.08-10.8-4.61-10.75-9.67.06-5.28 4.88-9.63 10.85-9.63l43.04.06 29.59-.01c24.72.42 46.29 15.95 53.36 40.57 4.96 17.28 1.41 33.4-9.52 47.79-.74.96-1.41 1.97-2.51 3.52z" fill="url(#A)"/><path d="M128.25 142.357v4.93l-.18 99.56-.03 21.18c-.16 8.32-6.32 12.48-13.99 9.34-4.17-1.71-4.65-5.8-4.7-9.61l-.07-35.32-.11-94.85c0-1.9.03-3.82.26-5.7.56-4.74 4.08-7.87 8.81-7.88l56.84-.06c2.31 0 4.25-.08 6.15-2.24 4.65-5.28 13.51-4.69 17.43-2.68 6.21 3.18 9.53 9.14 8.87 15.56-.68 6.65-5.33 11.92-12.07 13.69-5.9 1.55-10.67-.69-15.03-4.43-.77-.66-1.81-1.43-2.74-1.44l-49.44-.05z" fill="url(#B)"/><defs><linearGradient id="A" x1="23.131" y1="284.022" x2="246.252" y2="17.794" gradientUnits="userSpaceOnUse"><stop stop-color="#ff4764"/><stop offset="1" stop-color="#ff6a58"/></linearGradient><linearGradient id="B" x1="77.809" y1="241.942" x2="200.301" y2="119.449" gradientUnits="userSpaceOnUse"><stop stop-color="#ef3a56"/><stop offset="1" stop-color="#f37161"/></linearGradient></defs></svg>