<svg xmlns="http://www.w3.org/2000/svg" width="512" height="512" fill="none"><path d="M512 105.087v301.826C512 464.96 463.163 512 402.882 512H109.118C48.869 512 0 464.96 0 406.913V105.087C0 47.056 48.869 0 109.118 0h293.764C463.147 0 512 47.056 512 105.087z" fill="url(#A)"/><path d="M413.631 218.156H163.846c-38.978 0-70.592 31.597-70.592 70.592a5.1 5.1 0 0 0 5.099 5.099h249.8c38.979 0 70.593-31.597 70.593-70.592-.017-2.817-2.299-5.099-5.115-5.099zm-46.28 111.788H211.728c-39.432 0-71.386 31.953-71.386 71.385a4.29 4.29 0 0 0 4.29 4.29h155.607c39.432 0 71.386-31.954 71.386-71.386.016-2.363-1.91-4.289-4.274-4.289zm46.28-223.578H163.846c-38.978 0-70.592 31.598-70.592 70.592a5.1 5.1 0 0 0 5.099 5.099h249.8c38.979 0 70.593-31.597 70.593-70.592-.017-2.816-2.299-5.099-5.115-5.099z" fill="#fff"/><defs><linearGradient id="A" x1="130.406" y1="130.406" x2="485.628" y2="485.628" gradientUnits="userSpaceOnUse"><stop stop-color="#05cdff"/><stop offset="1" stop-color="#0976ff"/></linearGradient></defs></svg>
