<svg xmlns="http://www.w3.org/2000/svg" height="512" width="512"><path d="M176.539 330.307c-10.072-6.804-17.044-16.741-20.851-29.878l23.377-9.634c2.122 8.084 5.827 14.349 11.116 18.796 5.255 4.446 11.655 6.636 19.133 6.636 7.646 0 14.215-2.324 19.705-6.973s8.253-10.577 8.253-17.752c0-7.343-2.897-13.339-8.691-17.987s-13.069-6.973-21.76-6.973h-13.507v-23.141h12.126c7.478 0 13.777-2.021 18.897-6.063s7.68-9.566 7.68-16.606c0-6.265-2.291-11.251-6.872-14.989s-10.375-5.625-17.415-5.625c-6.872 0-12.328 1.819-16.371 5.491s-6.973 8.185-8.825 13.507l-23.141-9.634c3.065-8.691 8.691-16.371 16.943-23.006s18.796-9.971 31.596-9.971c9.465 0 17.987 1.819 25.533 5.491s13.474 8.758 17.752 15.225c4.278 6.501 6.4 13.777 6.4 21.861 0 8.253-1.987 15.225-5.962 20.952s-8.859 10.105-14.653 13.171v1.381c7.646 3.2 13.878 8.084 18.796 14.653 4.884 6.568 7.343 14.417 7.343 23.579s-2.324 17.347-6.973 24.522-11.082 12.834-19.234 16.943c-8.185 4.109-17.381 6.198-27.587 6.198-11.823.033-22.736-3.369-32.808-10.174zm143.596-116.008l-25.668 18.56-12.833-19.47 46.046-33.212h17.651v156.665h-25.196z" fill="#0085f7"/><path d="M390.737 390.737H121.263l-38.574 56.837L121.263 512h269.474l31.868-68.546z" fill="#00a94b"/><path d="M390.737 0H40.421C18.088 0 0 18.088 0 40.421v350.316l60.632 43.103 60.632-43.103V121.263h269.474l41.482-60.632z" fill="#0085f7"/><path d="M0 390.737v80.842C0 493.912 18.088 512 40.421 512h80.842V390.737z" fill="#00802e"/><path d="M512 121.263l-60.632-39.014-60.631 39.014v269.474l54.529 28.463L512 390.737z" fill="#ffbc00"/><path d="M512 121.263V40.421C512 18.088 493.912 0 471.579 0h-80.842v121.263z" fill="#0067d5"/><path d="M390.737 512L512 390.737H390.737z" fill="#ff4131"/></svg>
