<svg xmlns="http://www.w3.org/2000/svg" xmlns:xlink="http://www.w3.org/1999/xlink" width="49" height="67"><style><![CDATA[.B{fill:#fff}.C{fill-rule:nonzero}]]></style><defs><path d="M29.583 0H4.438C1.997 0 0 1.997 0 4.438v56.208c0 2.441 1.997 4.438 4.438 4.438h38.458c2.441 0 4.438-1.997 4.438-4.438V17.75L29.583 0z" id="A"/><linearGradient x1="50.0053945%" y1="8.58610612%" x2="50.0053945%" y2="100.013939%" id="B"><stop stop-color="#263238" stop-opacity=".2" offset="0%"/><stop stop-color="#263238" stop-opacity=".02" offset="100%"/></linearGradient><radialGradient cx="3.16804688%" cy="2.71744318%" fx="3.16804688%" fy="2.71744318%" r="161.248516%" gradientTransform="translate(0.031680,0.027174),scale(1.000000,0.727273),translate(-0.031680,-0.027174)" id="C"><stop stop-color="#fff" stop-opacity=".1" offset="0%"/><stop stop-color="#fff" stop-opacity="0" offset="100%"/></radialGradient></defs><g transform="translate(.833 .958)" fill="none" fill-rule="evenodd"><mask id="D" class="B"><use xlink:href="#A"/></mask><path d="M29.583 0H4.438C1.997 0 0 1.997 0 4.438v56.208c0 2.441 1.997 4.438 4.438 4.438h38.458c2.441 0 4.438-1.997 4.438-4.438V17.75l-10.354-7.396L29.583 0z" fill="#0f9d58" mask="url(#D)" class="C"/><mask id="E" class="B"><use xlink:href="#B" href="#A"/></mask><path d="M11.833 31.802V53.25H35.5V31.802H11.833zm10.354 18.49h-7.396v-3.698h7.396v3.698zm0-5.917h-7.396v-3.698h7.396v3.698zm0-5.917h-7.396V34.76h7.396v3.698zm10.354 11.833h-7.396v-3.698h7.396v3.698zm0-5.917h-7.396v-3.698h7.396v3.698zm0-5.917h-7.396V34.76h7.396v3.698z" fill="#f1f1f1" mask="url(#E)" class="C"/><mask id="F" class="B"><use xlink:href="#C" href="#A"/></mask><path fill="url(#B)" mask="url(#F)" d="M30.881 16.452L47.333 32.9V17.75z" class="C"/><mask id="G" class="B"><use xlink:href="#E" href="#A"/></mask><g mask="url(#G)" class="C"><path d="M2.958 2.958v13.312c0 2.452 1.986 4.438 4.438 4.438h13.312L2.958 2.958z" fill="#87ceac" transform="translate(26.625 -2.958)"/></g><mask id="H" class="B"><use xlink:href="#F" href="#A"/></mask><path d="M4.438 0C1.997 0 0 1.997 0 4.438v.37C0 2.367 1.997.37 4.438.37h25.146V0H4.438z" fill-opacity=".2" mask="url(#H)" class="B C"/><mask id="I" class="B"><use xlink:href="#G" href="#A"/></mask><path d="M42.896 64.714H4.438C1.997 64.714 0 62.717 0 60.276v.37c0 2.441 1.997 4.438 4.438 4.438h38.458c2.441 0 4.438-1.997 4.438-4.438v-.37c0 2.441-1.997 4.437-4.437 4.437z" fill-opacity=".2" fill="#263238" mask="url(#I)" class="C"/><mask id="J" class="B"><use xlink:href="#H" href="#A"/></mask><g class="C"><path d="M34.021 17.75c-2.452 0-4.437-1.986-4.437-4.437v.37c0 2.452 1.986 4.438 4.438 4.438h13.313v-.37H34.021z" fill-opacity=".1" fill="#263238" mask="url(#J)"/><path d="M29.583 0H4.438C1.997 0 0 1.997 0 4.438v56.208c0 2.441 1.997 4.438 4.438 4.438h38.458c2.441 0 4.438-1.997 4.438-4.438V17.75L29.583 0z" fill="url(#C)"/></g></g></svg>
