<svg xmlns="http://www.w3.org/2000/svg" width="60" height="66" fill="none"><g clip-path="url(#A)"><path d="M16.43 62.73c1.24 1.2.36 3.27-1.4 3.27H3.95A3.9 3.9 0 0 1 0 62.16V51.44c0-1.72 2.13-2.57 3.38-1.36l13.05 12.65z" fill="#0a1551"/><path d="M33.72 63.56a8.3 8.3 0 0 1-2.452-5.89 8.3 8.3 0 0 1 2.452-5.89l11.82-11.74a8.42 8.42 0 0 1 11.86 0 8.3 8.3 0 0 1 2.452 5.89 8.3 8.3 0 0 1-2.452 5.89L45.58 63.56a8.42 8.42 0 0 1-11.86 0z" fill="#ffb629"/><path d="M2.5 34.05a8.3 8.3 0 0 1-2.452-5.89A8.3 8.3 0 0 1 2.5 22.27L22.39 2.5a8.42 8.42 0 0 1 11.86 0 8.3 8.3 0 0 1 2.452 5.89 8.3 8.3 0 0 1-2.452 5.89l-19.9 19.77a8.42 8.42 0 0 1-11.85 0z" fill="#09f"/><path d="M18.76 48.15a8.3 8.3 0 0 1-2.452-5.89 8.3 8.3 0 0 1 2.452-5.89l26.87-26.7a8.42 8.42 0 0 1 11.86 0 8.3 8.3 0 0 1 2.452 5.89 8.3 8.3 0 0 1-2.452 5.89l-26.87 26.7a8.42 8.42 0 0 1-11.86 0z" fill="#ff6100"/></g><defs><clipPath id="A"><path fill="#fff" d="M0 0h60v66H0z"/></clipPath></defs></svg>
