<svg xmlns="http://www.w3.org/2000/svg" width="115" height="73" fill="none"><path d="M114.7 36.1a35.8 35.8 0 0 1-11.4 26.6 35.5 35.5 0 0 1-25.2 9.9 35.6 35.6 0 0 1-25.2-10.3L38.3 48l-5.2-5.2a12.4 12.4 0 0 1-3.8-10.1c.4-5.9 4.7-10.7 10.5-11.8 4.5-.8 8.4.5 11.7 3.7l8.8 8.8 8.8 8.8a4.89 4.89 0 0 0 3.8 1.4c1.3-.1 2.5-.9 3.3-2 1.2-1.8.9-4.1-.7-5.6l-11-11-2.1-2.1-2-2-4.8-4.7A27 27 0 0 0 41 9a27 27 0 0 0-22.6 6 27.9 27.9 0 0 0-6.709 34.462A27.9 27.9 0 0 0 44 63.2c2.5-.8 4.4.5 5.2 2 .6 1.1.7 2.5.2 3.6-.5 1.2-1.5 2-2.7 2.4a39.7 39.7 0 0 1-10.3 1.5h-.2A36.4 36.4 0 0 1 6.059 56.522a36.4 36.4 0 0 1-3.41-34.038A36.4 36.4 0 0 1 28.982.649 36.4 36.4 0 0 1 61.8 10.3l14.5 14.4 5.3 5.3c2.8 2.8 4.1 6.2 3.8 10A12.8 12.8 0 0 1 75 51.8a13 13 0 0 1-11.9-3.7l-4.6-4.5-12.9-12.9c-1-1-2-1.5-3.2-1.5h-.1c-1.9 0-3.4 1-4.1 2.7a4.5 4.5 0 0 0 1 4.9l7.4 7.4 5.7 5.7 6 6a28.1 28.1 0 0 0 18.3 8.4l1.7.2a28.5 28.5 0 0 0 16.82-5.828c4.84-3.689 8.372-8.83 10.08-14.672 1.357-4.714 1.443-9.703.249-14.46s-3.626-9.114-7.049-12.628A27.8 27.8 0 0 0 71.5 9.4l-1.7.4c-2.2.4-4.3-.9-4.9-3-.6-2.2.6-4.5 2.7-5.1 1.9-.6 3.5-.9 5-1.2a36.3 36.3 0 0 1 15.509.856c5.047 1.401 9.731 3.877 13.731 7.259a36.31 36.31 0 0 1 9.44 12.334A36.32 36.32 0 0 1 114.7 36.1z" fill="#2171b1"/></svg>
