<svg width="20" height="21" viewBox="0 0 20 21" fill="none" xmlns="http://www.w3.org/2000/svg">
<path d="M19.6229 12.6092C19.5146 13.267 19.4347 13.9191 19.2946 14.558C19.0999 15.4461 18.7502 16.2776 18.2339 17.0316C17.8394 17.6077 17.3605 18.1031 16.7991 18.5208C15.9447 19.1564 14.9827 19.5396 13.9499 19.7665C13.0652 19.961 12.1688 20.0664 11.2673 20.1368C10.4104 20.2038 9.55166 20.2102 8.69493 20.1579C7.7506 20.1001 6.81269 19.9802 5.88584 19.7802C5.309 19.6556 4.7464 19.4868 4.20914 19.2462C3.49523 18.9265 2.85166 18.5001 2.29415 17.9433C1.74325 17.3932 1.31458 16.7611 0.986008 16.0608C0.708664 15.4697 0.519272 14.8476 0.382949 14.2088C0.195471 13.3302 0.119373 12.4383 0.060357 11.5447C-0.00712026 10.523 0.00507465 9.50102 0.0917147 8.48101C0.165044 7.61772 0.280637 6.75981 0.500148 5.9196C0.699586 5.15623 0.989814 4.42938 1.41027 3.75937C1.76754 3.19005 2.20562 2.69027 2.72358 2.25975C3.62551 1.51008 4.66728 1.0623 5.80573 0.822188C7.3434 0.497868 8.90014 0.36754 10.4689 0.406805C11.8724 0.441934 13.2607 0.611413 14.6144 1.00121C15.6037 1.2861 16.5003 1.74996 17.2668 2.44452C17.9028 3.02084 18.3928 3.70509 18.7587 4.4829C19.1525 5.3201 19.3655 6.20555 19.5116 7.11286C19.7656 8.69131 19.7947 10.277 19.6814 11.8682C19.664 12.1115 19.6434 12.3545 19.6229 12.6092ZM1.79047 7.08439C1.61311 8.08475 1.52888 9.09412 1.53503 10.1088C1.5389 10.7474 1.56817 11.3866 1.61197 12.0238C1.66645 12.8164 1.76689 13.6031 1.97824 14.3736C2.20116 15.1862 2.54389 15.9343 3.08967 16.5824C3.5782 17.1625 4.18425 17.5818 4.87366 17.8874C5.53629 18.1812 6.24063 18.3221 6.94862 18.4436C7.78246 18.5868 8.62399 18.6579 9.47005 18.6723C10.7008 18.6931 11.9224 18.5999 13.1358 18.3903C13.9738 18.2456 14.7775 18.0115 15.5128 17.5683C16.1889 17.1608 16.7266 16.6179 17.1358 15.9471C17.548 15.2715 17.7863 14.5286 17.9347 13.7577C18.1523 12.6272 18.2231 11.4815 18.2366 10.3327C18.246 9.52503 18.2005 8.7192 18.097 7.91701C17.9883 7.07414 17.8511 6.23853 17.5334 5.44344C17.2925 4.84042 16.9661 4.28858 16.5171 3.81875C15.8346 3.10468 14.9943 2.65746 14.0445 2.40844C12.7275 2.06317 11.3858 1.91101 10.0266 1.91243C9.17685 1.91332 8.32741 1.94495 7.48594 2.07188C6.93402 2.15513 6.38141 2.24392 5.83735 2.36674C5.07427 2.53902 4.37861 2.87412 3.75987 3.35456C3.15802 3.82187 2.71558 4.42079 2.38956 5.10489C2.09316 5.72681 1.91214 6.38592 1.79047 7.08439Z" fill="#151A45"/>
<path d="M1.79256 7.07389C1.91215 6.38597 2.09317 5.72686 2.38957 5.10494C2.71559 4.42085 3.15804 3.82192 3.75988 3.35461C4.37862 2.87418 5.07428 2.53907 5.83736 2.3668C6.38142 2.24397 6.93403 2.15519 7.48595 2.07193C8.32743 1.945 9.17686 1.91338 10.0266 1.91249C11.3858 1.91106 12.7276 2.06322 14.0445 2.40849C14.9943 2.65752 15.8346 3.10474 16.5171 3.81881C16.9662 4.28864 17.2926 4.84047 17.5335 5.44349C17.8511 6.23859 17.9883 7.07419 18.097 7.91706C18.2005 8.71925 18.2461 9.52508 18.2366 10.3328C18.2231 11.4815 18.1523 12.6272 17.9347 13.7577C17.7863 14.5287 17.548 15.2716 17.1358 15.9472C16.7266 16.618 16.1889 17.1608 15.5128 17.5683C14.7775 18.0115 13.9738 18.2457 13.1358 18.3904C11.9224 18.6 10.7008 18.6931 9.47007 18.6723C8.62401 18.658 7.78248 18.5869 6.94863 18.4437C6.24064 18.3221 5.5363 18.1812 4.87367 17.8875C4.18426 17.5818 3.57821 17.1625 3.08969 16.5824C2.5439 15.9343 2.20117 15.1863 1.97825 14.3736C1.7669 13.6032 1.66646 12.8165 1.61198 12.0239C1.56818 11.3867 1.53891 10.7474 1.53504 10.1089C1.52889 9.09418 1.61312 8.0848 1.79256 7.07389ZM6.43382 10.4518C6.44071 10.4761 6.44701 10.5005 6.45459 10.5245C6.57305 10.9002 6.96807 11.1393 7.35294 11.0685C7.7537 10.9948 8.04245 10.626 8.01327 10.2252C7.97978 9.76527 7.56962 9.43344 7.10415 9.48975C6.65819 9.5437 6.34929 9.9746 6.43382 10.4518ZM11.7682 10.0222C11.7585 10.063 11.7471 10.1035 11.7394 10.1447C11.6653 10.5411 11.9169 10.9416 12.3065 11.0484C12.7009 11.1565 13.1273 10.9482 13.2688 10.5783C13.4257 10.1682 13.2282 9.70134 12.8296 9.54026C12.4109 9.37103 11.9466 9.57485 11.7682 10.0222ZM10.234 11.0088C10.5452 10.8656 10.7267 10.5237 10.6824 10.2855C10.16 10.2855 9.63661 10.2855 9.11407 10.2855C9.06651 10.7707 9.62291 11.2623 10.234 11.0088Z" fill="#00FFA3"/>
<path d="M6.43135 10.4415C6.34918 9.97454 6.65809 9.54364 7.10404 9.48969C7.56952 9.43338 7.97968 9.76521 8.01317 10.2252C8.04235 10.626 7.7536 10.9947 7.35284 11.0684C6.96797 11.1392 6.57295 10.9001 6.45448 10.5245C6.44691 10.5004 6.44061 10.476 6.43135 10.4415Z" fill="#141B45"/>
<path d="M11.7717 10.0125C11.9466 9.57474 12.4109 9.37091 12.8297 9.54015C13.2282 9.70122 13.4257 10.1681 13.2688 10.5782C13.1273 10.9481 12.7009 11.1564 12.3066 11.0483C11.917 10.9415 11.6653 10.541 11.7394 10.1446C11.7471 10.1034 11.7585 10.0629 11.7717 10.0125Z" fill="#141B45"/>
<path d="M10.2254 11.0132C9.62295 11.2622 9.06655 10.7707 9.11411 10.2855C9.63665 10.2855 10.16 10.2855 10.6825 10.2855C10.7268 10.5237 10.5453 10.8656 10.2254 11.0132Z" fill="#131F47"/>
</svg>
