<svg width="20" height="20" viewBox="0 0 20 20" fill="none" xmlns="http://www.w3.org/2000/svg">
<g id="Vector">
<path d="M0 9.89634C0 6.20725 0 4.36271 0.789742 2.98708C1.31457 2.07289 2.07289 1.31457 2.98708 0.789742C4.36271 0 6.20725 0 9.89634 0C13.5854 0 15.43 0 16.8056 0.789742C17.7198 1.31457 18.4781 2.07289 19.0029 2.98708C19.7927 4.36271 19.7927 6.20725 19.7927 9.89634C19.7927 13.5854 19.7927 15.43 19.0029 16.8056C18.4781 17.7198 17.7198 18.4781 16.8056 19.0029C15.43 19.7927 13.5854 19.7927 9.89634 19.7927C6.20725 19.7927 4.36271 19.7927 2.98708 19.0029C2.07289 18.4781 1.31457 17.7198 0.789742 16.8056C0 15.43 0 13.5854 0 9.89634Z" fill="#1F2539"/>
<path d="M12.9992 9.44859C13.1994 9.51864 13.3773 9.56868 13.5452 9.64207C14.5148 10.0652 15.1353 10.8018 15.3443 11.8293C15.5868 13.0235 15.1564 14.136 14.129 14.8927C13.5608 15.3108 12.9197 15.4792 12.2181 15.477C11.2107 15.4737 10.2027 15.4948 9.19527 15.4931C9.06796 15.4931 8.92396 15.442 8.81777 15.3703C8.60705 15.2274 8.56035 15.0428 8.63318 14.8171C8.70268 14.6019 8.86503 14.4674 9.10799 14.4629C9.66896 14.4529 10.2294 14.4562 10.7904 14.4546C11.3386 14.4529 11.8873 14.4557 12.4355 14.4501C13.4401 14.4407 14.3069 13.5639 14.3614 12.5604C14.417 11.5374 13.6603 10.6695 12.6657 10.4593C12.6234 10.4505 12.5789 10.4488 12.5356 10.4488C11.6004 10.4482 10.6658 10.4482 9.73068 10.4488C9.70677 10.4488 9.68231 10.4527 9.62893 10.4571C9.62893 10.6678 9.62838 10.8763 9.62893 11.0848C9.62949 11.3155 9.63449 11.5463 9.6306 11.7765C9.62893 11.886 9.66452 11.9355 9.78016 11.9349C10.345 11.931 10.9099 11.936 11.4742 11.9255C11.5565 11.9238 11.651 11.8704 11.7166 11.8143C12.1175 11.469 12.49 11.534 12.7802 11.7281C13.1733 11.9911 13.2678 12.4403 13.0704 12.8517C12.8486 13.3137 12.1542 13.4599 11.7778 13.1136C11.6582 13.0035 11.5404 12.9585 11.3803 12.9596C10.6264 12.9651 9.87189 12.9623 9.11799 12.959C8.78663 12.9573 8.59593 12.7728 8.59427 12.4397C8.59037 11.6047 8.59037 10.7701 8.59649 9.93507C8.59927 9.58758 8.72047 9.43524 9.06907 9.41745C9.61615 9.38966 10.1649 9.39799 10.7131 9.39688C11.9462 9.3941 12.8719 8.31551 12.6901 7.09849C12.5628 6.24507 11.8895 5.64461 11.1412 5.45225C10.9633 5.40666 10.7703 5.40944 10.5841 5.40888C9.27533 5.40388 7.96657 5.3922 6.65781 5.41055C6.35925 5.415 6.05736 5.15424 6.06014 4.87292C6.06347 4.57937 6.33145 4.33752 6.66337 4.33752C7.46119 4.33752 8.25901 4.3403 9.05628 4.34085C9.60447 4.34141 10.1532 4.3314 10.7014 4.3403C12.0758 4.36365 13.275 5.22708 13.6681 6.59588C13.9438 7.55661 13.7465 8.45284 13.1388 9.25289C13.0977 9.30626 13.0604 9.36241 12.9992 9.44859Z" fill="url(#paint0_linear_5_5351)"/>
<path d="M7.13039 7.91466C7.13039 8.01862 7.13039 8.10369 7.13039 8.18875C7.12705 10.034 7.12371 11.8788 7.12038 13.724C7.11982 14.1165 7.12649 14.5091 7.11871 14.9016C7.10982 15.3642 6.76733 15.5954 6.3409 15.4209C6.10906 15.3258 6.08237 15.0984 6.07959 14.8866C6.07181 14.2322 6.07626 13.5778 6.0757 12.9229C6.07348 11.1649 6.0707 9.40744 6.06959 7.64946C6.06959 7.54382 6.07126 7.43707 6.08404 7.33255C6.11518 7.06902 6.31088 6.895 6.57386 6.89444C7.62743 6.89278 8.681 6.89222 9.73401 6.89111C9.86244 6.89111 9.9703 6.88666 10.0759 6.76657C10.3345 6.47301 10.8271 6.50582 11.045 6.61757C11.3903 6.79437 11.5748 7.12573 11.5381 7.48266C11.5003 7.85239 11.2418 8.14538 10.8671 8.24379C10.5391 8.32997 10.2739 8.20543 10.0315 7.9975C9.98865 7.9608 9.93083 7.91799 9.87912 7.91744C8.97511 7.91354 8.07165 7.91466 7.13039 7.91466Z" fill="url(#paint1_linear_5_5351)"/>
</g>
<defs>
<linearGradient id="paint0_linear_5_5351" x1="1.286" y1="15.7909" x2="13.691" y2="0.989315" gradientUnits="userSpaceOnUse">
<stop stop-color="#FF4764"/>
<stop offset="1" stop-color="#FF6A58"/>
</linearGradient>
<linearGradient id="paint1_linear_5_5351" x1="4.32597" y1="13.4513" x2="11.1362" y2="6.64108" gradientUnits="userSpaceOnUse">
<stop stop-color="#EF3A56"/>
<stop offset="1" stop-color="#F37161"/>
</linearGradient>
</defs>
</svg>
