<svg width="20" height="22" viewBox="0 0 20 22" fill="none" xmlns="http://www.w3.org/2000/svg">
<path d="M0 6.3401C0 3.28041 2.48221 0.800049 5.54416 0.800049H14.2168C17.2788 0.800049 19.761 3.28041 19.761 6.34009V15.5661C19.761 18.6258 17.2788 21.1061 14.2168 21.1061H5.54417C2.48221 21.1061 0 18.6258 0 15.5661V6.3401Z" fill="white"/>
<path d="M12.8853 16.6828C12.8847 15.0213 12.8847 13.3722 12.8847 11.7134C12.8354 11.71 12.796 11.7051 12.7567 11.7051C11.3658 11.7047 9.97497 11.7023 8.58414 11.706C8.05747 11.7074 7.5885 11.8575 7.22985 12.2667C7.05072 12.4711 6.92828 12.705 6.92226 12.9741C6.90964 13.5387 6.90037 14.1045 6.92301 14.6684C6.94326 15.1731 7.26151 15.4963 7.6839 15.7343C7.97494 15.8984 8.29382 15.9401 8.6195 15.942C9.31717 15.946 10.0149 15.9453 10.7126 15.9424C11.0179 15.9412 11.25 16.0562 11.3921 16.3307C11.6034 16.739 11.3014 17.2804 10.8391 17.2862C9.95468 17.2973 9.06786 17.3242 8.18591 17.2755C7.09452 17.2153 5.94648 16.4284 5.62293 15.2029C5.57057 15.0046 5.55542 14.7926 5.55204 14.5865C5.54323 14.0488 5.5392 13.5105 5.55409 12.9731C5.57486 12.2235 5.89976 11.6107 6.45653 11.1125C6.48609 11.086 6.51652 11.0605 6.53688 11.0429C6.36541 10.8485 6.1848 10.6694 6.03455 10.4681C5.70247 10.0231 5.53988 9.51963 5.54674 8.96229C5.55302 8.45163 5.53966 7.94062 5.55181 7.43015C5.57268 6.55259 5.96388 5.86295 6.67624 5.35253C7.23105 4.95499 7.85384 4.75643 8.54138 4.75722C10.2013 4.75913 11.8612 4.75716 13.521 4.75818C13.9041 4.75842 14.1745 4.97242 14.2344 5.3153C14.3047 5.71815 14.0217 6.07723 13.6097 6.10638C13.5507 6.11055 13.4912 6.10864 13.4319 6.10864C11.8268 6.10874 10.2216 6.10706 8.61644 6.10982C8.1789 6.11057 7.76645 6.20175 7.41947 6.48957C7.09853 6.75579 6.91248 7.08808 6.91174 7.51028C6.91091 7.98939 6.91031 8.4685 6.91183 8.9476C6.9136 9.50461 7.21026 9.87472 7.67937 10.1378C7.96667 10.2989 8.27878 10.3451 8.6009 10.3454C10.2334 10.3467 11.8659 10.3458 13.4985 10.3462C13.9838 10.3463 14.2583 10.6397 14.2563 11.1191C14.2499 12.6829 14.2527 14.2468 14.252 15.8107C14.2518 16.0728 14.2533 16.335 14.2516 16.5971C14.2491 16.9868 13.9828 17.2741 13.6017 17.3011C13.2462 17.3262 12.9472 17.0731 12.8853 16.6828Z" fill="#6518B6"/>
<path d="M14.2338 9.01459C14.1075 9.53629 13.6183 9.83656 13.108 9.71518C12.6078 9.5962 12.3037 9.10566 12.4178 8.60162C12.5294 8.10852 13.025 7.79138 13.5148 7.89953C14.0337 8.01409 14.3455 8.49164 14.2338 9.01459Z" fill="#6518B6"/>
<path d="M12.6963 16.6829L12.6963 16.6977L12.6986 16.7124C12.7738 17.1866 13.1491 17.5226 13.615 17.4896C14.0971 17.4556 14.4375 17.0843 14.4406 16.5984C14.4417 16.4224 14.4415 16.2459 14.4412 16.0703C14.4411 15.9835 14.441 15.8969 14.441 15.8108C14.4412 15.3794 14.4411 14.9482 14.4411 14.5171C14.4409 13.3844 14.4407 12.2522 14.4454 11.1199C14.4465 10.8445 14.3678 10.5989 14.1959 10.4214C14.0233 10.2431 13.7796 10.1572 13.4985 10.1571C12.9046 10.157 12.3107 10.157 11.7169 10.1571C10.6782 10.1571 9.63968 10.1572 8.60105 10.1564C8.29604 10.1561 8.02011 10.1122 7.77184 9.97294C7.34412 9.73306 7.10236 9.4174 7.10086 8.947C7.09935 8.46841 7.09994 7.9897 7.10077 7.51061C7.10139 7.1536 7.25492 6.87166 7.54016 6.63506C7.84156 6.38505 8.20503 6.29956 8.61677 6.29885C9.76199 6.29688 10.9071 6.29718 12.0525 6.29747C12.5123 6.29759 12.9721 6.2977 13.4319 6.29767C13.4431 6.29767 13.4552 6.29777 13.468 6.29787C13.5142 6.29825 13.5699 6.29869 13.623 6.29494C14.1452 6.258 14.5105 5.79763 14.4206 5.28279C14.3832 5.06862 14.2778 4.88669 14.1155 4.75948C13.9542 4.63303 13.748 4.56929 13.5212 4.56915C12.7982 4.56871 12.0756 4.56883 11.353 4.56895C10.4159 4.56911 9.47895 4.56927 8.5416 4.56819C7.81487 4.56736 7.15342 4.77807 6.56614 5.19887C5.80893 5.74143 5.38522 6.48468 5.36283 7.42566C5.35599 7.71324 5.35724 8.00959 5.35848 8.30273C5.35942 8.5254 5.36035 8.74623 5.35772 8.95997C5.35036 9.55849 5.52592 10.1026 5.88305 10.5811C5.99207 10.7272 6.12062 10.8671 6.2427 10.9999C6.2514 11.0094 6.26007 11.0188 6.26869 11.0282C5.71596 11.5464 5.38674 12.1879 5.36513 12.9678C5.35013 13.5095 5.35421 14.051 5.36303 14.5895C5.3665 14.8012 5.38203 15.031 5.44016 15.2512C5.78677 16.5639 7.01095 17.4 8.17549 17.4643C8.91251 17.505 9.65354 17.4934 10.386 17.4819C10.5382 17.4795 10.6901 17.4772 10.8415 17.4753C11.1508 17.4714 11.3982 17.2881 11.5323 17.0531C11.6661 16.8188 11.6993 16.5131 11.56 16.2438C11.4738 16.0773 11.3553 15.9507 11.2049 15.8677C11.0561 15.7855 10.8881 15.7527 10.7118 15.7534C10.0145 15.7562 9.31743 15.757 8.62058 15.753C8.3086 15.7512 8.02716 15.7108 7.77671 15.5697C7.3806 15.3464 7.12836 15.0711 7.11189 14.6609C7.08951 14.1034 7.09862 13.5428 7.11125 12.9783C7.11595 12.7678 7.21118 12.5748 7.37201 12.3913C7.68543 12.0337 8.09606 11.8964 8.58465 11.895C9.63316 11.8922 10.6816 11.8929 11.7304 11.8936C12.0521 11.8938 12.3739 11.894 12.6957 11.8941C12.6957 13.492 12.6957 15.0816 12.6963 16.6829ZM13.0737 11.7134V11.5367L12.8974 11.5248C12.8881 11.5241 12.8768 11.5232 12.8645 11.5222C12.8317 11.5194 12.7911 11.516 12.7567 11.516C12.415 11.5159 12.0732 11.5157 11.7314 11.5155C10.6823 11.5148 9.63293 11.5142 8.58363 11.517C8.01888 11.5185 7.49156 11.6813 7.0877 12.1421C6.89026 12.3673 6.7406 12.6422 6.73328 12.9699C6.72065 13.5346 6.71123 14.1056 6.73413 14.676C6.75817 15.2751 7.14242 15.6462 7.59108 15.899C7.92272 16.0859 8.27905 16.1291 8.61842 16.131C9.31692 16.135 10.0153 16.1343 10.7134 16.1314C10.8424 16.1309 10.9431 16.155 11.0222 16.1986C11.0998 16.2415 11.1683 16.3096 11.2242 16.4176C11.2962 16.5566 11.2839 16.7257 11.204 16.8656C11.1244 17.005 10.9897 17.0953 10.8367 17.0972C10.6828 17.0992 10.5291 17.1016 10.3758 17.1039C9.64374 17.1154 8.9187 17.1267 8.19633 17.0868C7.1781 17.0306 6.10619 16.2928 5.8057 15.1547C5.75912 14.9782 5.74433 14.784 5.74105 14.5834C5.73225 14.0465 5.72828 13.5116 5.74305 12.9783C5.76219 12.2877 6.05897 11.7219 6.58258 11.2534L6.45718 11.1132L6.58259 11.2533C6.60191 11.2361 6.62044 11.2202 6.63776 11.2054C6.64559 11.1987 6.65317 11.1923 6.66048 11.186L6.80496 11.0611L6.67866 10.9179C6.61888 10.8501 6.56101 10.7872 6.50516 10.7265C6.38996 10.6013 6.28331 10.4853 6.18604 10.355C5.87903 9.9436 5.72941 9.48078 5.73575 8.96462C5.73859 8.73397 5.73755 8.51051 5.73653 8.28888C5.73521 8.00486 5.73391 7.72386 5.74079 7.43465C5.76015 6.6205 6.11883 5.98447 6.78634 5.50619C7.30869 5.13192 7.89282 4.94551 8.54117 4.94626C9.47842 4.94733 10.4161 4.94717 11.3536 4.94702C12.0762 4.94689 12.7987 4.94677 13.5209 4.94722C13.6772 4.94731 13.7977 4.99069 13.8823 5.05702C13.966 5.12259 14.0257 5.2191 14.0482 5.3478C14.0989 5.63867 13.8983 5.89646 13.5964 5.91782C13.5595 5.92043 13.5244 5.92017 13.4815 5.91985C13.4661 5.91973 13.4497 5.91961 13.4319 5.91961C12.9723 5.91964 12.5127 5.91952 12.053 5.91941C10.9075 5.91911 9.76176 5.91882 8.61611 5.92079C8.15278 5.92159 7.69135 6.01845 7.29879 6.34408C6.94213 6.63992 6.72356 7.02255 6.72271 7.50996C6.72188 7.98907 6.72128 8.46859 6.7228 8.9482C6.72484 9.59183 7.0764 10.0164 7.58691 10.3027C7.91322 10.4857 8.26151 10.5342 8.60075 10.5344C9.63945 10.5353 10.6783 10.5352 11.717 10.5351C12.3108 10.5351 12.9047 10.5351 13.4984 10.5352C13.7026 10.5353 13.8389 10.5961 13.9243 10.6844C14.0106 10.7735 14.0682 10.9142 14.0673 11.1183C14.0626 12.2515 14.0628 13.3849 14.063 14.5178C14.0631 14.9488 14.0631 15.3798 14.0629 15.8106C14.0629 15.8984 14.063 15.9858 14.0632 16.0729C14.0634 16.2476 14.0637 16.4215 14.0626 16.5959C14.0607 16.8893 13.8684 17.0927 13.5884 17.1125C13.347 17.1296 13.1273 16.9648 13.0743 16.667C13.0737 15.0109 13.0737 13.367 13.0737 11.7134ZM14.4175 9.05908L14.4176 9.0591L14.4187 9.05407C14.5523 8.42853 14.1749 7.85168 13.5556 7.71495C12.9628 7.58407 12.3677 7.96668 12.2334 8.55989C12.0967 9.16411 12.4624 9.75592 13.0643 9.89908C13.6776 10.045 14.2671 9.68023 14.4175 9.05908ZM0.189031 6.3401C0.189031 3.38495 2.58647 0.98908 5.54416 0.98908H14.2168C17.1745 0.98908 19.5719 3.38494 19.5719 6.34009V15.5661C19.5719 18.5212 17.1745 20.9171 14.2168 20.9171H5.54417C2.58648 20.9171 0.189031 18.5213 0.189031 15.5661V6.3401ZM14.0495 8.97258C13.9463 9.39328 13.5583 9.62797 13.1517 9.53128C12.7532 9.43647 12.5108 9.04721 12.6022 8.64334C12.6911 8.25036 13.0871 7.99868 13.4741 8.08412C13.8917 8.17631 14.1377 8.55325 14.0495 8.97258Z" stroke="black" stroke-opacity="0.05" stroke-width="0.378063"/>
</svg>
