<?xml version="1.0" encoding="utf-8"?>
<!-- Generator: Adobe Illustrator 24.0.1, SVG Export Plug-In . SVG Version: 6.00 Build 0)  -->
<svg version="1.1" xmlns="http://www.w3.org/2000/svg" xmlns:xlink="http://www.w3.org/1999/xlink" x="0px" y="0px"
	 viewBox="0 0 492.3 277.5" style="enable-background:new 0 0 492.3 277.5;" xml:space="preserve">
<style type="text/css">
	.st0{fill:#F5F6FF;}
	.st1{fill:#E6E8FC;}
	.st2{fill:none;stroke:#B6C2FF;stroke-linecap:round;stroke-linejoin:round;stroke-miterlimit:10;}
	.st3{fill:#FFFFFF;stroke:#CDD2F9;stroke-miterlimit:10;}
	.st4{fill:none;stroke:#FFFFFF;stroke-linejoin:round;stroke-miterlimit:10;}
	.st5{fill:#CDD2F9;}
	.st6{fill:#FFC6B0;}
	.st7{fill:#0B0B3A;}
	.st8{fill:#182270;}
	.st9{fill:none;stroke:#2944B7;stroke-width:0.75;stroke-linejoin:round;stroke-miterlimit:10;}
	.st10{fill:#FFCBBD;}
	.st11{fill:none;stroke:#E88872;stroke-width:0.75;stroke-linejoin:round;stroke-miterlimit:10;}
	.st12{fill:#FF855A;}
	.st13{fill:#212237;}
	.st14{fill:none;stroke:#E8927E;stroke-width:0.75;stroke-miterlimit:10;}
	.st15{fill:#F94C43;}
	.st16{fill:#FFFFFF;}
	.st17{fill:none;stroke:#D62137;stroke-width:0.75;stroke-miterlimit:10;}
	.st18{fill:#B6C2FF;}
	.st19{fill:#8693F2;}
	.st20{fill:#FFFFFF;stroke:#8693F2;stroke-miterlimit:10;}
	.st21{fill:none;stroke:#8693F2;stroke-miterlimit:10;}
	.st22{fill:none;stroke:#277EF1;stroke-width:1.5;stroke-miterlimit:10;}
	.st23{fill:#277EF1;}
	.st24{opacity:0.75;fill:#E0EBFC;}
	.st25{opacity:0.75;fill:#F5F6FF;}
	.st26{opacity:0.75;}
	.st27{fill:#D4DAFF;}
	.st28{fill:none;stroke:#D4DAFF;stroke-miterlimit:10;}
	.st29{fill:none;stroke:#F5F6FF;stroke-width:2;stroke-miterlimit:10;}
	.st30{fill:#EBEEFC;}
	.st31{fill:#FFD9C0;}
	.st32{fill:#FFC088;}
	.st33{fill:#FFAF5F;}
	.st34{fill:#F78D37;}
	.st35{fill:#FFD19F;}
	.st36{fill:#FFEAD7;}
	.st37{fill:#B8DAFF;}
	.st38{fill:#6486F2;}
	.st39{fill:#A1C7FF;}
	.st40{fill:#FFAC06;}
	.st41{fill:#FF8F08;}
	.st42{fill:#FFD8BD;}
	.st43{fill:#FFC69F;}
	.st44{fill:none;stroke:#2944B7;stroke-width:0.75;stroke-miterlimit:10;}
	.st45{fill:none;stroke:#A52828;stroke-width:0.75;stroke-miterlimit:10;}
	.st46{fill:none;stroke:#FFA6A4;stroke-width:0.75;stroke-miterlimit:10;}
	.st47{fill:none;stroke:#E88872;stroke-width:0.5;stroke-linejoin:round;stroke-miterlimit:10;}
	.st48{fill:#202263;}
	.st49{fill:none;stroke:#2944B7;stroke-width:0.5;stroke-linejoin:round;stroke-miterlimit:10;}
	.st50{fill:#4A63FE;}
	.st51{fill:none;stroke:#1F38B2;stroke-width:0.5;stroke-miterlimit:10;}
	.st52{fill:#0029B7;}
	.st53{fill:none;stroke:#0029B7;stroke-miterlimit:10;}
	.st54{fill:none;stroke:#1F38B2;stroke-width:0.75;stroke-miterlimit:10;}
	.st55{fill:none;stroke:#A1C7FF;stroke-linecap:round;stroke-miterlimit:10;}
	.st56{fill:none;stroke:#A1C7FF;stroke-linecap:round;stroke-linejoin:round;stroke-miterlimit:10;}
</style>
<g id="BACKGROUND">
</g>
<g id="OBJECTS">
	<g>
		<g>
			<g>
				<path class="st0" d="M366.9,75.6c0.1,1.8,0.3,3.6,0.9,5.5c0.5,1.7,1.2,3.3,2,4.7l3.6-1.5c1,1.8,2.3,3.3,3.8,4.7l-2.2,3.2
					c1.3,1.2,2.8,2.3,4.5,3.2c0.6,0.4,1.3,0.7,2,0.9c0.2,0.1,0.4,0.1,0.5,0.2c0.8,0.3,1.5,0.5,2.3,0.7l1.5-3.7
					c0.2,0.1,0.4,0.1,0.7,0.2c0.3,0.1,0.5,0.1,0.8,0.2c1.5,0.3,3,0.4,4.5,0.4l0.7,3.9c1.8-0.1,3.6-0.3,5.4-0.9
					c1.7-0.5,3.3-1.2,4.7-2.1l-1.5-3.6c1.8-1,3.3-2.3,4.7-3.7l3.2,2.2c1.2-1.3,2.3-2.8,3.2-4.5c0.8-1.5,1.5-3.2,1.9-4.8l-3.6-1.5
					c0.5-1.9,0.8-3.9,0.7-6l3.8-0.7c-0.1-1.8-0.3-3.6-0.9-5.5c-0.5-1.7-1.2-3.3-2.1-4.7l-3.6,1.5c-1-1.8-2.3-3.3-3.7-4.7l2.2-3.2
					c-1.3-1.2-2.8-2.3-4.5-3.2c-1.5-0.8-3.2-1.5-4.8-1.9l-1.5,3.6c-1.9-0.5-3.9-0.8-6-0.7l-0.7-3.8c-1.8,0.1-3.6,0.3-5.5,0.9
					c-1.7,0.5-3.3,1.2-4.7,2l1.5,3.6c-1.8,1-3.4,2.3-4.7,3.8l-3.2-2.2c-1.2,1.3-2.3,2.8-3.2,4.5c-0.8,1.5-1.5,3.2-1.9,4.8l3.6,1.5
					c-0.5,1.9-0.8,3.9-0.7,6L366.9,75.6z M378.3,77.5c-1.7-6.6,2-13.6,8.5-15.7c7.2-2.4,14.9,1.8,16.8,9.1c1.7,6.6-2,13.6-8.5,15.7
					C387.9,89,380.2,84.8,378.3,77.5z"/>
				<g>
					<path class="st0" d="M395.5,70.8c0,0.1-0.1,0.2-0.1,0.3c-0.1,0.2-0.3,0.4-0.5,0.6c-0.1,0.1-0.1,0.1,0,0.2
						c0.1,0.1,0.1,0.3,0.2,0.4c0,0,0.1,0.1,0.1,0.1c0.3,0,0.5,0.1,0.8,0.1c0.3,0,0.5,0.2,0.5,0.5c0,0.5,0,1,0,1.5
						c0,0.3-0.2,0.5-0.5,0.5c-0.3,0-0.5,0.1-0.8,0.1c-0.1,0-0.1,0-0.2,0.1c-0.1,0.1-0.1,0.3-0.2,0.4c0,0.1,0,0.1,0,0.2
						c0.2,0.2,0.3,0.4,0.5,0.6c0.2,0.3,0.2,0.5,0,0.8c-0.3,0.3-0.7,0.7-1,1c-0.2,0.2-0.5,0.2-0.8,0c-0.2-0.2-0.4-0.3-0.6-0.5
						c-0.1-0.1-0.1-0.1-0.2,0c-0.1,0.1-0.3,0.1-0.4,0.2c-0.1,0-0.1,0.1-0.1,0.2c0,0.3-0.1,0.5-0.1,0.8c0,0.3-0.2,0.4-0.5,0.4
						c-0.5,0-1,0-1.5,0c-0.3,0-0.5-0.2-0.5-0.4c0-0.3-0.1-0.5-0.1-0.8c0-0.1,0-0.1-0.1-0.1c-0.2-0.1-0.3-0.1-0.5-0.2
						c0,0-0.1,0-0.2,0c-0.2,0.2-0.4,0.3-0.6,0.5c-0.3,0.2-0.5,0.2-0.8,0c-0.3-0.3-0.7-0.7-1-1c-0.2-0.2-0.2-0.5,0-0.8
						c0.2-0.2,0.3-0.4,0.5-0.6c0-0.1,0.1-0.1,0-0.2c-0.1-0.1-0.1-0.3-0.2-0.4c0-0.1-0.1-0.1-0.1-0.1c-0.3,0-0.5-0.1-0.8-0.1
						c-0.3,0-0.4-0.2-0.4-0.5c0-0.5,0-1,0-1.5c0-0.3,0.2-0.5,0.5-0.5c0.3,0,0.5-0.1,0.8-0.1c0.1,0,0.1,0,0.1-0.1
						c0.1-0.1,0.1-0.3,0.2-0.4c0-0.1,0-0.1,0-0.2c-0.2-0.2-0.3-0.4-0.5-0.6c-0.2-0.3-0.2-0.5,0-0.8c0.3-0.3,0.7-0.7,1-1
						c0.2-0.2,0.5-0.2,0.7,0c0.2,0.2,0.4,0.3,0.6,0.5c0.1,0,0.1,0.1,0.2,0c0.1-0.1,0.3-0.1,0.4-0.2c0.1,0,0.1-0.1,0.1-0.1
						c0-0.3,0.1-0.5,0.1-0.8c0-0.3,0.2-0.5,0.5-0.5c0.5,0,1,0,1.5,0c0.3,0,0.5,0.2,0.5,0.5c0,0.3,0.1,0.5,0.1,0.8
						c0,0,0.1,0.1,0.1,0.1c0.1,0.1,0.3,0.1,0.4,0.2c0.1,0,0.1,0,0.2,0c0.2-0.2,0.4-0.3,0.6-0.5c0.3-0.2,0.5-0.2,0.8,0
						c0.3,0.3,0.7,0.7,1,1C395.5,70.4,395.5,70.5,395.5,70.8z M387.9,77.6c0.3-0.2,0.5-0.4,0.8-0.6c0.1-0.1,0.2-0.1,0.3,0
						c0.2,0.1,0.5,0.3,0.7,0.3c0.3,0.1,0.4,0.2,0.4,0.5c0,0.3,0.1,0.5,0.1,0.8c0.4,0,0.8,0,1.2,0c0,0,0-0.1,0-0.1
						c0-0.3,0.1-0.6,0.1-1c0-0.1,0-0.2,0.2-0.2c0.4-0.1,0.7-0.2,1-0.4c0.1-0.1,0.1,0,0.2,0c0.3,0.2,0.6,0.5,0.8,0.7
						c0.3-0.3,0.6-0.6,0.9-0.9c-0.2-0.3-0.4-0.6-0.7-0.9c-0.1-0.1-0.1-0.1,0-0.2c0.2-0.3,0.4-0.7,0.4-1.1c0-0.1,0.1-0.1,0.2-0.1
						c0.3,0,0.6-0.1,1-0.1c0.1,0,0.1,0,0.1-0.1c0-0.3,0-0.7,0-1c0-0.1,0-0.1-0.1-0.1c-0.3,0-0.6-0.1-1-0.1c-0.1,0-0.1,0-0.2-0.1
						c-0.1-0.4-0.2-0.7-0.4-1.1c-0.1-0.1,0-0.1,0-0.2c0.2-0.3,0.5-0.6,0.7-0.8c-0.3-0.3-0.6-0.6-0.9-0.9c-0.3,0.2-0.6,0.4-0.8,0.7
						c-0.1,0.1-0.1,0.1-0.2,0c-0.3-0.2-0.7-0.3-1-0.4c-0.1,0-0.1-0.1-0.1-0.2c0-0.3-0.1-0.6-0.1-1c0-0.1-0.1-0.1-0.1-0.1
						c-0.3,0-0.7,0-1,0c-0.1,0-0.1,0-0.1,0.1c0,0.3-0.1,0.7-0.1,1c0,0.1,0,0.1-0.1,0.1c-0.4,0.1-0.8,0.2-1.1,0.5c0,0-0.1,0-0.2,0
						c-0.1-0.1-0.3-0.2-0.4-0.3c-0.2-0.1-0.3-0.2-0.5-0.4c-0.3,0.3-0.6,0.6-0.9,0.9c0.2,0.3,0.4,0.6,0.7,0.9c0.1,0.1,0.1,0.1,0,0.2
						c-0.2,0.3-0.4,0.7-0.4,1.1c0,0.1-0.1,0.1-0.2,0.1c-0.3,0-0.7,0.1-1,0.1c-0.1,0-0.1,0-0.1,0.1c0,0.3,0,0.7,0,1
						c0,0.1,0,0.1,0.1,0.1c0.3,0,0.6,0.1,1,0.1c0.1,0,0.1,0.1,0.2,0.1c0.1,0.3,0.3,0.7,0.4,1c0.1,0.1,0.1,0.2,0,0.3
						c-0.2,0.3-0.4,0.6-0.6,0.8C387.3,77,387.6,77.3,387.9,77.6z"/>
					<path class="st0" d="M393,73.7c0,1.2-0.9,2.1-2.1,2.1c-1.2,0-2.1-0.9-2.1-2.1c0-1.2,0.9-2.1,2.1-2.1
						C392.1,71.6,393,72.6,393,73.7z M390.9,75.2c0.8,0,1.4-0.6,1.4-1.4c0-0.8-0.6-1.4-1.4-1.4c-0.8,0-1.4,0.7-1.4,1.4
						C389.5,74.5,390.1,75.2,390.9,75.2z"/>
				</g>
			</g>
			<g>
				<path class="st1" d="M346.8,36.8c2-1.6,5.5-0.9,6.7-1.7c1.4-1,1.3-2.1,1.6-3.7c0.3-1.7,0.8-3.5,1.5-5.1c1.5-3.5,4.5-5.7,8.4-5.6
					c2.2,0,4.3,0.9,5.9,2.5c1.4,1.4,2.1,4.3,4,5.1c2.7,1,5.1-2.7,7.9-2.2c1.8,0.3,3.5,1.7,3.9,3.5c0.2,1.1,0,2.3-0.1,3.4
					c0,1.2,0.2,2.5,1.2,3.1c0.4,0.3,0.9,0.4,1.5,0.4c1.3,0.1,2.6-0.3,3.9-0.6c1.3-0.2,2.7-0.3,3.8,0.4c1.5,0.9,1.8,2.8,2.5,4.2
					c0.7,1.6,1.9,3,3.4,3.9c3.5,2,8.1,0.2,11.1,3.3c-7.1,0-63,0-65.1,0c-2.1,0-4.8-2.2-4.8-5.6C344.1,40.6,344.7,38.5,346.8,36.8z"
					/>
			</g>
			<g>
				<path class="st1" d="M141.8,60.8c-4.4-0.8-8.1-1.3-10.1-5.2c-2-4-3.3-8.3-5.9-11.9c-4.6-6.2-13.8-9.3-21.2-5.5
					c-8.4,4.4-9,18.4-20.1,18.4c-2.4,0-4.7-0.9-7.1-1.2c-5.3-0.5-12.4,2.8-13.7,8.3c-0.4,1.5-2.1,8.1-6.7,8.1
					c-3,0-10.3-1.2-14.2,4.5c0,0,97,0,100.7,0s6.1-3.6,6.1-6.2C149.7,65.2,146,61.5,141.8,60.8z"/>
			</g>
			<g>
				<path class="st2" d="M177.3,54.6c0.4,1.1-0.1,2.3-1.2,2.7c-1.1,0.4-2.3-0.1-2.7-1.2c-0.4-1.1,0.1-2.3,1.2-2.7
					C175.7,53,176.9,53.5,177.3,54.6z"/>
				<path class="st2" d="M85.4,36.3c0.4,1.1-0.1,2.3-1.2,2.7c-1.1,0.4-2.3-0.1-2.7-1.2c-0.4-1.1,0.1-2.3,1.2-2.7
					C83.8,34.6,85,35.2,85.4,36.3z"/>
				<path class="st2" d="M4.6,148.3c0.4,1.1-0.1,2.3-1.2,2.7c-1.1,0.4-2.3-0.1-2.7-1.2c-0.4-1.1,0.1-2.3,1.2-2.7
					C3,146.6,4.2,147.2,4.6,148.3z"/>
				<path class="st2" d="M247.5,57.7c0.4,1.1-0.1,2.3-1.2,2.7c-1.1,0.4-2.3-0.1-2.7-1.2c-0.4-1.1,0.1-2.3,1.2-2.7
					C245.8,56.1,247,56.6,247.5,57.7z"/>
				<path class="st2" d="M435.9,67.6c0.4,1.1-0.1,2.3-1.2,2.7c-1.1,0.4-2.3-0.1-2.7-1.2c-0.4-1.1,0.1-2.3,1.2-2.7
					C434.3,66,435.5,66.5,435.9,67.6z"/>
				<path class="st2" d="M491.7,176.1c0.4,1.1-0.1,2.3-1.2,2.7c-1.1,0.4-2.3-0.1-2.7-1.2c-0.4-1.1,0.1-2.3,1.2-2.7
					C490,174.4,491.2,175,491.7,176.1z"/>
				<g>
					<line class="st2" x1="203" y1="24.3" x2="203" y2="28.4"/>
					<line class="st2" x1="205" y1="26.4" x2="200.9" y2="26.4"/>
				</g>
				<g>
					<line class="st2" x1="256" y1="18.8" x2="256" y2="23"/>
					<line class="st2" x1="258" y1="20.9" x2="253.9" y2="20.9"/>
				</g>
				<g>
					<line class="st2" x1="110.1" y1="113" x2="110.1" y2="117.1"/>
					<line class="st2" x1="112.2" y1="115.1" x2="108.1" y2="115.1"/>
				</g>
				<g>
					<line class="st2" x1="36.1" y1="92.8" x2="36.1" y2="96.9"/>
					<line class="st2" x1="38.2" y1="94.9" x2="34" y2="94.9"/>
				</g>
				<g>
					<line class="st2" x1="358.8" y1="56.4" x2="358.8" y2="60.5"/>
					<line class="st2" x1="360.9" y1="58.5" x2="356.7" y2="58.5"/>
				</g>
				<g>
					<line class="st2" x1="21.7" y1="171" x2="21.7" y2="175.1"/>
					<line class="st2" x1="23.8" y1="173.1" x2="19.7" y2="173.1"/>
				</g>
				<g>
					<line class="st2" x1="478.7" y1="130" x2="478.7" y2="134.1"/>
					<line class="st2" x1="480.8" y1="132" x2="476.6" y2="132"/>
				</g>
				<g>
					<line class="st2" x1="413.7" y1="107.4" x2="413.7" y2="111.5"/>
					<line class="st2" x1="415.8" y1="109.4" x2="411.7" y2="109.4"/>
				</g>
			</g>
			<g>
				<path class="st3" d="M166.2,32.6c0,5.5-4.5,10-10,10c-5.5,0-10-4.5-10-10c0-5.5,4.5-10,10-10C161.7,22.6,166.2,27,166.2,32.6z"
					/>
				<g>
					<path class="st1" d="M161,29.4c0,0.1-0.1,0.2-0.1,0.3c-0.1,0.2-0.3,0.4-0.5,0.6c-0.1,0.1-0.1,0.1,0,0.2
						c0.1,0.1,0.1,0.3,0.2,0.4c0,0,0.1,0.1,0.1,0.1c0.3,0,0.5,0.1,0.8,0.1c0.3,0,0.5,0.2,0.5,0.5c0,0.5,0,1,0,1.5
						c0,0.3-0.2,0.5-0.5,0.5c-0.3,0-0.5,0.1-0.8,0.1c-0.1,0-0.1,0-0.2,0.1c-0.1,0.1-0.1,0.3-0.2,0.4c0,0.1,0,0.1,0,0.2
						c0.2,0.2,0.3,0.4,0.5,0.6c0.2,0.3,0.2,0.5,0,0.8c-0.3,0.3-0.7,0.7-1,1c-0.2,0.2-0.5,0.2-0.8,0c-0.2-0.2-0.4-0.3-0.6-0.5
						c-0.1-0.1-0.1-0.1-0.2,0c-0.1,0.1-0.3,0.1-0.4,0.2c-0.1,0-0.1,0.1-0.1,0.2c0,0.3-0.1,0.5-0.1,0.8c0,0.3-0.2,0.4-0.5,0.4
						c-0.5,0-1,0-1.5,0c-0.3,0-0.5-0.2-0.5-0.4c0-0.3-0.1-0.5-0.1-0.8c0-0.1,0-0.1-0.1-0.1c-0.2-0.1-0.3-0.1-0.5-0.2
						c0,0-0.1,0-0.2,0c-0.2,0.2-0.4,0.3-0.6,0.5c-0.3,0.2-0.5,0.2-0.8,0c-0.3-0.3-0.7-0.7-1-1c-0.2-0.2-0.2-0.5,0-0.8
						c0.2-0.2,0.3-0.4,0.5-0.6c0-0.1,0.1-0.1,0-0.2c-0.1-0.1-0.1-0.3-0.2-0.4c0-0.1-0.1-0.1-0.1-0.1c-0.3,0-0.5-0.1-0.8-0.1
						c-0.3,0-0.4-0.2-0.4-0.5c0-0.5,0-1,0-1.5c0-0.3,0.2-0.5,0.5-0.5c0.3,0,0.5-0.1,0.8-0.1c0.1,0,0.1,0,0.1-0.1
						c0.1-0.1,0.1-0.3,0.2-0.4c0-0.1,0-0.1,0-0.2c-0.2-0.2-0.3-0.4-0.5-0.6c-0.2-0.3-0.2-0.5,0-0.8c0.3-0.3,0.7-0.7,1-1
						c0.2-0.2,0.5-0.2,0.7,0c0.2,0.2,0.4,0.3,0.6,0.5c0.1,0,0.1,0.1,0.2,0c0.1-0.1,0.3-0.1,0.4-0.2c0.1,0,0.1-0.1,0.1-0.1
						c0-0.3,0.1-0.5,0.1-0.8c0-0.3,0.2-0.5,0.5-0.5c0.5,0,1,0,1.5,0c0.3,0,0.5,0.2,0.5,0.5c0,0.3,0.1,0.5,0.1,0.8
						c0,0,0.1,0.1,0.1,0.1c0.1,0.1,0.3,0.1,0.4,0.2c0.1,0,0.1,0,0.2,0c0.2-0.2,0.4-0.3,0.6-0.5c0.3-0.2,0.5-0.2,0.8,0
						c0.3,0.3,0.7,0.7,1,1C161,29.1,161,29.2,161,29.4z M153.4,36.3c0.3-0.2,0.5-0.4,0.8-0.6c0.1-0.1,0.2-0.1,0.3,0
						c0.2,0.1,0.5,0.3,0.7,0.3c0.3,0.1,0.4,0.2,0.4,0.5c0,0.3,0.1,0.5,0.1,0.8c0.4,0,0.8,0,1.2,0c0,0,0-0.1,0-0.1
						c0-0.3,0.1-0.6,0.1-1c0-0.1,0-0.2,0.2-0.2c0.4-0.1,0.7-0.2,1-0.4c0.1-0.1,0.1,0,0.2,0c0.3,0.2,0.6,0.5,0.8,0.7
						c0.3-0.3,0.6-0.6,0.9-0.9c-0.2-0.3-0.4-0.6-0.7-0.9c-0.1-0.1-0.1-0.1,0-0.2c0.2-0.3,0.4-0.7,0.4-1.1c0-0.1,0.1-0.1,0.2-0.1
						c0.3,0,0.6-0.1,1-0.1c0.1,0,0.1,0,0.1-0.1c0-0.3,0-0.7,0-1c0-0.1,0-0.1-0.1-0.1c-0.3,0-0.6-0.1-1-0.1c-0.1,0-0.1,0-0.2-0.1
						c-0.1-0.4-0.2-0.7-0.4-1.1c-0.1-0.1,0-0.1,0-0.2c0.2-0.3,0.5-0.6,0.7-0.8c-0.3-0.3-0.6-0.6-0.9-0.9c-0.3,0.2-0.6,0.4-0.8,0.7
						c-0.1,0.1-0.1,0.1-0.2,0c-0.3-0.2-0.7-0.3-1-0.4c-0.1,0-0.1-0.1-0.1-0.2c0-0.3-0.1-0.6-0.1-1c0-0.1-0.1-0.1-0.1-0.1
						c-0.3,0-0.7,0-1,0c-0.1,0-0.1,0-0.1,0.1c0,0.3-0.1,0.7-0.1,1c0,0.1,0,0.1-0.1,0.1c-0.4,0.1-0.8,0.2-1.1,0.5c0,0-0.1,0-0.2,0
						c-0.1-0.1-0.3-0.2-0.4-0.3c-0.2-0.1-0.3-0.2-0.5-0.4c-0.3,0.3-0.6,0.6-0.9,0.9c0.2,0.3,0.4,0.6,0.7,0.9c0.1,0.1,0.1,0.1,0,0.2
						c-0.2,0.3-0.4,0.7-0.4,1.1c0,0.1-0.1,0.1-0.2,0.1c-0.3,0-0.7,0.1-1,0.1c-0.1,0-0.1,0-0.1,0.1c0,0.3,0,0.7,0,1
						c0,0.1,0,0.1,0.1,0.1c0.3,0,0.6,0.1,1,0.1c0.1,0,0.1,0.1,0.2,0.1c0.1,0.3,0.3,0.7,0.4,1c0.1,0.1,0.1,0.2,0,0.3
						c-0.2,0.3-0.4,0.6-0.6,0.8C152.8,35.7,153.1,36,153.4,36.3z"/>
					<path class="st1" d="M158.5,32.4c0,1.2-0.9,2.1-2.1,2.1c-1.2,0-2.1-0.9-2.1-2.1c0-1.2,0.9-2.1,2.1-2.1
						C157.6,30.3,158.5,31.2,158.5,32.4z M156.4,33.8c0.8,0,1.4-0.6,1.4-1.4c0-0.8-0.6-1.4-1.4-1.4c-0.8,0-1.4,0.7-1.4,1.4
						C155,33.2,155.6,33.8,156.4,33.8z"/>
				</g>
			</g>
		</g>
		<g>
			<g>
				<g>
					<path class="st1" d="M364.4,267.2c-1.6-25.5,1-61.7,12.3-94.3c11.7-33.8,32.5-63.5,55.7-54.8c8.9,3.3,10.1,18.2,6.3,32.1
						c-11,40.9-36.5,65.7-46.3,117"/>
				</g>
				<path class="st4" d="M379.5,267.2c3.9-79.8,48.5-150.5,48.5-150.5"/>
			</g>
			<g>
				<g>
					<path class="st1" d="M101.3,267.2C87.4,232,37.8,167,16.7,199.7c-4.1,6.4-0.3,16.6,6.1,23.8c18.8,21.3,38.7,15,60,43.6"/>
				</g>
				<path class="st4" d="M92.5,267.2c-23.6-49.7-72.9-71.3-72.9-71.3"/>
			</g>
			<g>
				<g>
					<path class="st5" d="M110.4,267.2c8.1-54.1-24.1-156.5-65.9-129.7c-9.6,6.1-5,29.8,0.4,43.2c13.7,33.5,36.8,42,46.2,86.5"/>
				</g>
				<path class="st4" d="M102.5,267.1c-0.7-70.2-53.7-131.9-53.7-131.9"/>
			</g>
			<g>
				<g>
					<path class="st1" d="M150.8,267.2c10.8-42.3,8.6-132.3-37-121.4c-8.6,2-11.6,14.9-10.4,26.2c3.5,33.3,25.3,53.4,26.2,95.2"/>
				</g>
				<path class="st4" d="M141,267.2c6.1-68.8-25.7-122.8-25.7-122.8"/>
			</g>
			<g>
				<g>
					<path class="st5" d="M393.3,267.2c3.2-31.8,13-71.5,28.8-95.2c12.6-19,32.4-27.5,44-15.7c6.5,6.6,4,25.6-5.8,39.9
						c-17.5,25.3-38.3,34.4-49.9,70.9"/>
				</g>
				<path class="st4" d="M401.5,267.2c15.1-71.7,61.7-113.3,61.7-113.3"/>
			</g>
			<g>
				<g>
					<path class="st1" d="M409.6,267.2c10.6-29.8,38.2-64.1,59.1-70.4c8.5-2.5,21.5-1.6,23.1,7.9c1.3,7.6-6.3,19.1-15,25.5
						c-15.9,11.8-30.9,16.6-48.5,37"/>
				</g>
				<path class="st4" d="M420.8,267.2c31.2-55.1,68.9-67,68.9-67"/>
			</g>
		</g>
		<g>
			<g>
				<g>
					<g>
						<g>
							<path class="st6" d="M347.5,155.9c0.4,3.2,0.8,6.4,1.3,9.6c-5.5-0.1-10.8,0.3-16.3,0.5c1.8-1.1,5.7-3.2,7-5.9"/>
						</g>
						<g>
							<path class="st7" d="M348.7,169.7h-3.1c0-0.3,0.1-1.1,0-1.3c-0.6,0-1.9,0.1-2,0.1c-0.1,0-0.4,0.3-0.6,0.6
								c-0.3,0.4-0.7,0.6-1.2,0.6h-12.5c-1.5,0-1.8-1.6-0.1-2.4c1.5-0.7,4.7-2.2,4.9-2.2c5,0.4,13.1-0.4,14.7-1.9
								C349.8,164.3,348.7,169.7,348.7,169.7z"/>
						</g>
					</g>
					<path class="st6" d="M344.5,104.9c2.2,27.6,3.7,56.3,3.7,56.3l-8.7-1.2c0,0-9.2-37-11.6-55.1"/>
				</g>
				<g>
					<g>
						<g>
							<path class="st6" d="M322.5,155.9c0.4,3.2,0.8,6.4,1.3,9.6c-5.5-0.1-10.8,0.3-16.3,0.5c1.8-1.1,5.7-3.2,7-5.9"/>
						</g>
						<g>
							<path class="st7" d="M323.7,169.7h-3.1c0-0.3,0.1-1.1,0-1.3c-0.6,0-1.9,0.1-2,0.1c-0.1,0-0.4,0.3-0.6,0.6
								c-0.3,0.4-0.7,0.6-1.2,0.6h-12.5c-1.5,0-1.8-1.6-0.1-2.4c1.5-0.7,4.7-2.2,4.9-2.2c5,0.4,13.1-0.4,14.7-1.9
								C324.8,164.3,323.7,169.7,323.7,169.7z"/>
						</g>
					</g>
					<path class="st6" d="M327.3,104.9c-1.8,27.6-4.1,56.3-4.1,56.3l-8.7-1.2c0,0-3.8-35.5-3.8-55.1"/>
				</g>
				<g>
					<path class="st8" d="M338.8,75.7c7.9,18.3,8.8,38.5,8.8,38.5s-11.3,3-20.5,3c-9.2,0-18.8-1.5-18.8-1.5s2.5-31.6,6.3-41.3"/>
					<path class="st9" d="M336.5,82.1c5.4,11.1,8.1,32.9,8.1,32.9"/>
				</g>
			</g>
			<g>
				<g>
					<path class="st10" d="M307.2,40.1l0.5,3.7c0,0,2.7,1.7,5,0.8c2.4-1,2.3-2.3,2.3-2.3l-2.9-6.8"/>
					<path class="st10" d="M303.3,33.9c-0.5,2.1,1,8.2,4.1,8c3.3-0.3,5.8-3,4.6-6.7C310.8,31.2,304.5,28.3,303.3,33.9z"/>
					<path class="st11" d="M307.5,42.2c1.6-0.3,3.6-1.1,4.4-3.3"/>
					<g>
						<g>
							<polygon class="st12" points="311.5,35 311.5,34.9 311.5,35 							"/>
						</g>
					</g>
					<g>
						<g>
							<path class="st12" d="M311.5,35C311.5,35,311.5,35,311.5,35C311.5,35,311.5,35,311.5,35C311.5,35,311.5,35,311.5,35
								C311.5,35,311.5,35,311.5,35C311.6,34.9,311.5,34.9,311.5,35C311.5,34.9,311.5,34.9,311.5,35L311.5,35z"/>
						</g>
					</g>
					<g>
						<path class="st13" d="M311.6,35.9c-1-0.1-1.6-0.8-2-1.7c-0.7,0.6-1.9,0.5-2.5,0.2c-0.7-0.3-1.1-0.8-1.5-1.4
							c-0.5,1.1-1.3,1.7-2.5,2c-0.3-1.8,0.7-3.6,2.3-4.7c1.6-1,3.8-1.3,5.5-0.4c1.7,0.8,2.8,2.7,3,4.5c0.1,1.1-0.2,3.4-1.2,3.3
							C312.3,37.5,311.6,35.9,311.6,35.9z"/>
					</g>
					<g>
						<path class="st10" d="M310.9,35.8c0-0.1,0-0.5,0.4-0.8c0.7-0.4,1.3,0.4,1.4,1.1c0,0.5,0,0.8-0.3,1.2c-0.3,0.5-0.8,0.8-1.2,0.3
							"/>
					</g>
				</g>
				<g>
					<path class="st13" d="M306.6,29.7c-0.6-0.1-0.9-0.7-0.8-1.2c0.1-0.5,0.5-1,1-1.3c0.2-0.2,0.5-0.3,0.8-0.4
						c0.4-0.1,0.8-0.1,1.3,0c0.5,0.1,1,0.2,1.3,0.6c0.4,0.5,0.4,1.2,0,1.7c-0.4,0.5-1,0.9-1.6,1"/>
				</g>
			</g>
			<g>
				<g>
					<path class="st10" d="M308.1,60.9c-5.7,14.7-21,30.5-21,30.5l-5-3.8c0,0,10.6-14.9,15.4-30.1"/>
					<g>
						<path class="st10" d="M283.5,85.9c-1.3,1.9-6,6.8-5.7,7.2c0.2,0.4,1.9-1.3,2-0.9c0.1,0.4-2.3,3.1-1.9,3.5
							c0.5,0.5,2.8-2.5,2.8-2.5s-2.3,3.4-1.8,3.7c0.4,0.2,2.3-2.3,3.1-3.2c-0.8,1-1.9,2.9-1.5,3.1c0.4,0.2,1.7-1.5,2.8-2.7
							c-0.6,0.8-1.6,2.4-1.3,2.6c0.4,0.2,3.9-3.6,7.1-7.4"/>
					</g>
					<path class="st14" d="M280.4,92c0,0,2.2-0.5,3-1.2"/>
				</g>
				<path class="st15" d="M306.7,44.5c-6.5,2-9.6,13.4-9.6,13.4l7.2,3.1l3.2-14.8"/>
				<path class="st15" d="M306.7,44.5c1.9,0.3,2.3,0.4,3.6-0.1c2.4-0.8,4.2-2,4.2-2s6.8-0.3,13.5,6.7c3.4,3.6,9.1,13.8,12.5,27.5
					c-12.7,4.1-31.2,6.7-31.2,6.7s-6.7-25.9-6.5-33.5C303,47.2,306.7,44.5,306.7,44.5z"/>
				<polygon class="st16" points="314.4,40.9 310.1,44.6 312.8,48.2 315.7,42.5 				"/>
				<polygon class="st16" points="310.1,44.6 307.6,42.6 306.7,44.5 308,48.5 				"/>
				<path class="st17" d="M304,60.7c-0.8-3.9-1.2-6.6-1.2-6.6"/>
			</g>
		</g>
		<g>
			<path class="st18" d="M287.7,223.7h-61.1c0,0,2.5,38.9-9.6,38.9c3.9,0,76.4,0,80.2,0C285.2,262.6,287.7,223.7,287.7,223.7z"/>
			<path class="st19" d="M225.9,247.1l61.6-12.5c-0.1-6.2,0.2-10.9,0.2-10.9h-61.1C226.6,223.7,227.4,236.2,225.9,247.1z"/>
			<path class="st18" d="M374.2,235.4H140.2c-3.1,0-5.6-2.5-5.6-5.6V80.1c0-3.1,2.5-5.6,5.6-5.6h234.1c3.1,0,5.6,2.5,5.6,5.6v149.8
				C379.8,232.9,377.3,235.4,374.2,235.4z"/>
			<path class="st20" d="M370.3,229.7H144.1c-1.4,0-2.6-1.2-2.6-2.6V82.8c0-1.4,1.2-2.6,2.6-2.6h226.2c1.4,0,2.6,1.2,2.6,2.6v144.3
				C372.9,228.6,371.7,229.7,370.3,229.7z"/>
			<line class="st21" x1="141.5" y1="99.1" x2="372.9" y2="99.1"/>
			<path class="st1" d="M345.1,93.2H185.7c-2.2,0-4-1.8-4-4l0,0c0-2.2,1.8-4,4-4h159.4c2.2,0,4,1.8,4,4l0,0
				C349.1,91.4,347.3,93.2,345.1,93.2z"/>
			<g>
				<path class="st20" d="M152.8,89.5c0,1.2-0.9,2.1-2.1,2.1c-1.2,0-2.1-0.9-2.1-2.1c0-1.2,0.9-2.1,2.1-2.1
					C151.9,87.3,152.8,88.3,152.8,89.5z"/>
				<path class="st20" d="M162.7,89.5c0,1.2-0.9,2.1-2.1,2.1c-1.2,0-2.1-0.9-2.1-2.1c0-1.2,0.9-2.1,2.1-2.1
					C161.7,87.3,162.7,88.3,162.7,89.5z"/>
				<path class="st20" d="M172.5,89.5c0,1.2-0.9,2.1-2.1,2.1c-1.2,0-2.1-0.9-2.1-2.1c0-1.2,0.9-2.1,2.1-2.1
					C171.6,87.3,172.5,88.3,172.5,89.5z"/>
			</g>
			<g>
				<g>
					<path class="st22" d="M321.8,153.3H192.6c-4.9,0-8.9-4-8.9-8.9l0,0c0-4.9,4-8.9,8.9-8.9h129.2c4.9,0,8.9,4,8.9,8.9l0,0
						C330.6,149.3,326.7,153.3,321.8,153.3z"/>
					<path class="st23" d="M321.8,135.5h-14.9v17.7h14.9c4.9,0,8.9-4,8.9-8.9l0,0C330.6,139.5,326.7,135.5,321.8,135.5z"/>
				</g>
				<path class="st16" d="M324.4,148.7l-2.9-2.9c0.6-0.8,0.9-1.8,0.9-2.8c0-2.5-2.1-4.6-4.6-4.6c-2.5,0-4.6,2.1-4.6,4.6
					s2.1,4.6,4.6,4.6c0.7,0,1.5-0.2,2.1-0.5l3.1,3.1c0.2,0.2,0.5,0.3,0.7,0.3c0.3,0,0.5-0.1,0.7-0.3c0.2-0.2,0.3-0.5,0.3-0.7
					C324.7,149.1,324.6,148.9,324.4,148.7z M321,143c0,1.8-1.5,3.3-3.3,3.3c-1.8,0-3.3-1.5-3.3-3.3c0-1.8,1.5-3.3,3.3-3.3
					C319.6,139.7,321,141.2,321,143z"/>
				<path class="st24" d="M229.8,148.2h-37c-2.1,0-3.8-1.7-3.8-3.8l0,0c0-2.1,1.7-3.8,3.8-3.8h37c2.1,0,3.8,1.7,3.8,3.8l0,0
					C233.6,146.5,231.9,148.2,229.8,148.2z"/>
			</g>
			<rect x="206.2" y="261.5" class="st18" width="102" height="5.7"/>
			<g>
				<g>
					<path class="st24" d="M239.8,172.8h-25c-2.4,0-4.3-1.9-4.3-4.3l0,0c0-2.4,1.9-4.3,4.3-4.3h25c2.4,0,4.3,1.9,4.3,4.3l0,0
						C244.1,170.9,242.2,172.8,239.8,172.8z"/>
					<line class="st22" x1="215.1" y1="169.6" x2="239.5" y2="169.6"/>
				</g>
				<g>
					<path class="st24" d="M299.5,172.8h-44.4c-2.4,0-4.3-1.9-4.3-4.3l0,0c0-2.4,1.9-4.3,4.3-4.3h44.4c2.4,0,4.3,1.9,4.3,4.3l0,0
						C303.8,170.9,301.9,172.8,299.5,172.8z"/>
					<line class="st22" x1="260.2" y1="169.6" x2="294.5" y2="169.6"/>
				</g>
			</g>
			<line class="st20" x1="327.6" y1="106.2" x2="336.9" y2="106.2"/>
			<line class="st20" x1="341.5" y1="106.2" x2="350.8" y2="106.2"/>
			<g>
				<rect x="354.2" y="103.7" class="st25" width="1.3" height="1.3"/>
				<rect x="356" y="103.7" class="st25" width="1.3" height="1.3"/>
				<rect x="357.7" y="103.7" class="st25" width="1.3" height="1.3"/>
				<rect x="354.2" y="105.6" class="st25" width="1.3" height="1.3"/>
				<rect x="356" y="105.6" class="st25" width="1.3" height="1.3"/>
				<rect x="357.7" y="105.6" class="st25" width="1.3" height="1.3"/>
				<rect x="354.2" y="107.5" class="st25" width="1.3" height="1.3"/>
				<rect x="356" y="107.5" class="st25" width="1.3" height="1.3"/>
				<rect x="357.7" y="107.5" class="st25" width="1.3" height="1.3"/>
			</g>
			<path class="st0" d="M367.4,106.2c0,1.8-1.4,3.2-3.2,3.2c-1.8,0-3.2-1.4-3.2-3.2c0-1.8,1.4-3.2,3.2-3.2
				C365.9,103,367.4,104.5,367.4,106.2z"/>
			<g>
				<circle class="st19" cx="366.5" cy="85.3" r="0.8"/>
				<circle class="st19" cx="366.5" cy="89.3" r="0.8"/>
				<circle class="st19" cx="366.5" cy="93.2" r="0.8"/>
			</g>
			<line class="st21" x1="294.5" y1="261.8" x2="242.3" y2="261.8"/>
			<line class="st21" x1="236.4" y1="261.8" x2="219.4" y2="261.8"/>
			<g>
				<path class="st0" d="M280.7,215.2H160.8c-2,0-3.7-1.6-3.7-3.7V129c0-2,1.6-3.7,3.7-3.7h119.9c2,0,3.7,1.6,3.7,3.7v82.5
					C284.4,213.5,282.8,215.2,280.7,215.2z"/>
				<path class="st20" d="M273.3,210.6H153.4c-2,0-3.7-1.6-3.7-3.7v-82.5c0-2,1.6-3.7,3.7-3.7h119.9c2,0,3.7,1.6,3.7,3.7v82.5
					C277,208.9,275.3,210.6,273.3,210.6z"/>
				<path class="st19" d="M273.5,120.7H153.2c-1.9,0-3.5,1.6-3.5,3.5v5.8H277v-5.8C277,122.2,275.4,120.7,273.5,120.7z"/>
				<g>
					<path class="st0" d="M264.3,184.5H163.4c-0.9,0-1.7-0.8-1.7-1.7l0,0c0-0.9,0.8-1.7,1.7-1.7h100.9c0.9,0,1.7,0.8,1.7,1.7l0,0
						C266.1,183.7,265.3,184.5,264.3,184.5z"/>
					<path class="st0" d="M264.3,190.5H163.4c-0.9,0-1.7-0.8-1.7-1.7l0,0c0-0.9,0.8-1.7,1.7-1.7h100.9c0.9,0,1.7,0.8,1.7,1.7l0,0
						C266.1,189.7,265.3,190.5,264.3,190.5z"/>
					<path class="st0" d="M264.3,196.5H163.4c-0.9,0-1.7-0.8-1.7-1.7l0,0c0-0.9,0.8-1.7,1.7-1.7h100.9c0.9,0,1.7,0.8,1.7,1.7l0,0
						C266.1,195.7,265.3,196.5,264.3,196.5z"/>
					<path class="st0" d="M264.3,202.4H163.4c-0.9,0-1.7-0.8-1.7-1.7l0,0c0-0.9,0.8-1.7,1.7-1.7h100.9c0.9,0,1.7,0.8,1.7,1.7l0,0
						C266.1,201.7,265.3,202.4,264.3,202.4z"/>
					<path class="st0" d="M264.3,178.5H163.4c-0.9,0-1.7-0.8-1.7-1.7l0,0c0-0.9,0.8-1.7,1.7-1.7h100.9c0.9,0,1.7,0.8,1.7,1.7l0,0
						C266.1,177.8,265.3,178.5,264.3,178.5z"/>
				</g>
				<g>
					<g id="XMLID_64_" class="st26">
						<path class="st18" d="M185.7,142.1c-2.5-3.7-6.7-6.1-11.4-6.1v13.7L185.7,142.1z"/>
					</g>
					<path class="st1" d="M184.7,144.1l-11.4,7.6V138c-7.6,0-13.7,6.2-13.7,13.7c0,7.6,6.2,13.7,13.7,13.7c7.6,0,13.7-6.2,13.7-13.7
						C187,148.9,186.2,146.3,184.7,144.1z"/>
					<path class="st1" d="M253.4,138v13.7l-10.9,8.3h0c2.5,3.3,6.5,5.4,10.9,5.4c7.6,0,13.7-6.2,13.7-13.7
						C267.1,144.1,261,138,253.4,138z"/>
					<path class="st18" d="M223.7,159.3c1.8-2.3,2.9-5.2,2.9-8.4c0-7.6-6.2-13.7-13.7-13.7V151L223.7,159.3z"/>
					<path class="st1" d="M222.2,160.1l-10.9-8.4V138c-7.6,0-13.7,6.2-13.7,13.7c0,7.6,6.2,13.7,13.7,13.7
						C215.8,165.4,219.7,163.3,222.2,160.1C222.2,160.1,222.2,160.1,222.2,160.1z"/>
					<path class="st18" d="M238.4,151c0,3.1,1.1,6,2.8,8.3l10.9-8.3v-13.7C244.5,137.2,238.4,143.4,238.4,151z"/>
				</g>
			</g>
			<g>
				<path class="st0" d="M362.5,201.3H230.7c-2.2,0-4-1.8-4-4v-94.7c0-2.2,1.8-4,4-4h131.8c2.2,0,4,1.8,4,4v94.7
					C366.5,199.4,364.7,201.3,362.5,201.3z"/>
				<path class="st20" d="M354.3,196.2H222.5c-2.2,0-4-1.8-4-4V97.4c0-2.2,1.8-4,4-4h131.8c2.2,0,4,1.8,4,4v94.7
					C358.4,194.4,356.6,196.2,354.3,196.2z"/>
				<path class="st19" d="M354.5,93.4H222.3c-2.1,0-3.8,1.7-3.8,3.8v6.3h139.9v-6.3C358.4,95.1,356.7,93.4,354.5,93.4z"/>
				<g>
					<g>
						<rect x="326" y="122.4" class="st27" width="9.4" height="6.6"/>
						<line class="st28" x1="339.7" y1="122.4" x2="346.1" y2="122.4"/>
						<line class="st28" x1="339.7" y1="129" x2="352.8" y2="129"/>
						<line class="st28" x1="339.7" y1="126.8" x2="352.8" y2="126.8"/>
						<line class="st28" x1="339.7" y1="124.8" x2="352.8" y2="124.8"/>
					</g>
					<g>
						<rect x="326" y="136.2" class="st27" width="9.4" height="6.6"/>
						<line class="st28" x1="339.7" y1="136.2" x2="346.1" y2="136.2"/>
						<line class="st28" x1="339.7" y1="142.8" x2="352.8" y2="142.8"/>
						<line class="st28" x1="339.7" y1="140.6" x2="352.8" y2="140.6"/>
						<line class="st28" x1="339.7" y1="138.6" x2="352.8" y2="138.6"/>
					</g>
					<g>
						<rect x="326" y="150" class="st27" width="9.4" height="6.6"/>
						<line class="st28" x1="339.7" y1="150" x2="346.1" y2="150"/>
						<line class="st28" x1="339.7" y1="156.5" x2="352.8" y2="156.5"/>
						<line class="st28" x1="339.7" y1="154.4" x2="352.8" y2="154.4"/>
						<line class="st28" x1="339.7" y1="152.4" x2="352.8" y2="152.4"/>
					</g>
					<g>
						<rect x="326" y="163.7" class="st27" width="9.4" height="6.6"/>
						<line class="st28" x1="339.7" y1="163.7" x2="346.1" y2="163.7"/>
						<line class="st28" x1="339.7" y1="170.3" x2="352.8" y2="170.3"/>
						<line class="st28" x1="339.7" y1="168.2" x2="352.8" y2="168.2"/>
						<line class="st28" x1="339.7" y1="166.1" x2="352.8" y2="166.1"/>
					</g>
					<g>
						<rect x="326" y="177.5" class="st27" width="9.4" height="6.6"/>
						<line class="st28" x1="339.7" y1="177.5" x2="346.1" y2="177.5"/>
						<line class="st28" x1="339.7" y1="184.1" x2="352.8" y2="184.1"/>
						<line class="st28" x1="339.7" y1="182" x2="352.8" y2="182"/>
						<line class="st28" x1="339.7" y1="179.9" x2="352.8" y2="179.9"/>
					</g>
				</g>
				<line class="st29" x1="247.9" y1="111.4" x2="328.9" y2="111.4"/>
				<line class="st29" x1="259" y1="115.6" x2="317.8" y2="115.6"/>
				<path class="st27" d="M238.5,123.1h-15.3c-0.6,0-1-0.4-1-1v-2.8c0-0.6,0.4-1,1-1h15.3c0.6,0,1,0.4,1,1v2.8
					C239.5,122.6,239.1,123.1,238.5,123.1z"/>
				<path class="st27" d="M238.5,131.3h-15.3c-0.6,0-1-0.4-1-1v-2.8c0-0.6,0.4-1,1-1h15.3c0.6,0,1,0.4,1,1v2.8
					C239.5,130.9,239.1,131.3,238.5,131.3z"/>
				<path class="st27" d="M238.5,139.6h-15.3c-0.6,0-1-0.4-1-1v-2.8c0-0.6,0.4-1,1-1h15.3c0.6,0,1,0.4,1,1v2.8
					C239.5,139.1,239.1,139.6,238.5,139.6z"/>
				<path class="st27" d="M238.5,147.8h-15.3c-0.6,0-1-0.4-1-1v-2.8c0-0.6,0.4-1,1-1h15.3c0.6,0,1,0.4,1,1v2.8
					C239.5,147.4,239.1,147.8,238.5,147.8z"/>
				<path class="st27" d="M238.5,156.1h-15.3c-0.6,0-1-0.4-1-1v-2.8c0-0.6,0.4-1,1-1h15.3c0.6,0,1,0.4,1,1v2.8
					C239.5,155.7,239.1,156.1,238.5,156.1z"/>
				<path class="st27" d="M238.5,164.4h-15.3c-0.6,0-1-0.4-1-1v-2.8c0-0.6,0.4-1,1-1h15.3c0.6,0,1,0.4,1,1v2.8
					C239.5,163.9,239.1,164.4,238.5,164.4z"/>
				<path class="st27" d="M238.5,172.6h-15.3c-0.6,0-1-0.4-1-1v-2.8c0-0.6,0.4-1,1-1h15.3c0.6,0,1,0.4,1,1v2.8
					C239.5,172.2,239.1,172.6,238.5,172.6z"/>
				<path class="st27" d="M238.5,180.9h-15.3c-0.6,0-1-0.4-1-1v-2.8c0-0.6,0.4-1,1-1h15.3c0.6,0,1,0.4,1,1v2.8
					C239.5,180.5,239.1,180.9,238.5,180.9z"/>
				<rect x="247.1" y="121.1" class="st30" width="30" height="7.3"/>
				<rect x="247.1" y="129.9" class="st30" width="48" height="7.3"/>
				<rect x="297" y="129.9" class="st30" width="22.9" height="7.3"/>
				<rect x="279.5" y="121.1" class="st30" width="40.4" height="7.3"/>
				<rect x="247.1" y="138.6" class="st30" width="30" height="7.3"/>
				<rect x="247.1" y="147.4" class="st30" width="48" height="7.3"/>
				<rect x="297" y="147.4" class="st30" width="22.9" height="7.3"/>
				<rect x="279.5" y="138.6" class="st30" width="40.4" height="7.3"/>
				<rect x="247.1" y="156.3" class="st30" width="30" height="7.3"/>
				<rect x="247.1" y="165.1" class="st30" width="48" height="7.3"/>
				<rect x="297" y="165.1" class="st30" width="22.9" height="7.3"/>
				<rect x="279.5" y="156.3" class="st30" width="40.4" height="7.3"/>
			</g>
			<line class="st21" x1="33.6" y1="267.2" x2="480.8" y2="267.2"/>
		</g>
		<g>
			<g>
				<g>
					<path class="st31" d="M101.7,221.7l8.1,6.9l-25.4,28.7c0,0-1.9,0.5-4.5-1.7c-2.5-2.1-2.7-4.4-2.7-4.4L101.7,221.7z"/>
					<path class="st32" d="M107.4,222.1c0,0,4,3.5,2.9,5.9c-1.1,2.3-4,1-5.9-0.5c-2-1.5-4.8-5.1-2-6.1c2.5-0.9,5.6,2.7,5.8,3.9
						c0.2,1.2-1.1,2.3-3.4,0.2c-2.3-2.1,0.2-2.7,1.3-1.5"/>
					<path class="st33" d="M103.8,223.8c0,0-0.2,1.5,1.8,2.5c2,1.1,4.6-0.8,0.2-4c-4.4-3.3-6.1,0.7-3.5,3.3L103.8,223.8z"/>
					<path class="st34" d="M104.5,225.5l1.4-1.7c0,0-1.4-0.9-2-0.3C103.2,224.2,104.5,225.5,104.5,225.5z"/>
					<path class="st35" d="M103.9,223.6l-1.6,1.9c1.6,2,3.8,3,3.8,3l1.9-2.2c0,0-1,1-2.7-0.3C103.5,224.7,103.9,223.6,103.9,223.6z"
						/>
				</g>
				<g>
					<path class="st36" d="M41.7,233l10-7.4l21.3,30.4c0,0,0.1,2.4-3.1,4.7c-3.1,2.3-5.8,1.8-5.8,1.8L41.7,233z"/>
					<path class="st32" d="M43.7,226.5c0,0,5.1-3.6,7.5-1.6c2.4,1.9,0.1,4.9-2.1,6.7c-2.2,1.8-7.1,4-7.6,0.5c-0.5-3.1,4.6-5.7,6-5.5
						c1.5,0.2,2.4,1.9-0.6,4c-3.1,2.1-3-1-1.4-2"/>
					<path class="st33" d="M44.7,231.2c0,0,1.6,0.7,3.4-1.3c1.7-2,0.3-5.6-4.6-1.5c-4.9,4.1-0.8,7.3,2.9,5.1L44.7,231.2z"/>
					<path class="st34" d="M46.9,230.9l-1.6-2.2c0,0-1.4,1.4-0.9,2.2C45.1,232,46.9,230.9,46.9,230.9z"/>
					<path class="st35" d="M44.4,231l1.8,2.5c2.7-1.2,4.5-3.5,4.5-3.5l-2.1-2.8c0,0,0.8,1.5-1.1,3C45.7,231.8,44.4,231,44.4,231z"/>
				</g>
				<g>
					<path class="st37" d="M61,228.4l1.2,5l-1.8,1.9l-2.7-0.9l-1.2-5c-1.2,1.1-1.8,2.8-1.4,4.6c0.6,2.6,3.1,4.2,5.7,3.6
						c2.6-0.6,4.2-3.1,3.6-5.7C63.9,230.1,62.6,228.8,61,228.4z"/>
					
						<rect x="60.4" y="236.5" transform="matrix(0.9741 -0.226 0.226 0.9741 -54.0701 20.5628)" class="st37" width="4.7" height="20"/>
					<path class="st38" d="M64.7,254.8c-2.6,0.6-4.2,3.1-3.6,5.7c0.6,2.6,3.1,4.2,5.7,3.6c2.6-0.6,4.2-3.1,3.6-5.7
						C69.8,255.8,67.3,254.2,64.7,254.8z M68.4,260.2l-2,1.9l-2.6-0.8l-0.6-2.7l2-1.9l2.6,0.8L68.4,260.2z"/>
				</g>
				<g>
					<path class="st38" d="M62.9,265.2l1.5-5.4l2.7-0.9l2.1,2.3l-1.5,5.4c1.7-0.4,3.2-1.7,3.7-3.6c0.8-2.7-0.8-5.6-3.5-6.4
						c-2.7-0.8-5.6,0.8-6.4,3.5C61.1,262,61.6,263.9,62.9,265.2z"/>
					
						<rect x="59.9" y="244.6" transform="matrix(0.2752 -0.9614 0.9614 0.2752 -186.385 247.0823)" class="st39" width="21.6" height="5.1"/>
					<path class="st39" d="M73.2,238.3c2.7,0.8,5.6-0.8,6.4-3.5c0.8-2.7-0.8-5.6-3.5-6.4c-2.7-0.8-5.6,0.8-6.4,3.5
						C68.9,234.7,70.5,237.5,73.2,238.3z M72.6,231.2l2.9-0.7l2.1,2.1l-0.8,2.9l-2.9,0.7l-2.1-2.1L72.6,231.2z"/>
				</g>
				<g>
					<path class="st36" d="M86.3,218.1l11,5.7L77,261.1c0,0-2.2,1.4-5.7-0.4c-3.4-1.8-4.1-4.6-4.1-4.6L86.3,218.1z"/>
					<path class="st32" d="M93.2,216.4c0,0,5.4,3,4.6,6.5c-0.9,3.4-4.6,2.8-7.3,1.6c-2.6-1.2-6.7-4.7-3.5-7.1
						c2.8-2.2,7.2,1.3,7.7,2.9c0.4,1.5-0.9,3.4-4.1,1.6c-3.2-1.9-0.2-3.5,1.3-2.4"/>
					<path class="st33" d="M89.3,220c0,0,0,2,2.6,2.6c2.6,0.6,5.4-2.7-0.4-5.3c-5.9-2.6-7.3,3.2-3.7,5.6L89.3,220z"/>
					<path class="st34" d="M90.4,221.9l1.4-2.7c0,0-1.9-0.6-2.5,0.4C88.6,220.7,90.4,221.9,90.4,221.9z"/>
					<path class="st35" d="M89.3,219.6l-1.6,3.1c2.2,1.9,5.1,2.5,5.1,2.5l1.9-3.6c0,0-1,1.6-3.3,0.6C89,221.3,89.3,219.6,89.3,219.6
						z"/>
				</g>
				<g>
					<rect x="46.1" y="244.2" class="st40" width="38.7" height="23.1"/>
					<rect x="84.4" y="244.2" class="st41" width="21.2" height="23.1"/>
					<polygon class="st42" points="76.1,255.3 37.6,255.3 45.9,244.2 84.4,244.2 					"/>
					<polygon class="st43" points="89.1,255.3 110.4,255.3 105.5,244.2 84.3,244.2 					"/>
				</g>
			</g>
			<g>
				<g>
					<path class="st31" d="M309.2,206.3l-10.9,9.2l34.1,38.5c0,0,2.6,0.6,6-2.2c3.4-2.9,3.6-5.9,3.6-5.9L309.2,206.3z"/>
					<path class="st32" d="M301.5,206.9c0,0-5.4,4.8-3.9,7.9c1.4,3.1,5.3,1.3,8-0.7c2.6-2,6.5-6.8,2.7-8.2c-3.3-1.3-7.5,3.6-7.8,5.3
						c-0.2,1.7,1.4,3.1,4.6,0.3c3.1-2.9-0.3-3.6-1.8-2"/>
					<path class="st33" d="M306.3,209.1c0,0,0.3,2-2.4,3.4c-2.7,1.4-6.2-1-0.3-5.4c5.9-4.4,8.2,0.9,4.7,4.4L306.3,209.1z"/>
					<path class="st34" d="M305.4,211.4l-1.9-2.3c0,0,1.9-1.2,2.7-0.4C307.1,209.7,305.4,211.4,305.4,211.4z"/>
					<path class="st35" d="M306.2,208.8l2.2,2.6c-2.1,2.6-5.1,4.1-5.1,4.1l-2.5-3c0,0,1.4,1.3,3.6-0.4
						C306.8,210.4,306.2,208.8,306.2,208.8z"/>
				</g>
				<g>
					<path class="st36" d="M389.6,221.5l-13.4-9.9l-28.6,40.8c0,0-0.1,3.2,4.1,6.3c4.2,3.1,7.8,2.4,7.8,2.4L389.6,221.5z"/>
					<path class="st32" d="M387,212.8c0,0-6.9-4.8-10.1-2.2c-3.3,2.6-0.2,6.6,2.8,9.1c3,2.5,9.5,5.4,10.2,0.6
						c0.6-4.2-6.1-7.6-8.1-7.4c-2,0.3-3.3,2.6,0.9,5.4c4.1,2.8,4-1.4,1.8-2.7"/>
					<path class="st33" d="M385.6,219c0,0-2.2,0.9-4.5-1.8c-2.3-2.7-0.4-7.5,6.2-2c6.6,5.5,1.1,9.8-3.9,6.8L385.6,219z"/>
					<path class="st34" d="M382.7,218.6l2.1-2.9c0,0,1.9,1.9,1.2,3C385.1,220.1,382.7,218.6,382.7,218.6z"/>
					<path class="st35" d="M386,218.8l-2.4,3.4c-3.6-1.6-6-4.6-6-4.6l2.8-3.8c0,0-1.1,2,1.4,4.1C384.3,219.9,386,218.8,386,218.8z"
						/>
				</g>
				<g>
					<path class="st37" d="M363.8,215.2l-1.6,6.8l2.5,2.6l3.7-1.2l1.6-6.8c1.6,1.5,2.4,3.8,1.9,6.1c-0.8,3.4-4.2,5.6-7.7,4.8
						c-3.4-0.8-5.6-4.2-4.8-7.7C359.9,217.6,361.6,215.9,363.8,215.2z"/>
					
						<rect x="348" y="236.4" transform="matrix(0.226 -0.9741 0.9741 0.226 46.3777 537.3907)" class="st37" width="26.8" height="6.3"/>
					<path class="st38" d="M351.1,255.4c-0.8,3.4,1.3,6.9,4.8,7.7s6.9-1.3,7.7-4.8c0.8-3.4-1.3-6.9-4.8-7.7
						C355.3,249.9,351.9,252,351.1,255.4z M354.6,254.3l3.5-1.1l2.7,2.5l-0.8,3.6l-3.5,1.1l-2.7-2.5L354.6,254.3z"/>
				</g>
				<g>
					<path class="st38" d="M361.2,264.6l-2.1-7.2l-3.7-1.2l-2.8,3l2.1,7.2c-2.3-0.6-4.3-2.3-5-4.8c-1-3.7,1.1-7.5,4.7-8.5
						c3.7-1,7.5,1.1,8.5,4.7C363.6,260.4,362.9,262.9,361.2,264.6z"/>
					
						<rect x="347.4" y="226" transform="matrix(0.9614 -0.2752 0.2752 0.9614 -52.6292 105.8191)" class="st39" width="6.8" height="29"/>
					<path class="st39" d="M352.1,220c-1-3.7-4.9-5.8-8.5-4.7c-3.7,1-5.8,4.9-4.7,8.5c1,3.7,4.9,5.8,8.5,4.7
						C351,227.5,353.1,223.7,352.1,220z M349.3,222.9l-2.8,2.9l-3.9-1l-1.1-3.8l2.8-2.9l3.9,1L349.3,222.9z"/>
				</g>
				<g>
					<path class="st36" d="M329.8,201.5l-14.8,7.7l27.2,50c0,0,3,1.8,7.6-0.6c4.6-2.4,5.4-6.2,5.4-6.2L329.8,201.5z"/>
					<path class="st32" d="M320.5,199.2c0,0-7.3,4.1-6.2,8.7c1.2,4.6,6.2,3.8,9.7,2.2c3.6-1.6,9-6.3,4.7-9.6
						c-3.7-2.9-9.7,1.8-10.3,3.8c-0.6,2.1,1.2,4.6,5.4,2.1c4.3-2.5,0.3-4.7-1.8-3.2"/>
					<path class="st33" d="M325.8,204c0,0,0,2.6-3.5,3.4c-3.5,0.8-7.2-3.7,0.6-7.1c7.9-3.4,9.7,4.3,4.9,7.5L325.8,204z"/>
					<path class="st34" d="M324.3,206.6l-1.9-3.7c0,0,2.5-0.8,3.3,0.5C326.7,205,324.3,206.6,324.3,206.6z"/>
					<path class="st35" d="M325.8,203.5l2.2,4.2c-3,2.6-6.8,3.3-6.8,3.3l-2.5-4.8c0,0,1.4,2.2,4.4,0.8
						C326.2,205.8,325.8,203.5,325.8,203.5z"/>
				</g>
				<g>
					
						<rect x="331.9" y="236.5" transform="matrix(-1 -4.489843e-11 4.489843e-11 -1 715.5685 503.9653)" class="st40" width="51.9" height="31"/>
					
						<rect x="304" y="236.5" transform="matrix(-1 -4.486645e-11 4.486645e-11 -1 636.3633 503.9653)" class="st41" width="28.4" height="31"/>
					<polygon class="st42" points="343.5,251.4 395.1,251.4 384,236.5 332.4,236.5 					"/>
					<polygon class="st43" points="326,251.4 297.5,251.4 304,236.5 332.5,236.5 					"/>
				</g>
			</g>
		</g>
		<g>
			<path class="st3" d="M473.2,108.1c0,5.5-4.5,10-10,10c-5.5,0-10-4.5-10-10c0-5.5,4.5-10,10-10
				C468.7,98.1,473.2,102.6,473.2,108.1z"/>
			<g>
				<path class="st1" d="M467.7,105.2c0,0.1-0.1,0.2-0.1,0.3c-0.1,0.2-0.3,0.4-0.5,0.6c-0.1,0.1-0.1,0.1,0,0.2
					c0.1,0.1,0.1,0.3,0.2,0.4c0,0,0.1,0.1,0.1,0.1c0.3,0,0.5,0.1,0.8,0.1c0.3,0,0.5,0.2,0.5,0.5c0,0.5,0,1,0,1.5
					c0,0.3-0.2,0.5-0.5,0.5c-0.3,0-0.5,0.1-0.8,0.1c-0.1,0-0.1,0-0.2,0.1c-0.1,0.1-0.1,0.3-0.2,0.4c0,0.1,0,0.1,0,0.2
					c0.2,0.2,0.3,0.4,0.5,0.6c0.2,0.3,0.2,0.5,0,0.8c-0.3,0.3-0.7,0.7-1,1c-0.2,0.2-0.5,0.2-0.8,0c-0.2-0.2-0.4-0.3-0.6-0.5
					c-0.1-0.1-0.1-0.1-0.2,0c-0.1,0.1-0.3,0.1-0.4,0.2c-0.1,0-0.1,0.1-0.1,0.2c0,0.3-0.1,0.5-0.1,0.8c0,0.3-0.2,0.4-0.5,0.4
					c-0.5,0-1,0-1.5,0c-0.3,0-0.5-0.2-0.5-0.4c0-0.3-0.1-0.5-0.1-0.8c0-0.1,0-0.1-0.1-0.1c-0.2-0.1-0.3-0.1-0.5-0.2c0,0-0.1,0-0.2,0
					c-0.2,0.2-0.4,0.3-0.6,0.5c-0.3,0.2-0.5,0.2-0.8,0c-0.3-0.3-0.7-0.7-1-1c-0.2-0.2-0.2-0.5,0-0.8c0.2-0.2,0.3-0.4,0.5-0.6
					c0-0.1,0.1-0.1,0-0.2c-0.1-0.1-0.1-0.3-0.2-0.4c0-0.1-0.1-0.1-0.1-0.1c-0.3,0-0.5-0.1-0.8-0.1c-0.3,0-0.4-0.2-0.4-0.5
					c0-0.5,0-1,0-1.5c0-0.3,0.2-0.5,0.5-0.5c0.3,0,0.5-0.1,0.8-0.1c0.1,0,0.1,0,0.1-0.1c0.1-0.1,0.1-0.3,0.2-0.4c0-0.1,0-0.1,0-0.2
					c-0.2-0.2-0.3-0.4-0.5-0.6c-0.2-0.3-0.2-0.5,0-0.8c0.3-0.3,0.7-0.7,1-1c0.2-0.2,0.5-0.2,0.7,0c0.2,0.2,0.4,0.3,0.6,0.5
					c0.1,0,0.1,0.1,0.2,0c0.1-0.1,0.3-0.1,0.4-0.2c0.1,0,0.1-0.1,0.1-0.1c0-0.3,0.1-0.5,0.1-0.8c0-0.3,0.2-0.5,0.5-0.5
					c0.5,0,1,0,1.5,0c0.3,0,0.5,0.2,0.5,0.5c0,0.3,0.1,0.5,0.1,0.8c0,0,0.1,0.1,0.1,0.1c0.1,0.1,0.3,0.1,0.4,0.2c0.1,0,0.1,0,0.2,0
					c0.2-0.2,0.4-0.3,0.6-0.5c0.3-0.2,0.5-0.2,0.8,0c0.3,0.3,0.7,0.7,1,1C467.7,104.9,467.7,105,467.7,105.2z M460.1,112.1
					c0.3-0.2,0.5-0.4,0.8-0.6c0.1-0.1,0.2-0.1,0.3,0c0.2,0.1,0.5,0.3,0.7,0.3c0.3,0.1,0.4,0.2,0.4,0.5c0,0.3,0.1,0.5,0.1,0.8
					c0.4,0,0.8,0,1.2,0c0,0,0-0.1,0-0.1c0-0.3,0.1-0.6,0.1-1c0-0.1,0-0.2,0.2-0.2c0.4-0.1,0.7-0.2,1-0.4c0.1-0.1,0.1,0,0.2,0
					c0.3,0.2,0.6,0.5,0.8,0.7c0.3-0.3,0.6-0.6,0.9-0.9c-0.2-0.3-0.4-0.6-0.7-0.9c-0.1-0.1-0.1-0.1,0-0.2c0.2-0.3,0.4-0.7,0.4-1.1
					c0-0.1,0.1-0.1,0.2-0.1c0.3,0,0.6-0.1,1-0.1c0.1,0,0.1,0,0.1-0.1c0-0.3,0-0.7,0-1c0-0.1,0-0.1-0.1-0.1c-0.3,0-0.6-0.1-1-0.1
					c-0.1,0-0.1,0-0.2-0.1c-0.1-0.4-0.2-0.7-0.4-1.1c-0.1-0.1,0-0.1,0-0.2c0.2-0.3,0.5-0.6,0.7-0.8c-0.3-0.3-0.6-0.6-0.9-0.9
					c-0.3,0.2-0.6,0.4-0.8,0.7c-0.1,0.1-0.1,0.1-0.2,0c-0.3-0.2-0.7-0.3-1-0.4c-0.1,0-0.1-0.1-0.1-0.2c0-0.3-0.1-0.6-0.1-1
					c0-0.1-0.1-0.1-0.1-0.1c-0.3,0-0.7,0-1,0c-0.1,0-0.1,0-0.1,0.1c0,0.3-0.1,0.7-0.1,1c0,0.1,0,0.1-0.1,0.1
					c-0.4,0.1-0.8,0.2-1.1,0.5c0,0-0.1,0-0.2,0c-0.1-0.1-0.3-0.2-0.4-0.3c-0.2-0.1-0.3-0.2-0.5-0.4c-0.3,0.3-0.6,0.6-0.9,0.9
					c0.2,0.3,0.4,0.6,0.7,0.9c0.1,0.1,0.1,0.1,0,0.2c-0.2,0.3-0.4,0.7-0.4,1.1c0,0.1-0.1,0.1-0.2,0.1c-0.3,0-0.7,0.1-1,0.1
					c-0.1,0-0.1,0-0.1,0.1c0,0.3,0,0.7,0,1c0,0.1,0,0.1,0.1,0.1c0.3,0,0.6,0.1,1,0.1c0.1,0,0.1,0.1,0.2,0.1c0.1,0.3,0.3,0.7,0.4,1
					c0.1,0.1,0.1,0.2,0,0.3c-0.2,0.3-0.4,0.6-0.6,0.8C459.5,111.5,459.8,111.8,460.1,112.1z"/>
				<path class="st1" d="M465.2,108.2c0,1.2-0.9,2.1-2.1,2.1c-1.2,0-2.1-0.9-2.1-2.1c0-1.2,0.9-2.1,2.1-2.1
					C464.3,106.1,465.2,107.1,465.2,108.2z M463.1,109.6c0.8,0,1.4-0.6,1.4-1.4c0-0.8-0.6-1.4-1.4-1.4c-0.8,0-1.4,0.7-1.4,1.4
					C461.7,109,462.3,109.6,463.1,109.6z"/>
			</g>
		</g>
		<g>
			<g>
				<path class="st8" d="M188.6,247.8c0,0-35.7-3.5-37.9,6.1c-3.3,14.5,45.2,14.5,45.2,14.5l4.2-9.7l-19.9-7.8"/>
				<path class="st10" d="M187.6,270.5l-9.9-0.4c0,0-1.6-0.5-2.6-3.5c-1-3-0.6-3.2-0.6-3.2l11.5-1.3"/>
				<path class="st8" d="M200.1,246.5c0,0,27.3,1.7,26.2,14.1c-1.2,12.4-41.9,11.4-41.9,11.4l-2.9-12.3c0,0,21.1-4.6,30-4.6"/>
				<path class="st8" d="M198.3,245.2l21,11c0,0-15.7,8.9-30.6,5.2c-15-3.7-17.3-10.4-17.3-10.4L198.3,245.2z"/>
				<path class="st7" d="M178.4,262.9c0,0-0.1,0.5,0.2,0.8c0.3,0.3,1-0.2,1.7,0.6c0.7,0.7,1,3.5,0.7,4.1c-0.3,0.6-0.9,0.5-0.9,0.8
					c0.1,0.7,1,1.1,1,1.1s-2.2,0.3-5.1,0.5c-5.1,0.4-6.7,0.3-8.6,0c-1.5-0.3-3.3-3.1-1.4-5.1c2.9-2.9,9.3-2.7,9.3-2.7L178.4,262.9"
					/>
				<path class="st44" d="M181.9,261.6c0,0,18.8-7.1,29.5-7.8"/>
				<path class="st44" d="M185.9,260.2c0,0-14.2-8.5-23.3-9.1"/>
			</g>
			<g>
				<path class="st10" d="M191.6,200.9c0,0-2.5,6.4-0.4,8.6c1.1,1.1,4.3,1.4,5.6,0.3c1-0.8,2.6-5.7,2.1-6.6
					C196.8,199.8,191.6,200.9,191.6,200.9z"/>
				<path class="st10" d="M199.7,207.2l0.5,7c0,0-4.5,3.5-8.2-0.4l0.8-4.6L199.7,207.2z"/>
				<g>
					<path class="st7" d="M201.4,205.9c0.3-1.5,1.3-3.8,0.4-4.8c-0.3-0.3-0.8-0.6-1.1-0.9c-0.3-0.4-0.5-0.8-0.7-1.2
						c-0.4-0.7-0.9-1.4-1.6-1.9c-0.7-0.5-1.6-0.7-2.4-0.4c-0.3,0.1-0.6,0.3-0.9,0.3c-0.4,0.1-0.7,0-1.1-0.1
						c-0.9-0.2-1.9-0.1-2.9,0.1c-1.1,0.3-2.2,1.1-2.5,2.2c-0.3,1.1,0.4,2.5,1.6,2.6c0.5,0,1.1-0.2,1.6,0.1c0.2,0.1,0.3,0.3,0.4,0.4
						c0.6,0.6,1.5,0.8,2.2,0.5c1-0.4,1.5-0.6,1.6,0.6c0.1,0.9,0.7,1.6,1.6,1.9c0.5,0.2,1,0.2,1.4,0.5c0.4,0.3,0.6,1,0.3,1.4
						c-0.1,0.2-0.2,0.3-0.3,0.5c-0.2,0.5,0.3,1,0.7,1.4C201.1,207.6,201.2,206.8,201.4,205.9z"/>
				</g>
				<path class="st10" d="M198.4,206c0.6-1,1.2-0.9,1.6-0.4c0.5,0.6-0.2,2.1-0.6,2.4c-0.8,0.6-1.4,0.6-1.6-0.1"/>
				<path class="st11" d="M192.6,210.5c2.4,0.6,4.5-1,4.5-1"/>
			</g>
			<g>
				<path class="st15" d="M184.4,215.5c0,0-5.9,1.5-8.1,11.1c-1.3,5.6-2.7,11.3-2.7,11.3s-9.4,1.1-12.5,2l1.2,5.4
					c0,0,18.2,1.6,22.2-2.4c4-4,2.4-14.6,2.4-14.6"/>
				<path class="st16" d="M194.5,215.2l6.7-0.9l1.5,0.3c0,0-11.7,33-12,33c-0.3,0-4.3-0.7-4.3-0.7l3-32.5l1.4-0.6L194.5,215.2z"/>
				<g>
					<path class="st8" d="M193.9,216.9l-0.6,1.5c0,0-5.1,10-5.1,12.3c0,2.4-0.8,16.4-0.6,16.4c0.2,0,3.6,0.4,3.6,0.4l3.6-14.9
						l0.2-14.2"/>
					<path class="st8" d="M192.8,215.5c-0.2,0.2,0.2,2.7,0.5,3c0.3,0.3,1.5,0.3,1.7,0c0.3-0.3,1.5-2.6,1.1-3
						C195.7,215.1,193.1,215.1,192.8,215.5z"/>
				</g>
				<path class="st15" d="M190,238.2c6-16.1,12.8-23.5,12.8-23.5s7.3,0.7,9.3,4.3c2.6,4.5-0.5,10.9-1.1,19.8c-0.6,9-1.4,6.7-1.4,6.7
					s-9,3.4-17,3.4c0,0-9.2-0.3-11.6-1.2c0,0,0-7.3,0-12.9c0-5.7-1.4-14.8,1.5-18.3c1.3-1.6,7-2,7-2L190,238.2z"/>
				<g>
					<path class="st19" d="M159.6,248.3h27.5l-2.2-16.5c-0.1-0.5-0.5-0.9-1.1-0.9h-25.4c-0.6,0-1.1,0.5-1,1.1L159.6,248.3z"/>
					<path class="st18" d="M169.3,239.5c0.1,1,1,1.9,2,1.9c1,0,1.8-0.8,1.8-1.9c-0.1-1-1-1.9-2-1.9
						C170,237.6,169.2,238.5,169.3,239.5z"/>
				</g>
				<polygon class="st16" points="200.1,212.7 194.7,214.9 192.2,212.7 190.8,213.9 191.8,217.2 194.6,215.4 196.4,218.2 
					201.1,214.3 				"/>
				<path class="st45" d="M204.4,215.2c-2.4,6.8-2.8,12.2-2.8,12.2h-3l1.6,2.6c0,0-6.3,3.2-10.2,12.8"/>
				<path class="st45" d="M187.6,215c-0.4,4.4-2.2,8.8-2.2,8.8l1.9,1.4l-2.4,1.3c0,0,4.3,10.6,3.6,16.3"/>
				<polyline class="st46" points="201.2,214.5 196.4,218.5 194.6,215.4 191.8,217.4 190.6,214 				"/>
				<g>
					<g>
						<g>
							<path class="st10" d="M185.4,245.7c-1.2-0.1-6.5-0.3-6.5,0c0,0.3,1.8,0.7,1.7,0.8c-0.1,0.2-1.5,0.2-2.3,0.1
								c-0.7-0.1-1.8-0.1-1.9,0.2c-0.1,0.6,3.7,0.9,3.7,0.9c0,0.2-4-1.1-4.2-0.6c-0.2,0.7,4.1,1.7,4.2,1.8c0,0-3.5-1.9-3.6-1.4
								c-0.2,0.5,2.9,2.3,3.9,2.4c-0.8-0.3-3.1-2.1-3.2-1.7c-0.1,0.4,1.9,1.7,2.3,1.8c2.9,0.9,5.7,1,5.7,1"/>
						</g>
					</g>
				</g>
				<polygon class="st16" points="186.6,245.2 184.4,245.5 185.3,252.7 188.3,252.5 				"/>
				<path class="st15" d="M203.2,228.2c0,9.1-0.5,13-0.5,13s-7.9,2.8-17.4,3.8c0.6,3.6,1.1,8.2,1.1,8.2s18.7-1.3,24-5.1
					c5.8-4.1,6.4-27.8-0.3-31"/>
				<path class="st45" d="M186.9,244.5c14.4-2.3,16.4-3.4,16.4-3.4s1.1-8.9,0.7-14"/>
			</g>
		</g>
		<g>
			<g>
				<path class="st10" d="M105.8,137.1l-1.5,7.4c0,0,4.1,4.2,8.4,0.3l0-4.9L105.8,137.1z"/>
				<path class="st10" d="M112.7,130.2c0,0,4.3,6.6,2.2,9c-1.1,1.2-5.2,2.3-6.7,1.2c-1.1-0.8-2.9-6.2-2.3-7.1
					C108.1,129.6,112.7,130.2,112.7,130.2z"/>
				<g>
					<path class="st7" d="M105.1,130.7c0.4-2.5,2.9-3,7.7-2.3c0.6,0.1,1.8-0.2,2,0.4c0.3,0.8,0.3,2.3-0.6,2.9
						c-0.5,0.4-0.9,0.5-1.5,0.6c-0.9,0.1-1.8,0.9-1.5,1.8c0.1,0.2,0.3,0.7,0.2,0.9c-0.1,0.1-0.4,0.2-0.5,0.2c-0.4,0.2-0.4,0.7-0.2,1
						c0.2,0.3,0.1,0.7,0.2,1c0.4,0.8-0.3,2.2-1.1,2.6c-0.7,0.4-3.1,0.8-4.7-0.2c-1.4-0.9-2.1-3-1.8-6.7
						C103.4,131.4,104.5,130.6,105.1,130.7z"/>
				</g>
				<path class="st10" d="M111.7,135.1c-0.7-1.1-1.3-1-1.7-0.4c-0.5,0.7,0.3,2.3,0.7,2.6c0.8,0.6,1.5,0.6,1.7-0.1"/>
				<path class="st47" d="M112.7,140.4c-1.1-0.4-1.4-1.7-1.4-1.7"/>
			</g>
			<g>
				<g>
					<polyline class="st10" points="100.9,261.4 98.5,271.3 106.8,274.5 89.5,272.2 91,260.4 					"/>
					<path class="st7" d="M99,269.3c0.5,0.2,0.1,0.5,1,1.6c0.9,1.1,6,3.1,8.5,3.8c2.4,0.7,1.8,2.7,1,2.7c0,0-11.7,0-12.7,0
						c-0.9,0-1.6-0.8-2.3-0.8c-0.2,0-0.6-0.1-0.7,0c-0.2,0.2-0.2,0.7-0.2,0.7h-4.3c-0.5,0-0.8-0.3-0.7-0.7l0.5-6.1
						c0,0,5.2,0.7,6.7,0.3c0.6-0.2,0-0.6,0.2-0.9C96.3,269.9,98.5,269.2,99,269.3z"/>
				</g>
				<path class="st48" d="M93.5,193.7c0.6,22.8-4.4,72.1-4.4,72.1l14-0.1c0,0,7.8-33.8,9.7-50.8c1.1-10.1,1.6-21.6,1.8-30.2"/>
				<path class="st49" d="M111,215.4c-2.2,16.8-10.6,50.1-10.6,50.1"/>
				<g>
					<polyline class="st10" points="124.1,261.1 124.6,271.3 132.9,274.5 115.6,272.2 114.8,260.4 					"/>
					<path class="st7" d="M125.1,269.3c0.5,0.2,0.1,0.5,1,1.6c0.9,1.1,6,3.1,8.5,3.8c2.4,0.7,1.8,2.7,1,2.7c0,0-11.7,0-12.7,0
						c-0.9,0-1.6-0.8-2.3-0.8c-0.2,0-0.6-0.1-0.7,0c-0.2,0.2-0.2,0.7-0.2,0.7h-4.3c-0.5,0-0.8-0.3-0.7-0.7l0.5-6.1
						c0,0,5.2,0.7,6.7,0.3c0.6-0.2,0-0.6,0.2-0.9C122.4,269.9,124.6,269.2,125.1,269.3z"/>
				</g>
				<path class="st48" d="M125.3,194.8c0,0,1.8,25.6,1.8,37.8c0,12.3,0.8,34.5,0.8,34.5h-14.1c0,0-3.5-37.7-11.4-63.9
					c-2.8-9.4-3.2-13.6-2-18.8l17.6-4.6L125.3,194.8z"/>
				<path class="st49" d="M119.7,194.1c5.1,34.3,6,73.1,6,73.1"/>
				<path class="st49" d="M99.9,195.9c1.1,6.4,3.7,10.3,5.1,12.9c2.1,8.6,2.5,14.9,4.3,26.1"/>
				<path class="st49" d="M110.7,199c-4.3,0.8-8.2,0.2-8.2,0.2"/>
				<path class="st49" d="M96.7,198.7c-1.4,0.3-3.1-0.1-3.1-0.1"/>
			</g>
			<g>
				<path class="st10" d="M121.4,145.3c0,0-0.8-2.9-2.6-4.3c-0.9-0.7-1.1-0.4-1.6-0.7c-0.8-0.4-1.2-0.3-1.5,0.1
					c-0.2,0.3-0.8,0.1-1.1,0.3c-0.5,0.3-0.1,0.9-0.5,1c-1.4,0.7,0.2,2,0.2,2s-0.3-0.7-0.9-0.4c-0.4,0.2,1.1,2.2,2.1,3.6
					c0.5,0.7,0.9,1.2,0.9,1.2"/>
				<path class="st16" d="M121.8,144.1c-0.1-0.1-1.3-1.7-1.3-1.7l-4.6,4.3l1.5,0.9"/>
				<polyline class="st16" points="116.9,149 115.5,147.7 121.2,142.9 122.6,144.9 				"/>
				<path class="st50" d="M105,144.2c-2.5-0.4-5.6-0.2-7.8,0.8c-9.1,4.5-14.1,19.8-14.4,23.5c-0.6,9.5,10.3,25.2,10.3,25.2l6.3-3
					c0,0-6.8-16.1-4.9-21.3C96.4,164.3,105,155,105,155"/>
				<path class="st50" d="M104.4,144.3c0,0-7.6,1.7-10.5,12.7c-1.3,4.9,0.1,12.9-0.2,19.7c-0.5,10.5-1.9,19.2-1.9,19.2
					c14.1,2.8,34.3-0.2,34.3-0.2s-1.5-11.2-2-18.3c-0.6-8.1-0.5-9.6-0.5-16.3c0-14.6-10.4-15.7-10.4-15.7L104.4,144.3z"/>
				<path class="st50" d="M103.4,144.4c0,0,0.8-1.9,0.9-1.9c1.9-0.4,7.3-0.2,8.7,1.2c0.6,0.6,0.3,1.4,0.4,2.4"/>
				<path class="st51" d="M92.6,191.8c1.6-11.3,1-33.3,1-33.3"/>
				<path class="st50" d="M113.7,156.3c0,0,4.7,19.3,15.5,19.2c10.2-0.1,7.5-17.2-7.9-32.6l-9.4,7.9"/>
				<path class="st51" d="M123.7,173.5c-3.2-2.6-6.4-7.2-6.4-7.2"/>
				<path class="st51" d="M117.4,146.9c8.7,6.5,13.2,16.4,13.2,16.4"/>
			</g>
		</g>
		<g>
			<g>
				<g>
					<path class="st10" d="M317.5,89.3c-0.2,2.2-2.1,8.6-1.7,8.8c0.4,0.3,1.1-2,1.4-1.7c0.3,0.3-0.5,3.8,0,3.9
						c0.6,0.2,1.3-3.4,1.3-3.4s-0.5,4,0.2,4c0.4,0,0.9-3,1.3-4.1c-0.2,1.3-0.3,3.4,0.2,3.4c0.5,0,0.8-2,1.2-3.6
						c-0.1,1-0.3,2.8,0.1,2.8c0.4,0,1.7-4.9,2.8-9.6"/>
				</g>
				<path class="st10" d="M327.8,57.5c1.8,15.5-4.5,36-4.5,36l-6.2-1.3c0,0,2.5-17.8-0.3-33.4"/>
			</g>
			<path class="st15" d="M321.6,44.9c5.9,4.2,6.4,13,6.4,13l-11.3,2.1c0,0-0.6-6.9-0.6-9.3"/>
			<path class="st17" d="M316.3,60.1c-0.3-3.2-1.3-6-1.3-6"/>
			<path class="st17" d="M328.6,57.8c-0.3-3.2-0.8-5.7-0.8-5.7"/>
		</g>
		<g>
			
				<ellipse transform="matrix(0.2399 -0.9708 0.9708 0.2399 21.5085 189.0665)" class="st15" cx="131.5" cy="80.8" rx="25.4" ry="25.4"/>
			<circle class="st16" cx="131.5" cy="80.8" r="18.4"/>
			<circle class="st15" cx="131.5" cy="80.8" r="12.6"/>
			<circle class="st16" cx="131.5" cy="80.8" r="6.6"/>
			<g>
				<g>
					<polygon class="st52" points="132.5,81.8 128.4,81.8 132.5,77.7 					"/>
				</g>
				<g>
					<polygon class="st52" points="105.6,54.9 100.8,54.9 100.8,53.7 104.4,53.7 104.4,50.1 105.6,50.1 					"/>
				</g>
				<g>
					<polygon class="st52" points="103.4,52.7 98.7,52.7 98.7,51.5 102.2,51.5 102.2,48 103.4,48 					"/>
				</g>
				<g>
					
						<rect x="116.4" y="46" transform="matrix(0.7071 -0.7071 0.7071 0.7071 -12.6082 102.142)" class="st52" width="1.2" height="40.6"/>
				</g>
			</g>
		</g>
		<g>
			<g>
				<line class="st53" x1="374.6" y1="277.5" x2="366.7" y2="171.6"/>
				<polyline class="st53" points="406.8,277.5 398.8,171.6 366.7,171.6 				"/>
				<line class="st53" x1="390.9" y1="277.5" x2="398.8" y2="171.6"/>
				<polyline class="st53" points="358.8,277.5 366.7,171.6 398.8,171.6 				"/>
				<line class="st53" x1="405.5" y1="262.5" x2="359.9" y2="262.5"/>
				<line class="st53" x1="404.5" y1="249.5" x2="360.9" y2="249.5"/>
				<line class="st53" x1="403.2" y1="236.2" x2="361.9" y2="236.2"/>
				<line class="st53" x1="401.9" y1="223.5" x2="362.8" y2="223.5"/>
				<line class="st53" x1="401.1" y1="210.3" x2="363.8" y2="210.3"/>
				<line class="st53" x1="400.3" y1="197.1" x2="364.8" y2="197.1"/>
				<line class="st53" x1="399.6" y1="184.7" x2="365.7" y2="184.7"/>
			</g>
			<g>
				<g>
					<path class="st10" d="M396.5,124l1.6,7.3c0,0-4,4.3-8.4,0.5l-0.1-4.9L396.5,124z"/>
					<path class="st10" d="M387.2,117.6c0,0-2,7.7,0.8,9.2c1.5,0.8,5.7,0.5,6.7-1c0.8-1.2,0.7-6.8-0.1-7.5
						C391.2,115.6,387.2,117.6,387.2,117.6z"/>
					<g>
						<path class="st15" d="M395.7,115.4c-1.2-2.2-3.8-1.8-7.7-0.2c-1.5,0.6-3.2,0-3.3,0.7c-0.4,1.8,0.5,3.3,1.5,3.6
							c0.6,0.2,1.7,0.2,2.3,0c1.7-0.6,3.1,0.2,3.1,1.2c0,0.3-0.1,0.7,0.1,0.9c0.1,0.1,0.4,0,0.6,0c0.4,0,0.6,0.5,0.5,0.9
							c-0.1,0.4,0.8,0.3,0.8,0.7c-0.2,0.9,1.6,2.1,2.5,2.2c0.8,0.1,1.2-0.5,1.6-1.6C398.2,122.1,399.2,115.3,395.7,115.4z"/>
					</g>
					<path class="st10" d="M391.9,121.8c0.3-1.2,1-1.3,1.5-1c0.7,0.5,0.5,2.2,0.2,2.7c-0.6,0.8-1.3,1.1-1.6,0.4"/>
					<path class="st11" d="M389.7,127.4c1.5,0,2.9-1.6,2.9-1.6"/>
				</g>
				<g>
					<g>
						<polyline class="st10" points="420.8,238.6 428.8,244.9 424.3,252.5 436.4,240 427.9,231.6 						"/>
						<path class="st7" d="M427.2,243.6c-0.3,0.5,0.2,0.5,0.2,1.9c0,1.4-2.8,6.2-4.3,8.3c-1.4,2,0.3,3.3,0.9,2.8
							c0,0,9.2-7.3,9.9-7.9c0.7-0.6,0.8-1.6,1.4-2c0.2-0.1,0.4-0.5,0.6-0.4c0.3,0.1,0.6,0.5,0.6,0.5l3.4-2.7c0.4-0.3,0.4-0.7,0.2-1
							l-4.2-4.5c0,0-3.7,3.8-5.1,4.4c-0.6,0.2-0.4-0.5-0.7-0.6C429.6,242.4,427.5,243.2,427.2,243.6z"/>
					</g>
					<path class="st50" d="M414.9,178.3c0,7.6-0.1,19.3,1.7,31.4c0.7,4.8,17.1,26.1,17.1,26.1l-9.7,9.1c0,0-28.2-25-27.5-43.1
						c0.8-19.6-2.7-46.1-2.7-46.1"/>
					<g>
						<polyline class="st10" points="387.8,244.9 388.7,255.8 380.5,259 397.7,256.8 397.7,244.9 						"/>
						<path class="st7" d="M388.2,253.9c-0.5,0.2-0.1,0.5-1,1.6c-0.9,1.1-6,3.1-8.5,3.8c-2.4,0.7-1.8,2.7-1,2.7c0,0,11.7,0,12.7,0
							s1.6-0.8,2.3-0.8c0.2,0,0.6-0.1,0.7,0c0.2,0.2,0.2,0.7,0.2,0.7h4.3c0.5,0,0.8-0.3,0.7-0.7l-0.5-6.1c0,0-5.2,0.7-6.7,0.3
							c-0.6-0.2,0-0.6-0.2-0.9C390.9,254.4,388.8,253.7,388.2,253.9z"/>
					</g>
					<path class="st50" d="M383.1,179.3c0,0-1.8,25.6-1.8,37.8c0,12.3,3.5,34.5,3.5,34.5H399c0,0-0.8-37.7,7.2-63.9
						c2.8-9.4,3.2-13.6,2-18.8l-17.6-4.6L383.1,179.3z"/>
					<path class="st54" d="M387.7,178.6c-5.4,31.8-0.1,73-0.1,73"/>
					<path class="st54" d="M408.8,182c0,3.9-1.2,5.8-4.2,8.9c-2.2,9.2-2.4,17.5-3.9,25.7"/>
					<path class="st54" d="M401.8,210.4c8.1,16.5,23.9,32.3,23.9,32.3"/>
					<path class="st54" d="M397.7,183.5c4.3,0.8,8.2,0.2,8.2,0.2"/>
					<path class="st54" d="M411.7,183.3c1.4,0.3,3.1-0.1,3.1-0.1"/>
				</g>
				<path class="st8" d="M388.6,131.2c0,0,0.5-2,0.7-2.2c2.6-1.6,6.7-2,8.1-2l0.8,2.7"/>
				<g>
					<g>
						<path class="st10" d="M353.5,149.4c-2.3,0.1-9.1-0.7-9.3-0.3c-0.2,0.4,2.2,0.7,1.9,1.1c-0.2,0.3-3.9,0.1-4,0.6
							c-0.1,0.7,3.7,0.7,3.7,0.7s-4.1,0.2-4.1,0.8c0,0.4,3.2,0.4,4.4,0.6c-1.3,0-3.5,0.2-3.5,0.7c0,0.4,2.2,0.5,3.9,0.6
							c-1,0-2.9,0.1-2.9,0.6c0,0.4,5.3,0.9,10.2,1.2"/>
					</g>
					<polyline class="st16" points="352.5,156.4 349.9,156.3 350.6,148.9 353.4,148.8 					"/>
					<path class="st8" d="M392.3,129c0.2-0.1,3.1-0.5,3.4-0.5c3-0.2,8,1.8,11.8,11.2c4.9,12.1,8.2,39.3,8.2,39.3s-20.7,3.9-35.2,2.6
						C379.5,162.7,374.9,132.6,392.3,129z"/>
					<path class="st9" d="M384.6,152.7c0,0,3.7,12.9,4.5,29.3"/>
					<path class="st8" d="M394.6,128.8c0,0-7.4,0.3-13.1,6.1c-3.7,3.9-6.5,8.6-9.3,10.8c-3.2,2.5-20.5,2.9-20.5,2.9l0.1,8.5
						c0,0,16.8,2.3,22.5,0.5c5.7-1.7,12.1-6.7,12.1-6.7"/>
					<path class="st9" d="M380,155.4c3.1-1.4,6.3-4.1,6.3-4.1"/>
				</g>
			</g>
		</g>
		<g>
			<line class="st55" x1="297.6" y1="21.5" x2="306.9" y2="21.5"/>
			<line class="st55" x1="288.5" y1="21.5" x2="294.1" y2="21.5"/>
			<path class="st55" d="M38.1,80.2c0,0.9-0.8,1.7-1.7,1.7s-1.7-0.8-1.7-1.7c0-0.9,0.8-1.7,1.7-1.7S38.1,79.3,38.1,80.2z"/>
			<path class="st55" d="M178.8,19.8c0,0.9-0.8,1.7-1.7,1.7c-0.9,0-1.7-0.8-1.7-1.7c0-0.9,0.8-1.7,1.7-1.7
				C178.1,18.1,178.8,18.9,178.8,19.8z"/>
			<path class="st55" d="M425.4,92c0,0.9-0.8,1.7-1.7,1.7c-0.9,0-1.7-0.8-1.7-1.7s0.8-1.7,1.7-1.7C424.7,90.3,425.4,91,425.4,92z"/>
			<g>
				<line class="st55" x1="78.5" y1="126.4" x2="78.5" y2="131.2"/>
				<line class="st55" x1="80.9" y1="128.8" x2="76.1" y2="128.8"/>
			</g>
			<g>
				<line class="st55" x1="212.1" y1="0.5" x2="212.1" y2="5.3"/>
				<line class="st55" x1="214.5" y1="2.9" x2="209.7" y2="2.9"/>
			</g>
			<g>
				<line class="st55" x1="102" y1="37.8" x2="102" y2="42.6"/>
				<line class="st55" x1="104.4" y1="40.2" x2="99.6" y2="40.2"/>
			</g>
			<g>
				<line class="st55" x1="325.6" y1="74.6" x2="325.6" y2="79.4"/>
				<line class="st55" x1="328" y1="77" x2="323.2" y2="77"/>
			</g>
			<g>
				<line class="st55" x1="436.7" y1="190.2" x2="436.7" y2="195"/>
				<line class="st55" x1="439.1" y1="192.6" x2="434.3" y2="192.6"/>
			</g>
			<g>
				<path class="st56" d="M37.9,107.9c2,4.5-0.1,9.8-4.7,11.7c-4.5,2-9.8-0.1-11.7-4.7c-2-4.5,0.1-9.8,4.7-11.7
					C30.7,101.3,36,103.4,37.9,107.9z"/>
				<g>
					<path class="st56" d="M31.6,115.9c-7.1,3.1-15.3,4.8-16.5,1.9c-1-2.3,3.4-5.6,5.7-7.2l0,1.3c-3.9,2.6-3.9,4-3.5,4.9
						c0.7,1.7,5.9,1.6,13.9-1.9c8.1-3.5,11.6-7.2,10.9-8.8c-0.4-0.9-1.4-2-6-0.9l-0.9-0.8c4.7-1.1,8.4-0.9,9.2,0.7
						C45.6,108,38.7,112.8,31.6,115.9z"/>
				</g>
			</g>
			<g>
				
					<ellipse transform="matrix(0.1293 -0.9916 0.9916 0.1293 163.5714 266.6813)" class="st56" cx="233.6" cy="40.2" rx="12.7" ry="12.7"/>
				<g>
					<path class="st56" d="M231.6,46.8c-10.6-3.1-21.1-8.8-19.8-13c1-3.4,8.8-3.1,12.8-2.6l-1.2,1.4c-6.6-0.7-7.9,0.9-8.3,2.2
						c-0.7,2.5,4.9,7.1,16.9,10.7c12,3.5,19.3,2.7,20,0.3c0.4-1.4,0.2-3.5-5.8-6.4l-0.3-1.8c6.2,3.1,10.1,6.6,9.3,9.1
						C254.1,50.9,242.2,49.9,231.6,46.8z"/>
				</g>
			</g>
			<polygon class="st56" points="435.6,79.9 435.8,71.9 442.1,77 449.8,74.8 446.9,82.3 451.4,88.9 443.4,88.5 438.4,94.8 436.4,87 
				428.8,84.3 			"/>
			<g>
				<polygon class="st56" points="74.3,43.9 64.3,45.3 51.3,36.4 59.9,34.5 				"/>
				<polyline class="st56" points="64.3,45.3 71.8,25.9 74.3,43.9 				"/>
				<polyline class="st56" points="51.3,36.4 71.8,25.9 59.9,34.5 				"/>
			</g>
		</g>
	</g>
</g>
</svg>
