<svg width="39" height="40" viewBox="0 0 39 40" fill="none" xmlns="http://www.w3.org/2000/svg">
<path d="M19.3307 3.23164C10.1153 3.15905 2.6278 10.5633 2.51981 19.8549C2.44782 29.1102 9.79132 36.6959 19.0067 36.7685C28.2221 36.8411 35.7096 29.4368 35.8176 20.1452C35.9255 10.8536 28.51 3.34052 19.3307 3.23164ZM20.2666 26.3517L20.0146 26.5695L19.7626 26.7873C19.5827 26.9325 19.4027 27.0413 19.2227 27.1865C19.1507 27.2591 19.0427 27.2954 18.9347 27.368C18.8267 27.4406 18.7547 27.4769 18.6467 27.5495C18.4667 27.6584 18.2507 27.7673 18.0708 27.8761C17.9628 27.9124 17.8548 27.985 17.7828 28.0213L17.3148 28.2754L17.1708 28.348L16.8468 28.4569C16.4149 28.602 15.9829 28.7472 15.5509 28.8198C15.119 28.9287 14.651 28.965 14.183 29.0013H13.823C13.751 29.0013 13.7151 29.0013 13.6431 29.0013H13.4631C13.3551 29.0013 13.2471 29.0013 13.1031 28.965L12.7431 28.9287L12.5631 28.8924L12.3831 28.8561L12.0232 28.7835C11.9152 28.7472 11.8072 28.7109 11.6992 28.6746L11.5192 28.6383C11.4472 28.602 11.4112 28.602 11.3392 28.5657L11.0152 28.4206L10.6913 28.2754C10.6553 28.2391 10.5833 28.2391 10.5473 28.2028L10.4393 28.0939C10.3313 28.0213 10.2233 27.985 10.1513 27.9124C9.35935 27.4043 8.67539 26.7873 8.13543 26.0614C7.55947 25.3718 7.0915 24.5733 6.73153 23.7748C6.69553 23.6659 6.65953 23.557 6.58754 23.4844C6.55154 23.3755 6.51554 23.2666 6.44355 23.194C6.37155 22.9763 6.29956 22.7948 6.22756 22.577C6.08357 22.1415 5.97558 21.7422 5.86758 21.3067C5.6876 20.4356 5.5796 19.5282 5.6516 18.6208C5.6876 18.1853 5.72359 17.7135 5.83159 17.2779C5.93958 16.8424 6.08357 16.4068 6.22756 15.9713C6.58754 15.1365 7.0915 14.3743 7.70346 13.721C8.35142 13.0677 9.10737 12.5595 9.97131 12.3055C10.4033 12.1603 10.8352 12.0877 11.2672 12.0514C11.6992 12.0151 12.1312 12.0514 12.5631 12.1603C13.4271 12.3418 14.219 12.741 14.795 13.358C14.435 13.1403 14.075 12.9588 13.6791 12.8136C13.2831 12.7047 12.8871 12.6321 12.4911 12.5958C11.6992 12.5595 10.9072 12.7047 10.2233 13.0314C10.1513 13.0677 10.0433 13.104 9.97131 13.1403L9.71932 13.2854C9.64733 13.3217 9.57533 13.3943 9.46734 13.4306C9.43134 13.4669 9.39535 13.5032 9.35935 13.5032L9.25136 13.5758C8.96337 13.8299 8.67539 14.0839 8.42341 14.3743C8.35142 14.4469 8.31542 14.5195 8.24342 14.5921L8.13543 14.8461L7.99144 15.1002C7.95544 15.1728 7.88345 15.2817 7.84745 15.3543C7.66746 15.6809 7.48747 16.0439 7.37948 16.4068C7.23549 16.7698 7.1635 17.1327 7.0915 17.4957C7.01951 17.8586 6.98351 18.2579 6.98351 18.6208C6.98351 19.383 7.0915 20.1452 7.27149 20.9074C7.37948 21.2704 7.48748 21.6696 7.63147 22.0326C7.70346 22.2141 7.77545 22.3955 7.84745 22.577C7.88345 22.6859 7.91945 22.7585 7.95544 22.8311C7.99144 22.9037 8.02744 23.0126 8.09943 23.0852C8.45941 23.7748 8.85538 24.4281 9.35935 25.0088C9.61133 25.2992 9.86331 25.5532 10.1513 25.8073L10.3673 25.9888C10.4393 26.0614 10.5113 26.0977 10.5833 26.1703C10.7273 26.2791 10.8712 26.388 11.0512 26.4969C11.1232 26.5332 11.1952 26.6058 11.3032 26.6421L11.4112 26.7147C11.4472 26.751 11.4832 26.751 11.5192 26.7873L11.7712 26.8962L12.0232 27.005C12.0592 27.005 12.0952 27.0413 12.1672 27.0413L12.3111 27.0776C12.3831 27.1139 12.4911 27.1502 12.5631 27.1502L12.8151 27.2228L12.9591 27.2591L13.1031 27.2954L13.3551 27.3317L13.6431 27.368H13.787C13.823 27.368 13.895 27.368 13.931 27.368H14.219C14.579 27.3317 14.939 27.2954 15.2989 27.2228C15.6589 27.1502 16.0189 27.0413 16.3789 26.8962L16.6309 26.7873L16.7748 26.751L16.9188 26.6784L17.1708 26.5695L17.4228 26.4243C17.6028 26.3517 17.7468 26.2428 17.9268 26.134C17.9988 26.0977 18.0708 26.0251 18.1787 25.9888C18.2507 25.9525 18.3227 25.8799 18.4307 25.8073C18.5747 25.6984 18.7547 25.5895 18.8987 25.4444L19.1147 25.2629L19.3307 25.0814C19.9066 24.5733 20.4106 23.9562 20.9146 23.3392C21.8505 22.1052 22.6784 20.726 23.5064 19.3104L22.3185 18.7297L23.6504 17.9675L23.7224 17.9312L23.9384 17.8223L24.5863 17.4594L24.6583 17.4231L26.0262 16.6609L25.9902 18.8023V19.4193L25.9542 20.9437L25.9182 20.8711L24.9103 20.2904C24.6943 20.6171 24.5143 20.9437 24.2983 21.2704C24.0823 21.6333 23.8304 21.9963 23.6144 22.3593C23.1464 23.0852 22.6424 23.7748 22.1025 24.4644C21.5265 25.1177 20.9506 25.771 20.2666 26.3517ZM32.3258 23.3755C32.1818 23.8111 32.0378 24.2466 31.8218 24.6459C31.3899 25.4444 30.8499 26.1703 30.1659 26.7873C29.482 27.368 28.654 27.8398 27.7901 28.0213C27.3581 28.1302 26.8902 28.1665 26.4582 28.1665C26.0262 28.1665 25.5942 28.0939 25.1623 27.985C24.3343 27.731 23.5424 27.2954 23.0384 26.6421C23.3624 26.8962 23.7224 27.1139 24.1183 27.2591C24.4783 27.4043 24.8743 27.5132 25.2703 27.5495C26.0622 27.6584 26.8542 27.5495 27.5741 27.2954C27.6461 27.2591 27.7541 27.2228 27.8261 27.1865L28.0781 27.0776C28.1501 27.0413 28.2581 26.9688 28.3301 26.9325C28.3661 26.8962 28.4021 26.8962 28.4381 26.8599L28.546 26.7873C28.87 26.5695 29.158 26.3154 29.41 26.0614C29.482 25.9888 29.554 25.9162 29.59 25.8436L29.77 25.6258L29.9499 25.4081C30.0219 25.3355 30.0579 25.2629 30.1299 25.154C30.3459 24.8273 30.5259 24.5007 30.6699 24.1377C30.8139 23.7748 30.9579 23.4118 31.0299 23.0489C31.1379 22.6859 31.1739 22.2867 31.2099 21.9237C31.2819 21.1615 31.2459 20.363 31.1019 19.6008C31.0299 19.2016 30.9579 18.8386 30.8499 18.4757C30.7779 18.2942 30.7419 18.1127 30.6699 17.9312C30.6339 17.8223 30.5979 17.7498 30.5619 17.6409C30.5259 17.5683 30.4899 17.4594 30.4539 17.3868C30.1659 16.6609 29.806 15.9713 29.338 15.3543C29.122 15.0276 28.87 14.7735 28.618 14.4832L28.4381 14.2654C28.3661 14.1928 28.2941 14.1565 28.2221 14.0839C28.0781 13.9387 27.9341 13.8662 27.7901 13.721C27.7181 13.6847 27.6461 13.6121 27.5741 13.5758L27.4661 13.5032C27.4301 13.4669 27.3941 13.4669 27.3581 13.4306L27.1061 13.2854L26.8542 13.1765C26.8182 13.1403 26.7822 13.1403 26.7462 13.104L26.6382 13.0677C26.5662 13.0314 26.4582 12.9951 26.3862 12.9588L26.1342 12.8862L25.9902 12.8499L25.9182 12.8136L25.6662 12.741L25.4143 12.7047L25.2343 12.6684C25.1983 12.6684 25.1263 12.6684 25.0903 12.6684H24.8383C24.4783 12.6684 24.1183 12.6684 23.7224 12.741C23.3624 12.7773 23.0024 12.8862 22.6424 12.9588L22.3905 13.0314L22.2465 13.0677L22.1025 13.104L21.8505 13.2128L21.5985 13.3217C21.4185 13.3943 21.2745 13.5032 21.0946 13.5758C21.0226 13.6121 20.9146 13.6847 20.8426 13.721C20.7706 13.7573 20.6626 13.8299 20.5906 13.8662C20.4466 13.975 20.2666 14.0839 20.1226 14.1928L19.9066 14.3743L19.6906 14.5558C19.0787 15.0276 18.5027 15.572 17.9628 16.1528C16.9188 17.3142 15.9829 18.6208 15.083 19.9638L16.0189 20.6534L14.615 21.3067L14.543 21.343L14.327 21.4519L13.6071 21.7422L13.5351 21.7785L12.0952 22.4318L12.2751 20.2904L12.3471 19.6734L12.4911 18.149L12.5631 18.1853L13.4991 18.8749C13.7151 18.5482 13.967 18.2579 14.183 17.9312C14.435 17.6046 14.687 17.2416 14.939 16.915C15.4789 16.2254 16.0189 15.572 16.6309 14.955C17.2428 14.338 17.8548 13.721 18.5747 13.1765L18.8267 12.9951L19.1147 12.8136C19.2947 12.6684 19.4747 12.5595 19.6906 12.4506C19.7986 12.3781 19.8706 12.3418 19.9786 12.2692C20.0866 12.2329 20.1586 12.1603 20.2666 12.124C20.4826 12.0151 20.6626 11.9062 20.8786 11.8336C20.9866 11.7973 21.0946 11.761 21.2025 11.6884L21.5265 11.5796L21.6705 11.507L21.8145 11.4707L22.1385 11.3618C22.5705 11.2529 23.0024 11.144 23.4704 11.0714C23.9384 10.9988 24.3703 10.9988 24.8383 10.9988L25.1983 11.0351C25.2703 11.0351 25.3063 11.0351 25.3783 11.0351L25.5582 11.0714C25.6662 11.1077 25.7742 11.1077 25.9182 11.144L26.2782 11.2166L26.4582 11.2529L26.6382 11.2892L26.9622 11.3981C27.0701 11.4344 27.1781 11.4707 27.2861 11.5433L27.4661 11.6158C27.5021 11.6521 27.5741 11.6521 27.6101 11.6884L27.9341 11.8336L28.2221 12.0151C28.2581 12.0514 28.3301 12.0877 28.3661 12.124L28.51 12.2329C28.618 12.3055 28.69 12.3781 28.798 12.4506C29.518 13.0314 30.1659 13.6847 30.6699 14.4469C31.1739 15.1728 31.6058 16.0076 31.9298 16.8424C31.9658 16.9513 32.0018 17.0601 32.0378 17.169C32.0738 17.2779 32.1098 17.3868 32.1458 17.4957C32.2178 17.7135 32.2898 17.9312 32.3258 18.149C32.4338 18.5845 32.5058 19.0201 32.5778 19.4556C32.6858 20.3267 32.7218 21.2341 32.5778 22.1415C32.5778 22.5044 32.4698 22.94 32.3258 23.3755Z" fill="#21759B"/>
<path d="M18.9705 39.3092C8.42322 39.2003 -0.108199 30.4532 -0.000206649 19.8186C0.107786 9.18412 8.7832 0.582139 19.3305 0.691025C29.8778 0.799911 38.4092 9.54707 38.3012 20.1816C38.1932 30.8161 29.5178 39.4181 18.9705 39.3092ZM19.3305 1.59841C9.25117 1.48952 0.971727 9.69225 0.899732 19.8549C0.79174 30.0176 8.92719 38.3655 19.0065 38.4381C29.0858 38.5107 37.3653 30.3443 37.4373 20.1816C37.5093 10.0189 29.4098 1.671 19.3305 1.59841Z" fill="#21759B"/>
</svg>
