<svg xmlns="http://www.w3.org/2000/svg" baseProfile="tiny" version="1.2" viewBox="0 0 392.9 402.3"><defs/><path fill="#F1F4FA" d="M45 128s65-38 78-68S262-2 347 99s29 130 18 134c-11 5-81 7-119 129S79 291 53 283s-71-109-8-155z"/><path fill="#F7EEF5" d="M139 384C96 374 10 227 0 158s198-42 215-21 97 25 131 79-17 90-16 98c1 11-148 81-191 70z"/><path fill="#DDF1F8" d="M222 325H72c-8 0-14-7-14-14V101c0-8 6-14 14-14h150c8 0 14 6 14 14v210c0 8-6 14-14 14z"/><path fill="#1C2955" d="M222 327H72c-9 0-16-7-16-16V101c0-9 7-17 16-17h150c9 0 16 8 16 17v210c1 9-7 16-16 16zM72 89c-6 0-11 6-11 12v210c0 6 5 11 11 11h150c6 0 11-5 11-11V101c1-7-5-12-11-12H72z"/><path fill="#9DCBED" d="M119 322V171c0-10 8-19 19-19h95v169l-114 1z"/><path fill="#FEFBE3" d="M293 392H143c-8 0-14-6-14-14V176c0-8 6-14 14-14h150c7 0 13 6 13 13v203c1 8-6 14-13 14z"/><path fill="#1C2955" d="M293 394H143c-9 0-17-7-17-16V176c0-9 8-17 17-17h150c9 0 16 7 16 16v203c0 9-7 16-16 16zM143 164c-7 0-12 5-12 12v202c0 6 5 11 12 11h150c6 0 11-5 11-11V176c0-7-5-12-11-12H143z"/><path fill="#1C2955" d="M195 120H83c-3 0-4-2-4-5v1c0-3 2-5 4-5h112c2 0 4 2 4 5 0 2-2 4-4 4zm-66 24c0-2-2-4-4-4H83c-3 0-4 2-4 4s2 4 4 4h42c2 0 4-2 4-4zm141 44c0-3-2-5-4-5H153c-2 1-4 2-4 5 0 2 2 4 4 4h113c2 0 4-2 4-4zM268 358H153c-2 0-4-2-4-5 0-2 2-4 4-4h115c3 0 4 2 4 4 0 3-2 5-4 5z"/><path d="M225 258l-37 38h-3v-3l38-38h2v3z"/><path d="M223 296l-38-38v-3h3l37 38v3h-2z"/><path fill="#E8F4FC" d="M261 309a63 63 0 11-97-81v1c22-27 62-31 89-9 27 23 30 62 8 89z"/><path fill="#1C2955" d="M212 334a65 65 0 01-50-106 65 65 0 11101 83 65 65 0 01-51 23zm1-126h-6a61 61 0 1053 100h-1a61 61 0 00-46-100z"/><path fill="#9DCBED" d="M256 316l11-13 24 19-12 14z"/><path fill="#1C2955" d="M280 339l-27-22 14-17 27 22-14 17zm-21-23l20 17 9-10-21-17-8 10z"/><path fill="#FFE9C5" d="M365 382l-13 16c-3 2-7 3-10 0l-63-52c-2-2-3-6-1-9l14-16c2-3 6-3 9-1l63 52c3 3 3 7 1 10z"/><path fill="#1C2955" d="M347 402l-6-2-63-52-3-6 2-6 13-16c3-4 9-4 12-1l63 52c2 1 3 3 3 6 1 2 0 4-2 6l-13 16c-1 2-3 3-5 3h-1zm-50-81l-4 1-13 16-1 4 2 3 63 52 3 1 3-2 13-16c1-1 2-2 1-3l-1-3-63-52-3-1zM245 241a50 50 0 00-59-11l-2-3c0-1 33-19 63 11l-2 3zM232 270l-33 32h-1v-1l32-33h2v2zm-2 31v-2l-33-32h-2v1l33 33h2z"/><path fill="#A4ADD8" d="M80 51H65V36h15v15zm-13-2h11V38H67v11z"/><path fill="#BAD2EE" d="M279 129a7 7 0 110-14 7 7 0 110 14zm0-12c-3 0-6 2-6 5s3 5 6 5 5-2 5-5-2-5-5-5z"/><path fill="#9E9D9E" d="M354 263l-3-5-5-3 5-3 3-5 3 5 5 3-5 3-3 5zm-3-8l2 1 1 3 2-3 2-1-2-1-2-3-1 3-2 1z"/><path fill="#CED8EE" d="M270 16l-3-5-5-3 5-3 3-5 3 5 5 3-5 3-3 5zm-4-8l2 1 2 2 1-2 2-1-2-1-1-3-2 3-2 1z"/><path fill="#FCDCE5" d="M25 252H8l9-15 8 15zm-13-2h10l-5-9-5 9zM177 69h-2V57h2v12zm5-7h-12v2h12v-2z"/></svg>