<svg xmlns="http://www.w3.org/2000/svg" xmlns:xlink="http://www.w3.org/1999/xlink" id="Capa_1" x="0" y="0" enable-background="new 0 0 750 333" version="1.1" viewBox="0 0 750 333" xml:space="preserve"><defs><path id="reuse-0" d="M489 175.2s-2.3.7-5.4-3.8c0 0-2.3-3.3-5.2-4 0 0-1.4 0-.9-1.5.5-1.4 5.2-5.3 5.2-5.3s.4-.5 1.5.4 2.8 2.3 4.1 5.2l3.4-3.3c2.7-2.8 3.8.5 3.8.5l-6.5 11.8z" class="st139"/></defs><style>.st1{opacity:.7;fill:#e6b8ff}.st2{clip-path:url(#SVGID_2_)}.st3{opacity:.3}.st4{fill:#d65656}.st5{opacity:.2;fill:#00008a}.st41,.st42{opacity:.6;fill:#fff}.st42{opacity:.3}.st65{opacity:.25}.st68{opacity:.2;fill:navy}.st98{opacity:.4;fill:#00001c}.st125{fill:#c1c1c1}.st126{fill:#d5d5d5}.st128{opacity:.15;fill:#231052}.st129{fill:#e2e2e2}.st131{opacity:.1;fill:#231052}.st132{fill:#dcdcdc}.st133{fill:#db2404}.st134{opacity:.1}.st135{fill:#231052}.st136{fill:none;stroke:#db2404;stroke-width:.6264;stroke-miterlimit:10}.st139{fill:#67b7e0}.st140{fill:#0a002b}.st141{fill:#fff}.st142{fill:#cecece}.st143{fill:#61abd1}.st144{fill:#9a0d0d}.st145{fill:#b00081}</style><path fill="#13233c" d="M0 0h750v333H0z"/><g id="estrellas_1"><path d="M555.9 85.2l6-1-6-.9 1.6-2-2.3 1.4-1.1-5.2-1.1 5.2-2.2-1.4 1.5 2-6 .9 6 1-1.5 1.9 2.2-1.3 1.1 5.2 1.1-5.2 2.3 1.3zM684.7 152.6l6-.9-6-1 1.5-1.9-2.2 1.3-1.1-5.2-1.1 5.2-2.3-1.3 1.5 1.9-6 1 6 .9-1.5 2 2.3-1.4 1.1 5.2 1.1-5.2 2.2 1.4zM434.3 218.2l6-1-6-.9 1.5-2-2.2 1.3-1.1-5.2-1.1 5.2-2.3-1.3 1.6 2-6.1.9 6.1 1-1.6 1.9 2.3-1.3 1.1 5.2 1.1-5.2 2.2 1.3zM463 287.9l6-1-6-.9 1.5-2-2.2 1.4-1.1-5.2-1.1 5.2-2.3-1.4 1.6 2-6 .9 6 1-1.6 1.9 2.3-1.3 1.1 5.2 1.1-5.2 2.2 1.3zM390.9 80l6-1-6-.9 1.6-2-2.3 1.4-1.1-5.2-1.1 5.2-2.2-1.4 1.5 2-6 .9 6 1-1.5 2 2.2-1.4 1.1 5.2 1.1-5.2 2.3 1.4zM710 51.4l6-1-6-.9 1.5-2-2.2 1.4-1.1-5.2-1.1 5.2-2.3-1.4 1.6 2-6 .9 6 1-1.6 1.9 2.3-1.3 1.1 5.2 1.1-5.2 2.2 1.3zM425.3-50.7l6-1-6-.9 1.5-2-2.2 1.4-1.1-5.2-1.2 5.2-2.2-1.4 1.5 2-6 .9 6 1-1.5 1.9 2.2-1.3 1.2 5.2 1.1-5.2 2.2 1.3zM196 306.5l6-1-6-.9 1.5-2-2.2 1.4-1.1-5.2-1.1 5.2-2.3-1.4 1.6 2-6 .9 6 1-1.6 2 2.3-1.4 1.1 5.2 1.1-5.2 2.2 1.4zM564 295.3l6-1-6-1 1.5-1.9-2.2 1.3-1.1-5.2-1.1 5.2-2.3-1.3 1.6 1.9-6 1 6 1-1.6 1.9 2.3-1.3 1.1 5.2 1.1-5.2 2.2 1.3z" class="st1"/></g><defs><path id="SVGID_1_" d="M0-100h750v433H0z"/></defs><clipPath id="SVGID_2_"><use overflow="visible" xlink:href="#SVGID_1_"/></clipPath><g class="st2"><path d="M146.3 227A921.5 921.5 0 01466.9 53.2a44 44 0 0118.6-2.9c6.3.8 12.6 5 12.7 10.5.2 4.9-4.1 8.9-8.1 12.3l-36.5 31.1c-8.9 7.6-18.6 18.6-12.9 28.2 3.8 6.4 13.2 8.9 21.3 7.9 8.2-1 15.4-4.9 22.5-8.6 0 0 270.7-118 369.9-134.2a1128.8 1128.8 0 00-289 80.4c-7.4 3.1-19.4 7-27.6 7.4-8.2.4-17.3-2.9-20.4-9.5-4.7-10.1 6.1-20.2 15.8-27.1l39.6-28.1c4.3-3.1 9-6.7 9.4-11.6.4-5.5-5.4-10.2-11.6-11.5A45 45 0 00551.7-1c-123 27.6-290 99.1-396 187.4l-9.4 40.6zM440.4 429.7c1-29.4 210-3.3 177.6-12.1-89.5-24.2-76.3-98-15-149 37-30.7 140.9-82.2 174.5-107.4 8-6 16-13.1 17.2-22.2 1.6-11.4-8.7-22.1-20.9-26.6-21.1-7.8-49.5-4.9-71.7-2.6a670 670 0 00-99.8 19.8A875.5 875.5 0 00459.8 180l-1.2.6a796.6 796.6 0 00-157.9 94 258.4 258.4 0 00-48.4 48.5c97.5-83.3 236.6-149.3 389.2-184.8 11.8-2.7 23.9-5.3 36-5.4 12.1-.1 24.2 2.8 29.6 9.1 6.2 7.1 3.9 18-6 24.3-9.6 6.1-20.2 13-31.7 18.6a1322 1322 0 00-161.6 92.4c-22.5 15.1-44.2 30.9-60.2 48.6-16 17.7-25.9 37.7-23 56.6l15.8 47.2zM58.3 354.3c0-1.4 170.3-99.9 342.3-161.3a928.2 928.2 0 00-278.5 206.8c.1-.1-18.7-14.3-20.4-15.6-6-4.7-43.3-26.8-43.4-29.9z" class="st3"/></g><g id="planeta_rosa_1_" class="st2"><path d="M607 245.4v1.8l-.1 1v.4l-.1.7-.1.7-.1.4v.4a38.3 38.3 0 01-3.8 11.7l-.7 1.3-.6.9c-.8 1.3-1.6 2.5-2.6 3.7l-1.5 1.7a50 50 0 01-8.4 6.9 41.5 41.5 0 01-6 2.9l-1.2.4-1 .3a36.4 36.4 0 01-22.2-.3l-2.3-.9-3.5-1.7-1-.6-.3-.2-.1-.1-.4-.2-1.4-.9h-.1l-.6-.5a41.6 41.6 0 01-7.3-6.8l-.3-.4-1.6-2.2-.1-.1c-.5-.8-1.1-1.6-1.5-2.5l-.4-.8-.2-.3v-.1l-.2-.3c-1.8-3.5-3-7.4-3.5-11.5l-.1-1.3-.1-1.5v-.5-.6-1.1-.6-.3l.1-1.9.1-.8.1-1.1.1-1 .1-.4.2-1.1.1-.7.4-1.7.1-.3.1-.5.4-1.3.9-2.5 1-2.2v-.1l.4-.7.2-.4a38.5 38.5 0 0117.6-16.2h.1c4.5-2 9.4-3 14.6-3h.4a37 37 0 0116.5 4.1l1.8 1h.1l3 2 .4.3.2.2.9.7.5.4.3.3 2.1 2 .3.3.3.3.8.8.6.7 1 1.2.3.4.1.2.2.3.5.7.2.3.3.4.2.4.1.1.9 1.5.1.3.6 1.1.2.5.5 1.1.1.1.2.5.3.8c.6 1.4 1 2.8 1.4 4.2l.3 1.1.1.3.2.8.1.4.1.3.4 2.8.1 1 .1.8V245.4z" class="st4"/><path d="M606.6 250.8c-.5 3.3-1.4 6.5-2.7 9.5l-3.2.7c-6.4 1.3-16.8 3-30.4 3.4-13.2.4-25-.7-32.5-1.7a.8.8 0 01-.2-.4l-.2-.3c-1.8-3.5-3-7.4-3.5-11.5a88.3 88.3 0 0037.5 6.6c14-.8 25.5-3.5 32.6-5.5l2.6-.8zM607 245.4v1.8l-2.3.1c-6.4.2-19.1.6-34.3.5a1693 1693 0 01-36.7-.6v-.6-1.1-.6c7.7.3 22.5.9 36.7.8 14.4 0 27.8-.8 34.5-1.3l2.2-.2v.8l-.1.4z" class="st5"/><linearGradient id="SVGID_3_" x1="558.4" x2="582.3" y1="231.1" y2="266.7" gradientUnits="userSpaceOnUse"><stop offset="0" stop-color="#fff"/><stop offset="1" stop-color="#fff"/></linearGradient><path fill="url(#SVGID_3_)" d="M606.9 248.6l-.1.7-.1.7-.1.4-2.5.6c-6.1 1.3-19.6 3.5-36.3 3.1-19.5-.4-31-3.9-34-4.9l-.1-1.5c3.9.5 15.7 1.8 36.4 1.9 18.2.2 29.4-.4 34.4-.8l2.4-.2z" opacity=".2"/><linearGradient id="SVGID_4_" x1="562.4" x2="579.9" y1="257" y2="283.1" gradientUnits="userSpaceOnUse"><stop offset="0" stop-color="#fff"/><stop offset="1" stop-color="#fff"/></linearGradient><path fill="url(#SVGID_4_)" d="M597.6 270.1a50 50 0 01-4.1 3.9h-.1l-3.6-.3c-5.1-.3-11.3-.3-16.5 1-10.5 2.7-31.1-.2-28-6 2.4-4.6 22.4.4 32.7 1.7 4.7.6 10.6.4 15.6 0l4-.3z" opacity=".2"/><path d="M547.6 270c-2.3 3.1 20.4 4.5 22.4 2.7 1.9-1.9-18.5-7.9-22.4-2.7z" class="st5"/><linearGradient id="SVGID_5_" x1="561.4" x2="580.9" y1="251.5" y2="280.5" gradientUnits="userSpaceOnUse"><stop offset="0" stop-color="#fff"/><stop offset="1" stop-color="#fff"/></linearGradient><path fill="url(#SVGID_5_)" d="M601.6 264.7c-.8 1.3-1.6 2.5-2.6 3.7h-.1l-3.6.3c-9.8.6-18.9-1.2-33.1-2.2-9.9-.7-16.7.5-20.8 1.8l-1.6-2.2-.1-.1c13.3-2.1 29.1.4 44 1.1 4.8.2 9.7-.4 14.1-1.4l3.8-1z" opacity=".2"/><linearGradient id="SVGID_6_" x1="562.6" x2="575.7" y1="266.5" y2="286.1" gradientUnits="userSpaceOnUse"><stop offset="0" stop-color="#fff"/><stop offset="1" stop-color="#fff"/></linearGradient><path fill="url(#SVGID_6_)" d="M589.2 277a41.5 41.5 0 01-6 2.9l-1.2.4-1 .3h-.2l-6.8-.3c-3-.2-6.2-.4-9.6-.8-4.9-.6-8.9-1.4-12-2.2l-.7-.2-.2-.1-.4-.2-1.4-.9h-.1l-.6-.5c4 1.1 10.3 2.3 19.1 2.4 6.1.1 11.2-.1 15.1-.3l5.8-.5c.1.1.2 0 .2 0z" opacity=".2"/><linearGradient id="SVGID_7_" x1="558.1" x2="579" y1="209.6" y2="240.8" gradientUnits="userSpaceOnUse"><stop offset="0" stop-color="#fff"/><stop offset="1" stop-color="#fff"/></linearGradient><path fill="url(#SVGID_7_)" d="M601.4 225.9l-1.3.1c-6.5.5-23.5 1.7-39.7 2.4a132 132 0 01-22.3-.4c2.3-4.2 5.4-7.9 9.1-11 5.1-.2 11.8.1 20.3 1.6 13.6 2.4 23.4 2.2 28.7 1.7l.9-.1h.1l.7.8.6.7 1.1 1.2h-.1l-1.1.1c-3.8.1-9.5.1-17.5-.5-16.5-1.2-21.6-2.9-28.4-1.4-6.8 1.4-10 5.6-10 5.6s2.8 1.1 21.8.6c14.7-.4 29.3-1.9 35.2-2.5l1.2-.1.1.2.3.4.3.6z" opacity=".2"/><linearGradient id="SVGID_8_" x1="560" x2="574.3" y1="240.3" y2="261.7" gradientUnits="userSpaceOnUse"><stop offset="0" stop-color="#fff"/><stop offset="1" stop-color="#fff"/></linearGradient><path fill="url(#SVGID_8_)" d="M545.1 250.3s13.2.4 24.1.5c10.9.2 20 .9 20 .9s-9.3 2.6-22.8 1.7c-13.5-.9-21.3-3.1-21.3-3.1z" opacity=".2"/><linearGradient id="SVGID_9_" x1="557.6" x2="567.3" y1="264.8" y2="279.3" gradientUnits="userSpaceOnUse"><stop offset="0" stop-color="#fff"/><stop offset="1" stop-color="#fff"/></linearGradient><path fill="url(#SVGID_9_)" d="M547.4 271.6s2.8 1.7 10.1 2.5 20.1-1.7 20.1-1.7-10.1 3.4-19.9 2.7c-7.4-.6-10.3-3.5-10.3-3.5z" opacity=".2"/><linearGradient id="SVGID_10_" x1="570.2" x2="588" y1="228.6" y2="255.2" gradientUnits="userSpaceOnUse"><stop offset="0" stop-color="#fff"/><stop offset="1" stop-color="#fff"/></linearGradient><path fill="url(#SVGID_10_)" d="M606.9 242.5l-2.1.2c-3.9.3-10.3.7-19.5.8-17.5.4-35.8-.9-35.3-1.3s16.5.1 32.9-.8c10.1-.5 17.4-1.6 21.5-2.4l1.9-.4.4 2.8.2 1.1z" opacity=".2"/><linearGradient id="SVGID_11_" x1="557.3" x2="579.4" y1="220.6" y2="253.5" gradientUnits="userSpaceOnUse"><stop offset="0" stop-color="#fff"/><stop offset="1" stop-color="#fff"/></linearGradient><path fill="url(#SVGID_11_)" d="M605.7 235.9c-2.3.3-7.4.5-18.6.5-21.5-.1-39.6 0-44.4 2.3-4.8 2.2 1.4 5 8.9 5.6 7.5.6 31.1 1.2 31.1 1.2s-38.2.1-49.1-.9l.1-1.9.1-.8.1-1.1.1-1 .1-.4.2-1.1.1-.7.4-1.7.1-.3c6.5-.6 20.6-1.7 33.4-1.5 13.5.2 29.5-2.1 35.7-3.2l.3.8c.6 1.3 1 2.7 1.4 4.2z" opacity=".2"/><path d="M603.7 230.3c-5.9.9-22.8 3.3-38.1 3.2-12.4-.1-23.8.2-30.1.4l.9-2.5 1-2.2c5.4.2 18.6.5 32-.1 12.9-.5 26-2.4 31.8-3.3l.1.1.9 1.5.1.3c-6 .7-21.3 2.3-31.5 2.8-12.9.6-20.8.6-21.4 1-.5.4 9.9 1.4 26.6.5 12.2-.6 22.4-2 27-2.8.4.3.5.7.7 1.1z" class="st5"/><linearGradient id="SVGID_12_" x1="568.8" x2="570" y1="268.1" y2="269.9" gradientUnits="userSpaceOnUse"><stop offset="0" stop-color="#fff"/><stop offset="1" stop-color="#fff"/></linearGradient><path fill="url(#SVGID_12_)" d="M570.4 269c0 .6-.5 1.1-1.1 1.1-.6 0-1.1-.5-1.1-1.1 0-.6.5-1.1 1.1-1.1.7.1 1.1.5 1.1 1.1z" opacity=".2"/><linearGradient id="SVGID_13_" x1="576.7" x2="577.9" y1="239.2" y2="240.9" gradientUnits="userSpaceOnUse"><stop offset="0" stop-color="#fff"/><stop offset="1" stop-color="#fff"/></linearGradient><path fill="url(#SVGID_13_)" d="M578.4 240.1c0 .6-.5 1.1-1.1 1.1-.6 0-1.1-.5-1.1-1.1 0-.6.5-1.1 1.1-1.1.6 0 1.1.5 1.1 1.1z" opacity=".2"/><linearGradient id="SVGID_14_" x1="593.2" x2="594.4" y1="237.8" y2="239.5" gradientUnits="userSpaceOnUse"><stop offset="0" stop-color="#fff"/><stop offset="1" stop-color="#fff"/></linearGradient><path fill="url(#SVGID_14_)" d="M594.9 238.6c0 .6-.5 1.1-1.1 1.1-.6 0-1.1-.5-1.1-1.1 0-.6.5-1.1 1.1-1.1.6.1 1.1.6 1.1 1.1z" opacity=".2"/><linearGradient id="SVGID_15_" x1="442.3" x2="442.9" y1="93" y2="93.9" gradientTransform="rotate(-45 708.5 8.8)" gradientUnits="userSpaceOnUse"><stop offset="0" stop-color="#fff"/><stop offset="1" stop-color="#fff"/></linearGradient><path fill="url(#SVGID_15_)" d="M580.7 256.3c.2.2.2.5 0 .8-.2.2-.5.2-.8 0-.2-.2-.2-.5 0-.8s.6-.2.8 0z" opacity=".2"/><linearGradient id="SVGID_16_" x1="599.2" x2="600.3" y1="256.9" y2="258.7" gradientUnits="userSpaceOnUse"><stop offset="0" stop-color="#fff"/><stop offset="1" stop-color="#fff"/></linearGradient><path fill="url(#SVGID_16_)" d="M600.8 257.8c0 .6-.5 1.1-1.1 1.1s-1.1-.5-1.1-1.1c0-.6.5-1.1 1.1-1.1s1.1.5 1.1 1.1z" opacity=".2"/><linearGradient id="SVGID_17_" x1="569.4" x2="570.6" y1="275.4" y2="277.1" gradientUnits="userSpaceOnUse"><stop offset="0" stop-color="#fff"/><stop offset="1" stop-color="#fff"/></linearGradient><path fill="url(#SVGID_17_)" d="M571.1 276.2c0 .6-.5 1.1-1.1 1.1s-1.1-.5-1.1-1.1c0-.6.5-1.1 1.1-1.1s1.1.6 1.1 1.1z" opacity=".2"/><linearGradient id="SVGID_18_" x1="539.2" x2="540.4" y1="242.3" y2="244.1" gradientUnits="userSpaceOnUse"><stop offset="0" stop-color="#fff"/><stop offset="1" stop-color="#fff"/></linearGradient><path fill="url(#SVGID_18_)" d="M540.9 243.2c0 .6-.5 1.1-1.1 1.1-.6 0-1.1-.5-1.1-1.1 0-.6.5-1.1 1.1-1.1.6 0 1.1.5 1.1 1.1z" opacity=".2"/><linearGradient id="SVGID_19_" x1="554.6" x2="555.8" y1="259" y2="260.8" gradientUnits="userSpaceOnUse"><stop offset="0" stop-color="#fff"/><stop offset="1" stop-color="#fff"/></linearGradient><path fill="url(#SVGID_19_)" d="M556.2 259.9c0 .6-.5 1.1-1.1 1.1-.6 0-1.1-.5-1.1-1.1 0-.6.5-1.1 1.1-1.1.7.1 1.1.5 1.1 1.1z" opacity=".2"/><linearGradient id="SVGID_20_" x1="585.3" x2="586.5" y1="262.1" y2="263.9" gradientUnits="userSpaceOnUse"><stop offset="0" stop-color="#fff"/><stop offset="1" stop-color="#fff"/></linearGradient><circle cx="585.9" cy="263" r="1.1" fill="url(#SVGID_20_)" opacity=".2"/><linearGradient id="SVGID_21_" x1="583.5" x2="585.7" y1="221.8" y2="225.1" gradientUnits="userSpaceOnUse"><stop offset="0" stop-color="#fff"/><stop offset="1" stop-color="#fff"/></linearGradient><path fill="url(#SVGID_21_)" d="M586.6 223.5c0 1.1-.9 2-1.9 2-1.1 0-1.9-.9-1.9-2s.9-2 1.9-2c1 0 1.9.9 1.9 2z" opacity=".2"/><linearGradient id="SVGID_22_" x1="577.4" x2="579.6" y1="211.8" y2="215" gradientUnits="userSpaceOnUse"><stop offset="0" stop-color="#fff"/><stop offset="1" stop-color="#fff"/></linearGradient><path fill="url(#SVGID_22_)" d="M580.4 213.4c0 1.1-.9 2-1.9 2-1.1 0-1.9-.9-1.9-2s.9-2 1.9-2c1 0 1.9.9 1.9 2z" opacity=".2"/><linearGradient id="SVGID_23_" x1="541.8" x2="543" y1="257.7" y2="259.4" gradientUnits="userSpaceOnUse"><stop offset="0" stop-color="#fff"/><stop offset="1" stop-color="#fff"/></linearGradient><path fill="url(#SVGID_23_)" d="M543.4 258.5c0 .6-.5 1.1-1.1 1.1-.6 0-1.1-.5-1.1-1.1 0-.6.5-1.1 1.1-1.1.7.1 1.1.5 1.1 1.1z" opacity=".2"/><linearGradient id="SVGID_24_" x1="586.4" x2="587.6" y1="237.8" y2="239.5" gradientUnits="userSpaceOnUse"><stop offset="0" stop-color="#fff"/><stop offset="1" stop-color="#fff"/></linearGradient><circle cx="587" cy="238.6" r="1.1" fill="url(#SVGID_24_)" opacity=".2"/><linearGradient id="SVGID_25_" x1="580.8" x2="582" y1="273.2" y2="275" gradientUnits="userSpaceOnUse"><stop offset="0" stop-color="#fff"/><stop offset="1" stop-color="#fff"/></linearGradient><path fill="url(#SVGID_25_)" d="M582.4 274.1c0 .6-.5 1.1-1.1 1.1-.6 0-1.1-.5-1.1-1.1 0-.6.5-1.1 1.1-1.1.7 0 1.1.5 1.1 1.1z" opacity=".2"/><linearGradient id="SVGID_26_" x1="549.2" x2="549.7" y1="254.9" y2="255.7" gradientUnits="userSpaceOnUse"><stop offset="0" stop-color="#fff"/><stop offset="1" stop-color="#fff"/></linearGradient><path fill="url(#SVGID_26_)" d="M549.9 255.3c0 .2-.2.4-.4.4a.4.4 0 01-.4-.4c0-.2.2-.4.4-.4s.4.2.4.4z" opacity=".2"/><linearGradient id="SVGID_27_" x1="562.2" x2="562.7" y1="245.7" y2="246.4" gradientUnits="userSpaceOnUse"><stop offset="0" stop-color="#fff"/><stop offset="1" stop-color="#fff"/></linearGradient><path fill="url(#SVGID_27_)" d="M562.9 246c0 .2-.2.4-.4.4a.4.4 0 01-.4-.4c0-.2.2-.4.4-.4s.4.2.4.4z" opacity=".2"/><linearGradient id="SVGID_28_" x1="592.8" x2="593.8" y1="220.8" y2="222.2" gradientUnits="userSpaceOnUse"><stop offset="0" stop-color="#fff"/><stop offset="1" stop-color="#fff"/></linearGradient><path fill="url(#SVGID_28_)" d="M594.2 221.5c0 .5-.4.9-.9.9a.9.9 0 01-.9-.9c0-.5.4-.9.9-.9s.9.4.9.9z" opacity=".2"/><linearGradient id="SVGID_29_" x1="588.2" x2="588.4" y1="248.6" y2="248.9" gradientUnits="userSpaceOnUse"><stop offset="0" stop-color="#fff"/><stop offset="1" stop-color="#fff"/></linearGradient><circle cx="588.3" cy="248.8" r=".2" fill="url(#SVGID_29_)"/><linearGradient id="SVGID_30_" x1="571.3" x2="571.8" y1="264.1" y2="264.8" gradientUnits="userSpaceOnUse"><stop offset="0" stop-color="#fff"/><stop offset="1" stop-color="#fff"/></linearGradient><path fill="url(#SVGID_30_)" d="M571.9 264.5c0 .2-.2.4-.4.4a.4.4 0 01-.4-.4c0-.2.2-.4.4-.4.3-.1.4.1.4.4z" opacity=".2"/><linearGradient id="SVGID_31_" x1="562.4" x2="562.9" y1="274.8" y2="275.5" gradientUnits="userSpaceOnUse"><stop offset="0" stop-color="#fff"/><stop offset="1" stop-color="#fff"/></linearGradient><circle cx="562.7" cy="275.2" r=".4" fill="url(#SVGID_31_)" opacity=".2"/><linearGradient id="SVGID_32_" x1="566.5" x2="567" y1="275.9" y2="276.6" gradientUnits="userSpaceOnUse"><stop offset="0" stop-color="#fff"/><stop offset="1" stop-color="#fff"/></linearGradient><path fill="url(#SVGID_32_)" d="M567.2 276.2c0 .2-.2.4-.4.4a.4.4 0 01-.4-.4c0-.2.2-.4.4-.4s.4.2.4.4z" opacity=".2"/><linearGradient id="SVGID_33_" x1="562" x2="562.5" y1="266.4" y2="267.1" gradientUnits="userSpaceOnUse"><stop offset="0" stop-color="#fff"/><stop offset="1" stop-color="#fff"/></linearGradient><path fill="url(#SVGID_33_)" d="M562.7 266.8c0 .2-.2.4-.4.4s-.4-.2-.4-.4.2-.4.4-.4.4.1.4.4z" opacity=".2"/><linearGradient id="SVGID_34_" x1="545.5" x2="545.9" y1="267.6" y2="268.3" gradientUnits="userSpaceOnUse"><stop offset="0" stop-color="#fff"/><stop offset="1" stop-color="#fff"/></linearGradient><path fill="url(#SVGID_34_)" d="M546.1 268c0 .2-.2.4-.4.4a.4.4 0 01-.4-.4c0-.2.2-.4.4-.4.2-.1.4.1.4.4z" opacity=".2"/><path fill="#150b5b" d="M607 245.4v1.8l-.1 1v.4l-.1.7-.1.7-.1.4v.4a38.3 38.3 0 01-3.8 11.7l-.7 1.3-.6.9c-.8 1.3-1.6 2.5-2.6 3.7l-1.5 1.7a50 50 0 01-8.4 6.9 41.5 41.5 0 01-6 2.9l-1.2.4-1 .3a36.4 36.4 0 01-22.2-.3l-2.3-.9-3.5-1.7-1-.6-.3-.2-.1-.1-.4-.2-1.4-.9h-.1l-.6-.5a41.6 41.6 0 01-7.3-6.8l-.3-.4-1.6-2.2-.1-.1c-.5-.8-1.1-1.6-1.5-2.5l-.4-.8-.2-.3c10.1.8 25.5.2 42.1-6.7a65.9 65.9 0 0026.3-18.4l.2.8.1.4.1.3.4 2.8.1 1 .1.8V244.8l.1.6z" opacity=".6"/></g><g id="cohete"><linearGradient id="SVGID_35_" x1="407" x2="468.3" y1="51.6" y2="51.6" gradientTransform="rotate(-22.5 459.6 123.3)" gradientUnits="userSpaceOnUse"><stop offset="0" stop-color="#fff" stop-opacity="0"/><stop offset="1" stop-color="#fff" stop-opacity=".8"/></linearGradient><path fill="url(#SVGID_35_)" d="M398 112a83.8 83.8 0 01-.1-49.1 97 97 0 0125.5-43.1l5 5.4a91.9 91.9 0 00-31.7 62.5c-.6 8.1 0 16.3 1.9 24.2l-.6.1z"/><path d="M429 27.8c-.2 2.1-1 4-2.2 5.4 4.2-.1 7.4-3.1 8.1-7.5 5.4-2.5 10-7.1 12-12.5.1-.4 0-.7-.4-.9-5.5-1.8-12-1.1-17.3 1.3-3.7-2-8.2-1.6-10.9 1.6 1.9 0 3.8.5 5.6 1.7m.1.1l-1.7 1.5c-.2.2-.3.5-.1.8l4.1 8.6c.1.2.3.3.6.2.7 0 1.5-.2 2.1-.4L424 17zm9.9-1.1c1.4-.7 2.9-.1 3.6 1.3.7 1.4.1 2.9-1.3 3.6-1.4.7-2.9.1-3.6-1.3-.6-1.4 0-2.9 1.3-3.6z" class="st4"/><linearGradient id="SVGID_36_" x1="477.8" x2="500" y1="16.8" y2="16.8" gradientTransform="rotate(-22.5 459.6 123.3)" gradientUnits="userSpaceOnUse"><stop offset="0" stop-color="#fff" stop-opacity="0"/><stop offset="1" stop-color="#fff"/></linearGradient><path fill="url(#SVGID_36_)" d="M426.3 17.1s9.2-6.6 18.1-3.7c0 0-2.2 8.7-14.4 11.6l-3.7-7.9z"/><path d="M417.1 21.3c.3.8-.1 1.7-1 2-.8.3-1.7-.1-2-1-.3-.8.1-1.7 1-2 .8-.2 1.7.2 2 1z" class="st41"/><path d="M412.1 27c.1.4-.1.9-.5 1-.4.1-.9-.1-1-.5-.1-.4.1-.9.5-1 .4-.1.8.1 1 .5zM420 37.2c.1.4-.1.9-.5 1-.4.1-.9-.1-1-.5-.1-.4.1-.9.5-1 .4-.1.9.1 1 .5z" class="st42"/><path d="M425.2 34.3c.3.8-.1 1.7-1 2-.8.3-1.7-.1-2-1-.3-.8.1-1.7 1-2 .8-.2 1.7.2 2 1z" class="st41"/></g><defs><filter id="Adobe_OpacityMaskFilter" width="6.5" height="6.5" x="316.8" y="302.3" filterUnits="userSpaceOnUse"><feColorMatrix values="1 0 0 0 0 0 1 0 0 0 0 0 1 0 0 0 0 0 1 0"/></filter></defs><mask id="SVGID_37_" width="6.5" height="6.5" x="316.8" y="302.3" maskUnits="userSpaceOnUse"><g filter="url(#Adobe_OpacityMaskFilter)"><defs><filter id="Adobe_OpacityMaskFilter_1_" width="6.5" height="6.5" x="316.8" y="302.3" filterUnits="userSpaceOnUse"><feFlood flood-color="#fff" flood-opacity="1" result="back"/><feBlend in="SourceGraphic" in2="back"/></filter></defs><radialGradient id="SVGID_38_" cx="256.7" cy="301.3" r="4.1" gradientTransform="translate(102.7 50.7) scale(.8465)" gradientUnits="userSpaceOnUse"><stop offset="0" stop-color="#fff"/><stop offset=".8"/></radialGradient><path fill="url(#SVGID_38_)" d="M323.3 305.5c0 1.8-1.5 3.3-3.3 3.3a3.3 3.3 0 01-3.3-3.3c0-1.8 1.5-3.3 3.3-3.3 1.9.1 3.3 1.5 3.3 3.3z" mask="url(#SVGID_37_)"/></g></mask><defs><filter id="Adobe_OpacityMaskFilter_2_" width="6.5" height="6.5" x="316.8" y="302.3" filterUnits="userSpaceOnUse"><feFlood flood-color="#fff" flood-opacity="1" result="back"/><feBlend in="SourceGraphic" in2="back"/></filter></defs><mask id="SVGID_39_" width="6.5" height="6.5" x="316.8" y="302.3" maskUnits="userSpaceOnUse"><g filter="url(#Adobe_OpacityMaskFilter_2_)"><defs><filter id="Adobe_OpacityMaskFilter_3_" width="6.5" height="6.5" x="316.8" y="302.3" filterUnits="userSpaceOnUse"><feFlood flood-color="#fff" flood-opacity="1" result="back"/><feBlend in="SourceGraphic" in2="back"/></filter></defs><radialGradient id="SVGID_40_" cx="256.7" cy="301.1" r="4" gradientTransform="translate(102.7 50.7) scale(.8465)" gradientUnits="userSpaceOnUse"><stop offset="0" stop-color="#fff"/><stop offset="1"/></radialGradient><path fill="url(#SVGID_40_)" d="M323.3 305c.4 2.2-1.5 4.1-3.8 3.8a3.4 3.4 0 01-2.7-2.7c-.4-2.2 1.5-4.1 3.8-3.8 1.4.2 2.4 1.3 2.7 2.7z" mask="url(#SVGID_39_)"/></g></mask><radialGradient id="SVGID_41_" cx="256.7" cy="301.1" r="4" gradientTransform="translate(102.7 50.7) scale(.8465)" gradientUnits="userSpaceOnUse"><stop offset="0" stop-color="#fff"/><stop offset="1"/></radialGradient><path fill="url(#SVGID_41_)" d="M323.3 305c.4 2.2-1.5 4.1-3.8 3.8a3.4 3.4 0 01-2.7-2.7c-.4-2.2 1.5-4.1 3.8-3.8 1.4.2 2.4 1.3 2.7 2.7z"/><defs><filter id="Adobe_OpacityMaskFilter_4_" width="3" height="3" x="314.4" y="302.3" filterUnits="userSpaceOnUse"><feColorMatrix values="1 0 0 0 0 0 1 0 0 0 0 0 1 0 0 0 0 0 1 0"/></filter></defs><mask id="SVGID_42_" width="3" height="3" x="314.4" y="302.3" maskUnits="userSpaceOnUse"><g filter="url(#Adobe_OpacityMaskFilter_4_)"><defs><filter id="Adobe_OpacityMaskFilter_5_" width="3" height="3" x="314.4" y="302.3" filterUnits="userSpaceOnUse"><feFlood flood-color="#fff" flood-opacity="1" result="back"/><feBlend in="SourceGraphic" in2="back"/></filter></defs><radialGradient id="SVGID_43_" cx="251.8" cy="299.1" r="1.9" gradientTransform="translate(102.7 50.7) scale(.8465)" gradientUnits="userSpaceOnUse"><stop offset="0" stop-color="#fff"/><stop offset=".8"/></radialGradient><path fill="url(#SVGID_43_)" d="M317.4 303.8c0 .8-.7 1.5-1.5 1.5s-1.5-.7-1.5-1.5.7-1.5 1.5-1.5 1.5.7 1.5 1.5z" mask="url(#SVGID_42_)"/></g></mask><defs><filter id="Adobe_OpacityMaskFilter_6_" width="3" height="3" x="314.4" y="302.3" filterUnits="userSpaceOnUse"><feFlood flood-color="#fff" flood-opacity="1" result="back"/><feBlend in="SourceGraphic" in2="back"/></filter></defs><mask id="SVGID_44_" width="3" height="3" x="314.4" y="302.3" maskUnits="userSpaceOnUse"><g filter="url(#Adobe_OpacityMaskFilter_6_)"><defs><filter id="Adobe_OpacityMaskFilter_7_" width="3" height="3" x="314.4" y="302.3" filterUnits="userSpaceOnUse"><feFlood flood-color="#fff" flood-opacity="1" result="back"/><feBlend in="SourceGraphic" in2="back"/></filter></defs><radialGradient id="SVGID_45_" cx="251.8" cy="299.1" r="1.9" gradientTransform="translate(102.7 50.7) scale(.8465)" gradientUnits="userSpaceOnUse"><stop offset="0" stop-color="#fff"/><stop offset="1"/></radialGradient><path fill="url(#SVGID_45_)" d="M317 302.7c1.2 1.6-.6 3.4-2.2 2.2-1.2-1.6.6-3.4 2.2-2.2z" mask="url(#SVGID_44_)"/></g></mask><radialGradient id="SVGID_46_" cx="251.8" cy="299.1" r="1.9" gradientTransform="translate(102.7 50.7) scale(.8465)" gradientUnits="userSpaceOnUse"><stop offset="0" stop-color="#fff"/><stop offset="1"/></radialGradient><path fill="url(#SVGID_46_)" d="M317 302.7c1.2 1.6-.6 3.4-2.2 2.2-1.2-1.6.6-3.4 2.2-2.2z"/><defs><filter id="Adobe_OpacityMaskFilter_8_" width=".8" height=".7" x="328.1" y="305.1" filterUnits="userSpaceOnUse"><feColorMatrix values="1 0 0 0 0 0 1 0 0 0 0 0 1 0 0 0 0 0 1 0"/></filter></defs><mask id="SVGID_47_" width=".8" height=".7" x="328.1" y="305.1" maskUnits="userSpaceOnUse"><g filter="url(#Adobe_OpacityMaskFilter_8_)"><defs><filter id="Adobe_OpacityMaskFilter_9_" width=".8" height=".7" x="328.1" y="305.1" filterUnits="userSpaceOnUse"><feFlood flood-color="#fff" flood-opacity="1" result="back"/><feBlend in="SourceGraphic" in2="back"/></filter></defs><radialGradient id="SVGID_48_" cx="463.3" cy="271.8" r=".4" gradientTransform="matrix(-1.123 0 0 1.0521 848.8 19.6)" gradientUnits="userSpaceOnUse"><stop offset="0" stop-color="#fff"/><stop offset=".8"/></radialGradient><path fill="url(#SVGID_48_)" d="M328.1 305.5c0 .2.2.4.4.4s.4-.2.4-.4-.2-.4-.4-.4c-.3 0-.4.2-.4.4z" mask="url(#SVGID_47_)"/></g></mask><defs><filter id="Adobe_OpacityMaskFilter_10_" width=".8" height=".7" x="328.1" y="305.1" filterUnits="userSpaceOnUse"><feFlood flood-color="#fff" flood-opacity="1" result="back"/><feBlend in="SourceGraphic" in2="back"/></filter></defs><mask id="SVGID_49_" width=".8" height=".7" x="328.1" y="305.1" maskUnits="userSpaceOnUse"><g filter="url(#Adobe_OpacityMaskFilter_10_)"><defs><filter id="Adobe_OpacityMaskFilter_11_" width=".8" height=".7" x="328.1" y="305.1" filterUnits="userSpaceOnUse"><feFlood flood-color="#fff" flood-opacity="1" result="back"/><feBlend in="SourceGraphic" in2="back"/></filter></defs><radialGradient id="SVGID_50_" cx="463.3" cy="271.8" r=".4" gradientTransform="matrix(-1.123 0 0 1.0521 848.8 19.6)" gradientUnits="userSpaceOnUse"><stop offset="0" stop-color="#fff"/><stop offset="1"/></radialGradient><path fill="url(#SVGID_50_)" d="M328.2 305.2c-.3.4.2.9.6.5.3-.3-.2-.8-.6-.5z" mask="url(#SVGID_49_)"/></g></mask><radialGradient id="SVGID_51_" cx="463.3" cy="271.8" r=".4" gradientTransform="matrix(-1.123 0 0 1.0521 848.8 19.6)" gradientUnits="userSpaceOnUse"><stop offset="0" stop-color="#fff"/><stop offset="1"/></radialGradient><path fill="url(#SVGID_51_)" d="M328.2 305.2c-.3.4.2.9.6.5.3-.3-.2-.8-.6-.5z"/><path d="M334.2 309.6v2l-.2 1.2a9 9 0 01-.8 2.3l-.4.8-.3.5-.2.4-1 1.4-.5.6-.1.1a8 8 0 01-1.3 1.3l-.3.2-1.6 1.1-2.3 1.1-.4.2-.4.1-.3.1c-1.2.3-2.5.5-3.8.5-.9 0-1.9-.1-2.7-.3l-1.7-.4-.9-.3-.6-.3-.7-.4-.4-.2-.1-.1h-.1l-.1-.1-.5-.3-.2-.2-1.5-1.2-1.3-1.4-.1-.1-.6-.8-.6-1-.2-.3-.1-.1-.1-.1v-.1l-.2-.5-.3-.7c-.4-1-.6-2-.8-3.1l-.1-.5v-.6-.2-.2-.4-.2-.1-.7-.3-.4l.1-.4v-.2l.1-.4.1-.2.2-.7v-.1-.2l.2-.5.3-.9v-.1l.4-.8.1-.3.1-.1 1.6-2.3 1.4-1.5.5-.4 1.1-.8a14.6 14.6 0 017.7-2.3h.2c2.1 0 4.1.5 5.9 1.4l.4.2.7.4 1.1.7.2.1.1.1.3.3.2.1.1.1.8.7.1.1.1.1.3.3.2.3.4.5.1.2.1.1.1.1.2.3.1.1.1.2.1.1.3.6.1.1.1.2.1.2.1.2v.1l.2.4.1.2.1.3.4 1.2.1.4.1.4v.1l.1.3V307.2l.1 1v1.3l.1.1z" class="st4"/><linearGradient id="SVGID_52_" x1="313.9" x2="326.1" y1="299.9" y2="318.1" gradientUnits="userSpaceOnUse"><stop offset="0" stop-color="#fff"/><stop offset="1" stop-color="#fff"/></linearGradient><path fill="url(#SVGID_52_)" d="M334.2 309.4v-.3-.3-.3-.4l-.1-1a29 29 0 00-7 .4c-4.6.8-7 3.4-12.2 3.8-5.3.4-6.7-2.6-5.3-3.8 1.4-1.1 8-2 14.8-2.1 4.6-.1 7.8.1 9.4.2l-.4-1.2-.1-.3-.1-.2-.2-.4-.1-.2-.1-.2c-2.6.6-7.7 1.5-14 1.5-5.4 0-9.1-.1-11.3-.3l-.3.9-.2.5V306l-.2.7-.1.2-.1.4v.2l-.1.4V311l.1.5c.1 1.1.4 2.1.8 3.1a343 343 0 0117.2-2c3.2-.3 7.1 0 9.5.3l.2-1.2v-.1-.1-.3-.2-.2-.4-.3-.4l-.1-.3zM309 305c.4 0 .7.3.7.7 0 .4-.3.7-.7.7a.7.7 0 01-.7-.7c.1-.4.4-.7.7-.7zm-.2 7.9a.9.9 0 01-.9-.9c0-.5.4-.9.9-.9s.9.4.9.9-.4.9-.9.9zm16.3-2.6a.7.7 0 01-.7-.7c0-.4.3-.7.7-.7.4 0 .7.3.7.7-.1.4-.4.7-.7.7zm1.4 1.6c-.2 0-.3-.2-.3-.3 0-.2.2-.3.3-.3.2 0 .3.2.3.3 0 .2-.1.3-.3.3z" opacity=".1"/><g class="st65"><linearGradient id="SVGID_53_" x1="316.5" x2="325.3" y1="309.9" y2="323" gradientUnits="userSpaceOnUse"><stop offset="0" stop-color="#fff"/><stop offset="1" stop-color="#fff"/></linearGradient><path fill="url(#SVGID_53_)" d="M320.5 316.7a79 79 0 01-12.9-1v.1l.1.1.1.1.2.3.6 1 .6.8.1.1 1.3 1.4 1.5 1.2.2.2.5.3.1.1h.1l.1.1.4.2.7.4c3-.2 5.7-.3 6.4-.1.9.2-.9.7-3.2 1.2l2.7.3c1.3 0 2.6-.2 3.8-.5l.3-.1.4-.1.4-.2 2.3-1.1a9 9 0 001.6-1.1l.3-.2-3.3.3a34 34 0 01-11.9-.7c.2-.6 4.7-1.4 10.3-1.3l6.3.3.5-.6 1-1.4.2-.4.3-.5.4-.8c-2.2.7-6.8 1.7-12.5 1.6zm-7.8 1.9c-1.3 0-2.4-.3-2.4-.7 0-.4 1.1-.7 2.4-.7 1.3 0 2.4.3 2.4.7 0 .4-1.1.7-2.4.7z"/></g><linearGradient id="SVGID_54_" x1="316.5" x2="323" y1="295.2" y2="304.8" gradientUnits="userSpaceOnUse"><stop offset="0" stop-color="#fff"/><stop offset="1" stop-color="#fff"/></linearGradient><path fill="url(#SVGID_54_)" d="M330.3 299.9a36 36 0 01-10.1 1.4c-4.3-.1-8.3-.4-10.7-.7l1.4-1.5c2.4.5 5.1 1.1 7.4 1.1 4.9.2 9.9-1.1 9-1.7-.9-.6-4.5.2-9.2 0-2.1-.1-4.1-.4-5.7-.6.7-.5 1.4-.9 2.2-1.2 1.8.3 4.2.4 7.3.4l4.3-.1.4.2.7.4 1.1.7.2.1.1.1.3.3.2.1.1.1.8.7.2.2z" opacity=".1"/><path d="M334.2 309.6v2l-.2 1.2a9 9 0 01-.8 2.3l-.4.8-.3.5-.2.4-1 1.4-.5.6-.1.1a8 8 0 01-1.3 1.3l-.3.2-1.6 1.1-2.3 1.1-.4.2-.4.1-.3.1c-1.2.3-2.5.5-3.8.5-.9 0-1.9-.1-2.7-.3l-1.7-.4-.9-.3-.6-.3-.7-.4-.4-.2-.1-.1h-.1l-.1-.1-.5-.3-.2-.2-1.5-1.2-1.3-1.4-.1-.1-.6-.8-.6-1-.2-.3-.1-.1-.1-.1v-.1l-.2-.5c3.4.1 9.5-.3 15.5-3.3 5.5-2.7 8.4-6.1 9.9-8.5l.2.4.1.2.1.3.4 1.2.1.4.1.4v.1l.1.3V307.1l.1 1v1.5z" class="st68"/><g><defs><filter id="Adobe_OpacityMaskFilter_12_" width="4.7" height="4.7" x="131.4" y="274.9" filterUnits="userSpaceOnUse"><feColorMatrix values="1 0 0 0 0 0 1 0 0 0 0 0 1 0 0 0 0 0 1 0"/></filter></defs><mask id="SVGID_55_" width="4.7" height="4.7" x="131.4" y="274.9" maskUnits="userSpaceOnUse"><g filter="url(#Adobe_OpacityMaskFilter_12_)"><defs><filter id="Adobe_OpacityMaskFilter_13_" width="4.7" height="4.7" x="131.4" y="274.9" filterUnits="userSpaceOnUse"><feFlood flood-color="#fff" flood-opacity="1" result="back"/><feBlend in="SourceGraphic" in2="back"/></filter></defs><radialGradient id="SVGID_56_" cx="133.7" cy="277.4" r="2.5" gradientUnits="userSpaceOnUse"><stop offset="0" stop-color="#fff"/><stop offset=".8"/></radialGradient><path fill="url(#SVGID_56_)" d="M136.1 277.3c0 1.3-1.1 2.3-2.3 2.3s-2.3-1.1-2.3-2.3c0-1.3 1.1-2.3 2.3-2.3s2.3 1 2.3 2.3z" mask="url(#SVGID_55_)"/></g></mask><defs><filter id="Adobe_OpacityMaskFilter_14_" width="4.7" height="4.7" x="131.4" y="274.9" filterUnits="userSpaceOnUse"><feFlood flood-color="#fff" flood-opacity="1" result="back"/><feBlend in="SourceGraphic" in2="back"/></filter></defs><mask id="SVGID_57_" width="4.7" height="4.7" x="131.4" y="274.9" maskUnits="userSpaceOnUse"><g filter="url(#Adobe_OpacityMaskFilter_14_)"><defs><filter id="Adobe_OpacityMaskFilter_15_" width="4.7" height="4.7" x="131.4" y="274.9" filterUnits="userSpaceOnUse"><feFlood flood-color="#fff" flood-opacity="1" result="back"/><feBlend in="SourceGraphic" in2="back"/></filter></defs><radialGradient id="SVGID_58_" cx="133.8" cy="277.4" r="2.5" gradientUnits="userSpaceOnUse"><stop offset="0" stop-color="#fff"/><stop offset="1"/></radialGradient><path fill="url(#SVGID_58_)" d="M136.1 276.9c.3 1.6-1.1 3-2.7 2.7-1-.2-1.8-.9-1.9-1.9-.3-1.6 1.1-3 2.7-2.7.9.1 1.7.9 1.9 1.9z" mask="url(#SVGID_57_)"/></g></mask><radialGradient id="SVGID_59_" cx="133.8" cy="277.4" r="2.5" gradientUnits="userSpaceOnUse"><stop offset="0" stop-color="#fff"/><stop offset="1"/></radialGradient><path fill="url(#SVGID_59_)" d="M136.1 276.9c.3 1.6-1.1 3-2.7 2.7-1-.2-1.8-.9-1.9-1.9-.3-1.6 1.1-3 2.7-2.7.9.1 1.7.9 1.9 1.9z"/><defs><filter id="Adobe_OpacityMaskFilter_16_" width="2.2" height="2.2" x="129.7" y="275" filterUnits="userSpaceOnUse"><feColorMatrix values="1 0 0 0 0 0 1 0 0 0 0 0 1 0 0 0 0 0 1 0"/></filter></defs><mask id="SVGID_60_" width="2.2" height="2.2" x="129.7" y="275" maskUnits="userSpaceOnUse"><g filter="url(#Adobe_OpacityMaskFilter_16_)"><defs><filter id="Adobe_OpacityMaskFilter_17_" width="2.2" height="2.2" x="129.7" y="275" filterUnits="userSpaceOnUse"><feFlood flood-color="#fff" flood-opacity="1" result="back"/><feBlend in="SourceGraphic" in2="back"/></filter></defs><radialGradient id="SVGID_61_" cx="130.7" cy="276.2" r="1.2" gradientUnits="userSpaceOnUse"><stop offset="0" stop-color="#fff"/><stop offset=".8"/></radialGradient><path fill="url(#SVGID_61_)" d="M131.8 276.1c0 .6-.5 1.1-1.1 1.1-.6 0-1.1-.5-1.1-1.1 0-.6.5-1.1 1.1-1.1.7 0 1.1.5 1.1 1.1z" mask="url(#SVGID_60_)"/></g></mask><defs><filter id="Adobe_OpacityMaskFilter_18_" width="2.2" height="2.2" x="129.7" y="275" filterUnits="userSpaceOnUse"><feFlood flood-color="#fff" flood-opacity="1" result="back"/><feBlend in="SourceGraphic" in2="back"/></filter></defs><mask id="SVGID_62_" width="2.2" height="2.2" x="129.7" y="275" maskUnits="userSpaceOnUse"><g filter="url(#Adobe_OpacityMaskFilter_18_)"><defs><filter id="Adobe_OpacityMaskFilter_19_" width="2.2" height="2.2" x="129.7" y="275" filterUnits="userSpaceOnUse"><feFlood flood-color="#fff" flood-opacity="1" result="back"/><feBlend in="SourceGraphic" in2="back"/></filter></defs><radialGradient id="SVGID_63_" cx="130.7" cy="276.1" r="1.1" gradientUnits="userSpaceOnUse"><stop offset="0" stop-color="#fff"/><stop offset="1"/></radialGradient><path fill="url(#SVGID_63_)" d="M131.5 275.3c.9 1.2-.4 2.5-1.6 1.6-.8-1.2.5-2.5 1.6-1.6z" mask="url(#SVGID_62_)"/></g></mask><radialGradient id="SVGID_64_" cx="130.7" cy="276.1" r="1.1" gradientUnits="userSpaceOnUse"><stop offset="0" stop-color="#fff"/><stop offset="1"/></radialGradient><path fill="url(#SVGID_64_)" d="M131.5 275.3c.9 1.2-.4 2.5-1.6 1.6-.8-1.2.5-2.5 1.6-1.6z"/><defs><filter id="Adobe_OpacityMaskFilter_20_" width=".6" height=".5" x="139.6" y="277" filterUnits="userSpaceOnUse"><feColorMatrix values="1 0 0 0 0 0 1 0 0 0 0 0 1 0 0 0 0 0 1 0"/></filter></defs><mask id="SVGID_65_" width=".6" height=".5" x="139.6" y="277" maskUnits="userSpaceOnUse"><g filter="url(#Adobe_OpacityMaskFilter_20_)"><defs><filter id="Adobe_OpacityMaskFilter_21_" width=".6" height=".5" x="139.6" y="277" filterUnits="userSpaceOnUse"><feFlood flood-color="#fff" flood-opacity="1" result="back"/><feBlend in="SourceGraphic" in2="back"/></filter></defs><radialGradient id="SVGID_66_" cx="558.9" cy="252.7" r=".2" gradientTransform="matrix(-1.3267 0 0 1.2429 881.3 -36.7)" gradientUnits="userSpaceOnUse"><stop offset="0" stop-color="#fff"/><stop offset=".8"/></radialGradient><path fill="url(#SVGID_66_)" d="M139.6 277.3c0 .1.1.3.3.3.2 0 .3-.1.3-.3 0-.1-.1-.3-.3-.3-.2 0-.3.1-.3.3z" mask="url(#SVGID_65_)"/></g></mask><defs><filter id="Adobe_OpacityMaskFilter_22_" width=".6" height=".5" x="139.6" y="277" filterUnits="userSpaceOnUse"><feFlood flood-color="#fff" flood-opacity="1" result="back"/><feBlend in="SourceGraphic" in2="back"/></filter></defs><mask id="SVGID_67_" width=".6" height=".5" x="139.6" y="277" maskUnits="userSpaceOnUse"><g filter="url(#Adobe_OpacityMaskFilter_22_)"><defs><filter id="Adobe_OpacityMaskFilter_23_" width=".6" height=".5" x="139.6" y="277" filterUnits="userSpaceOnUse"><feFlood flood-color="#fff" flood-opacity="1" result="back"/><feBlend in="SourceGraphic" in2="back"/></filter></defs><radialGradient id="SVGID_68_" cx="558.9" cy="252.7" r=".2" gradientTransform="matrix(-1.3267 0 0 1.2429 881.3 -36.7)" gradientUnits="userSpaceOnUse"><stop offset="0" stop-color="#fff"/><stop offset="1"/></radialGradient><path fill="url(#SVGID_68_)" d="M139.6 277.1c-.2.3.1.6.4.4.3-.3-.1-.6-.4-.4z" mask="url(#SVGID_67_)"/></g></mask><radialGradient id="SVGID_69_" cx="558.9" cy="252.7" r=".2" gradientTransform="matrix(-1.3267 0 0 1.2429 881.3 -36.7)" gradientUnits="userSpaceOnUse"><stop offset="0" stop-color="#fff"/><stop offset="1"/></radialGradient><path fill="url(#SVGID_69_)" d="M139.6 277.1c-.2.3.1.6.4.4.3-.3-.1-.6-.4-.4z"/><path d="M144 280.2V281.7l-.2.9c-.1.6-.3 1.1-.6 1.7l-.3.6-.2.4-.2.3-.7 1-.3.4-.1.1-.9.9-.2.2-1.2.8-1.6.8-.3.1-.3.1-.2.1c-.9.2-1.8.4-2.7.4l-2-.2-1.2-.3-.6-.2-.4-.2-.5-.3-.3-.2h-.1l-.1-.1a.8.8 0 00-.4-.2l-.2-.1-1.1-.9-.9-1-.1-.1-.4-.6-.4-.7-.1-.2-.1-.1v-.1-.1l-.2-.4-.2-.5a8 8 0 01-.6-2.2v-.4-.4-.1-.2-.3-.2-.1-.5-.2-.3-.3-.1l.1-.3v-.2l.1-.5v-.1-.1l.1-.4.2-.6.3-.6.1-.2.1-.1 1.1-1.7 1-1 .3-.3.8-.6 1.6-.9c1.2-.5 2.6-.8 4-.8h.1c1.5 0 3 .4 4.2 1l.3.1.5.3.8.5.1.1.1.1.2.2.1.1.1.1.6.5.1.1.1.1.2.2.2.2.3.3.1.1v.1l.1.1.1.2.1.1.1.1.1.1.2.4v.1l.1.2.1.1.1.1.1.3.1.1.1.2.3.9.1.3.1.3v.6l.1.7V280.2h.1z" class="st4"/><linearGradient id="SVGID_70_" x1="129.3" x2="138.1" y1="273.2" y2="286.4" gradientUnits="userSpaceOnUse"><stop offset="0" stop-color="#fff"/><stop offset="1" stop-color="#fff"/></linearGradient><path fill="url(#SVGID_70_)" d="M144 280.1v-.2-.2-.2-.3l-.1-.7c-1.3-.1-3.2 0-5 .3-3.3.5-5 2.5-8.8 2.7-3.8.3-4.9-1.9-3.9-2.7 1-.8 5.8-1.5 10.7-1.5l6.8.1-.3-.9-.1-.2-.1-.1-.1-.3-.1-.1-.1-.1c-1.9.4-5.5 1.1-10.1 1.1l-8.1-.2-.2.6-.1.4v.2l-.1.5v.2l-.1.3v3.1c.1.8.3 1.5.6 2.2l12.4-1.5c2.3-.2 5.1 0 6.9.2l.2-.9v-.1-.1-.2-.2-.1-.3-.2-.3l-.3-.3zm-18.2-3.2c.3 0 .5.2.5.5s-.2.5-.5.5-.5-.2-.5-.5.2-.5.5-.5zm-.1 5.7c-.4 0-.6-.3-.6-.6s.3-.6.6-.6c.4 0 .6.3.6.6s-.3.6-.6.6zm11.7-1.9c-.3 0-.5-.2-.5-.5s.2-.5.5-.5.5.2.5.5-.2.5-.5.5zm1 1.2a.2.2 0 01-.2-.2l.2-.2.2.2c.1.1-.1.2-.2.2z" opacity=".1"/><g class="st65"><linearGradient id="SVGID_71_" x1="131.2" x2="137.6" y1="280.4" y2="290" gradientUnits="userSpaceOnUse"><stop offset="0" stop-color="#fff"/><stop offset="1" stop-color="#fff"/></linearGradient><path fill="url(#SVGID_71_)" d="M134.1 285.4c-4.2 0-7.7-.5-9.3-.7v.2l.1.1.1.2.4.7.4.6.1.1.9 1 1.1.9.2.1.4.2.1.1h.1l.3.2.5.3c2.2-.1 4.1-.2 4.6-.1.6.1-.7.5-2.3.8l2 .2c1 0 1.9-.1 2.7-.4l.2-.1.3-.1.3-.1a8 8 0 001.6-.8l1.2-.8.2-.2-2.4.2c-3.3.3-8.7-.1-8.6-.5.1-.4 3.4-1 7.4-.9l4.6.2.3-.4.7-1 .2-.3.2-.4.3-.6c-1.5.6-4.8 1.3-8.9 1.3zm-5.6 1.3c-.9 0-1.7-.2-1.7-.5s.8-.5 1.7-.5c.9 0 1.7.2 1.7.5s-.8.5-1.7.5z"/></g><linearGradient id="SVGID_72_" x1="131.2" x2="135.9" y1="269.9" y2="276.8" gradientUnits="userSpaceOnUse"><stop offset="0" stop-color="#fff"/><stop offset="1" stop-color="#fff"/></linearGradient><path fill="url(#SVGID_72_)" d="M141.2 273.2c-1.5.4-4.1 1-7.3 1-3.1 0-6-.3-7.7-.5l1-1c1.7.4 3.7.8 5.3.8 3.5.1 7.1-.8 6.5-1.2-.6-.4-3.3.2-6.6 0l-4.1-.4 1.6-.9c1.3.2 3 .3 5.3.3l3.1-.1.3.1.5.3.8.5.1.1.1.1.2.2.1.1.1.1.7.5c-.1 0-.1 0 0 0z" opacity=".1"/><path d="M144 280.2V281.7l-.2.9c-.1.6-.3 1.1-.6 1.7l-.3.6-.2.4-.2.3-.7 1-.3.4-.1.1-.9.9-.2.2-1.2.8-1.6.8-.3.1-.3.1-.2.1c-.9.2-1.8.4-2.7.4l-2-.2-1.2-.3-.6-.2-.4-.2-.5-.3-.3-.2h-.1l-.1-.1a.8.8 0 00-.4-.2l-.2-.1-1.1-.9-.9-1-.1-.1-.4-.6-.4-.7-.1-.2-.1-.1v-.1-.1l-.2-.4c2.5 0 6.8-.2 11.2-2.4 4-2 6.1-4.4 7.2-6.1l.1.3.1.1.1.2.3.9.1.3.1.3v.6l.1.7V280.3l-.2-.1z" class="st68"/></g><g><path fill="#a2a9db" d="M492.4 243.3v2.7c-.2 1.6-.7 3.2-1.3 4.6l-.5 1.1-.3.6-.3.5-1.3 1.8-.7.8-2 1.9-2.1 1.5c-.9.6-1.9 1-2.9 1.4l-.6.2-.5.2-.4.1a18 18 0 01-10.6-.2l-1.1-.4-1.7-.8-.5-.3-.1-.1h-.1l-.2-.1-.7-.4-.3-.2-1.9-1.6-1.6-1.8-.1-.2-.8-1.1v-.1l-.8-1.2-.2-.4-.1-.2-.1-.2c-.9-1.7-1.5-3.6-1.7-5.6l-.1-.6-.1-.7v-.2-.3-.5-.3-.2-.9-.4l.1-.5.1-.5v-.2l.1-.6.1-.3.2-.8v-.1l.1-.2.2-.6.5-1.2.5-1.1.2-.4.1-.2a17.7 17.7 0 018.6-8c2.2-1 4.6-1.5 7.2-1.5h.2c2.9 0 5.7.8 8.1 2l.9.5 1.5 1 .2.2.1.1.4.3.2.2.2.1 1 1 .1.1.1.1.4.4.3.3.5.6.2.2.1.1.1.1.3.4.1.1.1.2.1.2v.1l.4.7.1.1.3.5.1.2.3.5v.1l.1.2.2.4.7 2.1.1.5v.1l.1.4v.4l.2 1.4V243.2c-.1-.1-.1 0-.1.1z"/><path d="M492.2 245.9c-.2 1.6-.7 3.2-1.3 4.6l-1.6.4c-3.1.7-8.3 1.5-14.9 1.7-6.5.2-12.3-.4-15.9-.8l-.1-.2-.1-.2c-.9-1.7-1.5-3.6-1.7-5.6A42.7 42.7 0 00475 249c6.9-.4 12.5-1.7 16-2.7l1.2-.4zM492.4 243.3v.9h-1.1c-3.2.1-9.4.3-16.8.2-7.9 0-14.8-.2-18-.3v-.3-.5-.3c3.8.2 11 .4 18 .4 7.1 0 13.6-.4 16.9-.6l1.1-.1v.4l-.1.2z" class="st5"/><linearGradient id="SVGID_73_" x1="468.5" x2="480.2" y1="236.2" y2="253.7" gradientUnits="userSpaceOnUse"><stop offset="0" stop-color="#fff"/><stop offset="1" stop-color="#fff"/></linearGradient><path fill="url(#SVGID_73_)" d="M492.3 244.8V245.7l-1.2.3c-3 .6-9.6 1.7-17.8 1.5a57.6 57.6 0 01-16.7-2.4l-.1-.7c1.9.2 7.7.9 17.9 1 8.9.1 14.4-.2 16.9-.4l1-.2z" opacity=".2"/><linearGradient id="SVGID_74_" x1="470.5" x2="479.1" y1="248.9" y2="261.7" gradientUnits="userSpaceOnUse"><stop offset="0" stop-color="#fff"/><stop offset="1" stop-color="#fff"/></linearGradient><path fill="url(#SVGID_74_)" d="M487.8 255.3l-2 1.9-1.8-.2c-2.5-.2-5.6-.2-8.1.5-5.1 1.3-15.2-.1-13.7-2.9 1.2-2.2 11 .2 16.1.8 2.3.3 5.2.2 7.6 0 .6.1 1.2 0 1.9-.1-.1 0-.1 0 0 0z" opacity=".2"/><path d="M463.2 255.3c-1.1 1.5 10 2.2 11 1.3 1-.9-9.1-3.8-11-1.3z" class="st5"/><linearGradient id="SVGID_75_" x1="470" x2="479.6" y1="246.2" y2="260.5" gradientUnits="userSpaceOnUse"><stop offset="0" stop-color="#fff"/><stop offset="1" stop-color="#fff"/></linearGradient><path fill="url(#SVGID_75_)" d="M489.7 252.7l-1.3 1.8-1.8.2c-4.8.3-9.3-.6-16.2-1.1a27 27 0 00-10.2.9l-.8-1.1v-.1c6.5-1 14.3.2 21.6.5a26 26 0 006.9-.7l1.8-.4z" opacity=".2"/><linearGradient id="SVGID_76_" x1="470.6" x2="477" y1="253.6" y2="263.2" gradientUnits="userSpaceOnUse"><stop offset="0" stop-color="#fff"/><stop offset="1" stop-color="#fff"/></linearGradient><path fill="url(#SVGID_76_)" d="M483.6 258.7c-.9.6-1.9 1-2.9 1.4l-.6.2-.5.2h-.1l-3.4-.1a89.6 89.6 0 01-10.6-1.5l-.3-.1h-.1l-.2-.1-.7-.4-.3-.2a54.8 54.8 0 0016.8 1l2.9-.4z" opacity=".2"/><path d="M489.6 233.7h-.7l-19.5 1.2c-5.9.2-9.2 0-10.9-.2 1.1-2.1 2.6-3.9 4.4-5.4 2.5-.1 5.8.1 9.9.8a50.2 50.2 0 0014.1.8h.4l.3.4.3.3.5.6h-.6c-1.9.1-4.7.1-8.6-.2-8.1-.6-10.6-1.4-13.9-.7-3.3.7-4.9 2.7-4.9 2.7s1.4.5 10.7.3c7.2-.2 14.4-.9 17.2-1.2l.6-.1.1.1.1.2.5.4z" class="st98"/><linearGradient id="SVGID_77_" x1="469.3" x2="476.3" y1="240.8" y2="251.2" gradientUnits="userSpaceOnUse"><stop offset="0" stop-color="#fff"/><stop offset="1" stop-color="#fff"/></linearGradient><path fill="url(#SVGID_77_)" d="M462 245.6a1185.4 1185.4 0 0021.6.7s-4.6 1.3-11.2.8c-6.6-.3-10.4-1.5-10.4-1.5z" opacity=".2"/><linearGradient id="SVGID_78_" x1="468.2" x2="472.9" y1="252.7" y2="259.8" gradientUnits="userSpaceOnUse"><stop offset="0" stop-color="#fff"/><stop offset="1" stop-color="#fff"/></linearGradient><path fill="url(#SVGID_78_)" d="M463.1 256.1s1.4.8 5 1.2c3.6.4 9.8-.8 9.8-.8s-4.9 1.7-9.7 1.3c-3.6-.3-5.1-1.7-5.1-1.7z" opacity=".2"/><linearGradient id="SVGID_79_" x1="474.3" x2="483.1" y1="235" y2="248.1" gradientUnits="userSpaceOnUse"><stop offset="0" stop-color="#fff"/><stop offset="1" stop-color="#fff"/></linearGradient><path fill="url(#SVGID_79_)" d="M492.3 241.8l-1 .1-9.6.4c-8.6.2-17.6-.4-17.3-.6.2-.2 8.1 0 16.2-.4 5-.3 8.5-.8 10.6-1.2l.9-.2.2 1.3v.6z" opacity=".2"/><path d="M491.7 238.6a81 81 0 01-9.1.2c-10.6 0-19.4 0-21.8 1.1-2.4 1.1.7 2.5 4.4 2.8 3.7.3 15.3.6 15.3.6s-18.7 0-24.1-.4v-.9-.4l.1-.5.1-.5v-.2l.1-.6.1-.3.2-.8v-.1c3.2-.3 10.1-.9 16.4-.7 6.6.1 14.5-1 17.5-1.6l.2.4c.2.5.5 1.2.6 1.9z" class="st98"/><path d="M490.7 235.8c-2.9.5-11.2 1.6-18.7 1.6l-14.8.2.5-1.2.5-1.1a174.7 174.7 0 0031.3-1.6v.1l.4.7.1.1c-2.9.3-10.5 1.1-15.4 1.4-6.3.3-10.2.3-10.5.5a112.2 112.2 0 0026.3-1.2l.3.5z" class="st5"/><linearGradient id="SVGID_80_" x1="473.6" x2="474.2" y1="254.4" y2="255.3" gradientUnits="userSpaceOnUse"><stop offset="0" stop-color="#fff"/><stop offset="1" stop-color="#fff"/></linearGradient><path fill="url(#SVGID_80_)" d="M474.4 254.8c0 .3-.2.5-.5.5s-.5-.2-.5-.5.2-.5.5-.5.5.2.5.5z" opacity=".2"/><linearGradient id="SVGID_81_" x1="477.5" x2="478.1" y1="240.2" y2="241.1" gradientUnits="userSpaceOnUse"><stop offset="0" stop-color="#fff"/><stop offset="1" stop-color="#fff"/></linearGradient><path fill="url(#SVGID_81_)" d="M478.3 240.6c0 .3-.2.5-.5.5s-.5-.2-.5-.5.2-.5.5-.5.5.3.5.5z" opacity=".2"/><linearGradient id="SVGID_82_" x1="485.6" x2="486.2" y1="239.5" y2="240.4" gradientUnits="userSpaceOnUse"><stop offset="0" stop-color="#fff"/><stop offset="1" stop-color="#fff"/></linearGradient><path fill="url(#SVGID_82_)" d="M486.4 240c0 .3-.2.5-.5.5s-.5-.2-.5-.5.2-.5.5-.5c.3-.1.5.2.5.5z" opacity=".2"/><linearGradient id="SVGID_83_" x1="376.6" x2="376.9" y1="16.2" y2="16.6" gradientTransform="rotate(-45 708.5 8.8)" gradientUnits="userSpaceOnUse"><stop offset="0" stop-color="#fff"/><stop offset="1" stop-color="#fff"/></linearGradient><path fill="url(#SVGID_83_)" d="M479.5 248.6c.1.1.1.3 0 .4-.1.1-.3.1-.4 0s-.1-.3 0-.4c.1-.1.3-.1.4 0z" opacity=".2"/><linearGradient id="SVGID_84_" x1="488.5" x2="489.1" y1="248.9" y2="249.8" gradientUnits="userSpaceOnUse"><stop offset="0" stop-color="#fff"/><stop offset="1" stop-color="#fff"/></linearGradient><path fill="url(#SVGID_84_)" d="M489.3 249.3c0 .3-.2.5-.5.5s-.5-.2-.5-.5.2-.5.5-.5.5.2.5.5z" opacity=".2"/><linearGradient id="SVGID_85_" x1="473.9" x2="474.5" y1="257.9" y2="258.8" gradientUnits="userSpaceOnUse"><stop offset="0" stop-color="#fff"/><stop offset="1" stop-color="#fff"/></linearGradient><path fill="url(#SVGID_85_)" d="M474.8 258.4c0 .3-.2.5-.5.5s-.5-.2-.5-.5.2-.5.5-.5c.2-.1.5.2.5.5z" opacity=".2"/><linearGradient id="SVGID_86_" x1="459.1" x2="459.7" y1="241.7" y2="242.6" gradientUnits="userSpaceOnUse"><stop offset="0" stop-color="#fff"/><stop offset="1" stop-color="#fff"/></linearGradient><circle cx="459.4" cy="242.2" r=".5" fill="url(#SVGID_86_)" opacity=".2"/><linearGradient id="SVGID_87_" x1="466.7" x2="467.2" y1="249.9" y2="250.8" gradientUnits="userSpaceOnUse"><stop offset="0" stop-color="#fff"/><stop offset="1" stop-color="#fff"/></linearGradient><path fill="url(#SVGID_87_)" d="M467.5 250.4c0 .3-.2.5-.5.5s-.5-.2-.5-.5.2-.5.5-.5c.2-.1.5.2.5.5z" opacity=".2"/><linearGradient id="SVGID_88_" x1="481.7" x2="482.3" y1="251.4" y2="252.3" gradientUnits="userSpaceOnUse"><stop offset="0" stop-color="#fff"/><stop offset="1" stop-color="#fff"/></linearGradient><path fill="url(#SVGID_88_)" d="M482.5 251.9c0 .3-.2.5-.5.5s-.5-.2-.5-.5.2-.5.5-.5c.3-.1.5.2.5.5z" opacity=".2"/><linearGradient id="SVGID_89_" x1="480.9" x2="481.9" y1="231.7" y2="233.3" gradientUnits="userSpaceOnUse"><stop offset="0" stop-color="#fff"/><stop offset="1" stop-color="#fff"/></linearGradient><path fill="url(#SVGID_89_)" d="M482.4 232.5c0 .5-.4 1-1 1s-1-.4-1-1c0-.5.4-1 1-1s1 .5 1 1z" opacity=".2"/><linearGradient id="SVGID_90_" x1="477.8" x2="478.9" y1="226.8" y2="228.4" gradientUnits="userSpaceOnUse"><stop offset="0" stop-color="#fff"/><stop offset="1" stop-color="#fff"/></linearGradient><circle cx="478.4" cy="227.6" r="1" fill="url(#SVGID_90_)" opacity=".2"/><linearGradient id="SVGID_91_" x1="460.4" x2="461" y1="249.3" y2="250.1" gradientUnits="userSpaceOnUse"><stop offset="0" stop-color="#fff"/><stop offset="1" stop-color="#fff"/></linearGradient><path fill="url(#SVGID_91_)" d="M461.2 249.7c0 .3-.2.5-.5.5s-.5-.2-.5-.5.2-.5.5-.5.5.2.5.5z" opacity=".2"/><linearGradient id="SVGID_92_" x1="482.2" x2="482.8" y1="239.5" y2="240.4" gradientUnits="userSpaceOnUse"><stop offset="0" stop-color="#fff"/><stop offset="1" stop-color="#fff"/></linearGradient><path fill="url(#SVGID_92_)" d="M483.1 240c0 .3-.2.5-.5.5s-.5-.2-.5-.5.2-.5.5-.5c.2-.1.5.2.5.5z" opacity=".2"/><linearGradient id="SVGID_93_" x1="479.5" x2="480.1" y1="256.9" y2="257.7" gradientUnits="userSpaceOnUse"><stop offset="0" stop-color="#fff"/><stop offset="1" stop-color="#fff"/></linearGradient><path fill="url(#SVGID_93_)" d="M480.3 257.3c0 .3-.2.5-.5.5s-.5-.2-.5-.5.2-.5.5-.5.5.2.5.5z" opacity=".2"/><linearGradient id="SVGID_94_" x1="464" x2="464.3" y1="247.9" y2="248.3" gradientUnits="userSpaceOnUse"><stop offset="0" stop-color="#fff"/><stop offset="1" stop-color="#fff"/></linearGradient><circle cx="464.2" cy="248.1" r=".2" fill="url(#SVGID_94_)" opacity=".2"/><linearGradient id="SVGID_95_" x1="470.4" x2="470.7" y1="243.4" y2="243.8" gradientUnits="userSpaceOnUse"><stop offset="0" stop-color="#fff"/><stop offset="1" stop-color="#fff"/></linearGradient><path fill="url(#SVGID_95_)" d="M470.8 243.6l-.2.2a.2.2 0 01-.2-.2l.2-.2.2.2z" opacity=".2"/><linearGradient id="SVGID_96_" x1="485.4" x2="485.9" y1="231.2" y2="231.9" gradientUnits="userSpaceOnUse"><stop offset="0" stop-color="#fff"/><stop offset="1" stop-color="#fff"/></linearGradient><path fill="url(#SVGID_96_)" d="M486.1 231.6c0 .2-.2.4-.4.4a.4.4 0 01-.4-.4c0-.2.2-.4.4-.4.2-.1.4.1.4.4z" opacity=".2"/><linearGradient id="SVGID_97_" x1="483.1" x2="483.2" y1="244.8" y2="245" gradientUnits="userSpaceOnUse"><stop offset="0" stop-color="#fff"/><stop offset="1" stop-color="#fff"/></linearGradient><path fill="url(#SVGID_97_)" d="M483.3 244.9c0 .1-.1.1 0 0-.1.1-.2 0-.2 0s0-.1.2 0c-.1-.1 0 0 0 0z"/><linearGradient id="SVGID_98_" x1="474.8" x2="475.1" y1="252.4" y2="252.8" gradientUnits="userSpaceOnUse"><stop offset="0" stop-color="#fff"/><stop offset="1" stop-color="#fff"/></linearGradient><path fill="url(#SVGID_98_)" d="M475.2 252.6l-.2.2a.2.2 0 01-.2-.2l.2-.2.2.2z" opacity=".2"/><linearGradient id="SVGID_99_" x1="470.5" x2="470.7" y1="257.7" y2="258" gradientUnits="userSpaceOnUse"><stop offset="0" stop-color="#fff"/><stop offset="1" stop-color="#fff"/></linearGradient><path fill="url(#SVGID_99_)" d="M470.8 257.8l-.2.2a.2.2 0 01-.2-.2l.2-.2.2.2z" opacity=".2"/><linearGradient id="SVGID_100_" x1="472.5" x2="472.8" y1="258.2" y2="258.5" gradientUnits="userSpaceOnUse"><stop offset="0" stop-color="#fff"/><stop offset="1" stop-color="#fff"/></linearGradient><path fill="url(#SVGID_100_)" d="M472.9 258.4l-.2.2a.2.2 0 01-.2-.2l.2-.2c.1-.1.2 0 .2.2z" opacity=".2"/><linearGradient id="SVGID_101_" x1="470.3" x2="470.5" y1="253.5" y2="253.9" gradientUnits="userSpaceOnUse"><stop offset="0" stop-color="#fff"/><stop offset="1" stop-color="#fff"/></linearGradient><path fill="url(#SVGID_101_)" d="M470.6 253.7l-.2.2-.2-.2.2-.2.2.2z" opacity=".2"/><linearGradient id="SVGID_102_" x1="462.2" x2="462.4" y1="254.1" y2="254.5" gradientUnits="userSpaceOnUse"><stop offset="0" stop-color="#fff"/><stop offset="1" stop-color="#fff"/></linearGradient><path fill="url(#SVGID_102_)" d="M462.5 254.3l-.2.2a.2.2 0 01-.2-.2l.2-.2.2.2z" opacity=".2"/><path d="M492.4 243.3v2.7c-.2 1.6-.7 3.2-1.3 4.6l-.5 1.1-.3.6-.3.5-1.3 1.8-.7.8-2 1.9-2.1 1.5c-.9.6-1.9 1-2.9 1.4l-.6.2-.5.2-.4.1a18 18 0 01-10.6-.2l-1.1-.4-1.7-.8-.5-.3-.1-.1h-.1l-.2-.1-.7-.4-.3-.2-1.9-1.6-1.6-1.8-.1-.2-.8-1.1v-.1l-.8-1.2-.2-.4-.1-.2c5 .4 12.5.1 20.7-3.3a31.1 31.1 0 0012.9-9l.1.4v.4l.2 1.4V243.3c-.2-.2-.2-.1-.2 0z" class="st98"/></g><g><path d="M682.1 153.5l2.2.3c1.7.2 3 1.8 2.8 3.6l-.2 1.7c-.2 1.7-1.8 3-3.6 2.8l-2.2-.3c-1.7-.2-3-1.8-2.8-3.6l.2-1.7c.3-1.7 1.8-3 3.6-2.8zM707.6 139.3l.8-2.1a3.1 3.1 0 014.1-1.8l1.6.6c1.6.6 2.5 2.5 1.8 4.1l-.8 2.1a3.1 3.1 0 01-4.1 1.8l-1.6-.6a3.2 3.2 0 01-1.8-4.1z" class="st125"/><path d="M710.4 115.5l1.2 1.6c1.1 1.5.8 3.6-.7 4.7l-1.1.9a3.4 3.4 0 01-4.7-.7l-1.2-1.6a3.4 3.4 0 01.7-4.7l1.1-.9a3.4 3.4 0 014.7.7zM684.9 104.6l2.2.1c1.8.1 3.2 1.6 3.1 3.3l-.1 1.7a3.2 3.2 0 01-3.3 3.1l-2.2-.1a3.2 3.2 0 01-3.1-3.3l.1-1.7c.1-1.8 1.5-3.2 3.3-3.1zM671.2 120.6l-1.2 1.5a4.2 4.2 0 01-5.7.7 4.2 4.2 0 01-.7-5.7l1.2-1.5c1.4-1.7 3.9-2 5.7-.7 1.7 1.4 2 4 .7 5.7z" class="st126"/><path fill="#f6f6f6" d="M715.1 133.6a27.5 27.5 0 11-55 0 27.5 27.5 0 0155 0z"/><path d="M687.6 149.8a27.6 27.6 0 01-26.9-21.8 27.5 27.5 0 1053.8 0 27.6 27.6 0 01-26.9 21.8z" class="st128"/><path d="M681 117.8c.5 1.1-.5 2.6-2.2 3.3-1.7.7-3.4.3-3.8-.8-.5-1.1.5-2.6 2.2-3.3 1.6-.7 3.3-.3 3.8.8z" class="st129"/><path d="M673.9 121.3c-.7-1.7.8-3.9 3.2-4.9 1.8-.8 3.7-.7 4.9.1-1.1-1.1-3.2-1.3-5.3-.5-2.5 1-4 3.2-3.2 4.9.2.4.5.8.9 1.1-.3-.2-.4-.4-.5-.7z" class="st129"/><path d="M681 117.8l-.5-.7c.3 1.1-.6 2.5-2.2 3.1-1.3.5-2.5.4-3.3-.1l.1.2c.5 1.1 2.2 1.5 3.8.8 1.6-.7 2.5-2.2 2.1-3.3z" class="st128"/><path d="M690.4 111.5c.1.7-.8 1.3-2 1.4-1.2.1-2.2-.3-2.3-1-.1-.7.8-1.3 2-1.4 1.2-.1 2.3.3 2.3 1zM696.1 121.3c-.5-.3-.6-1.1-.3-1.9l-.1.2c-.5.9-.4 1.8.2 2.1.6.3 1.5-.1 1.9-.9l.1-.2c-.5.7-1.3 1-1.8.7z" class="st129"/><path d="M685.3 112.3c-.1-1.1 1.3-2.1 3.2-2.3.8-.1 1.6 0 2.2.2-.7-.3-1.6-.5-2.7-.4-1.9.2-3.4 1.2-3.2 2.3.1.6.6 1.1 1.5 1.4-.6-.3-1-.7-1-1.2z" class="st128"/><path d="M690.4 111.5c-.1-.6-.8-1-1.8-1 .5.2.9.5 1 .9.1.7-.8 1.3-2 1.4h-.5c.4.1.8.2 1.3.1 1.2-.1 2.1-.8 2-1.4z" class="st128"/><path d="M667.6 127.8c1 .6 1.1 2.4.2 3.9-.9 1.5-2.5 2.2-3.6 1.5-1-.6-1.1-2.4-.2-3.9 1-1.5 2.6-2.2 3.6-1.5z" class="st129"/><path d="M668.2 127c1.1.7 1.3 2.4.7 4 .9-1.6.8-3.5-.3-4.2-.6-.4-1.3-.3-2 0 .5-.2 1.1-.1 1.6.2zM663.5 133.7c-1.4-.9-1.6-3.1-.5-5.2l-.3.5c-1.4 2.2-1.3 4.8.3 5.7 1.5 1 3.9-.1 5.3-2.3l.3-.5c-1.6 1.9-3.7 2.7-5.1 1.8z" class="st128"/><path d="M667.6 127.8c-1-.6-2.6 0-3.6 1.5l-.4.7c.9-1 2.2-1.4 3.1-.9.9.5 1.1 1.9.5 3.2l.5-.6c1-1.6.9-3.3-.1-3.9z" class="st128"/><path d="M675.6 138.7c2.2 1.4 3.1 4 2 5.8-1.1 1.8-3.9 2.2-6.1.8-2.2-1.4-3.1-4-2-5.8 1.2-1.8 3.9-2.2 6.1-.8z" class="st129"/><path d="M669.5 142c1.1-1.8 3.9-2.2 6.1-.8 1.1.7 1.9 1.7 2.2 2.7.7-1.8-.2-4-2.2-5.3-2.2-1.4-5-1-6.1.8-.6.9-.6 2-.3 3.1l.3-.5z" class="st128"/><path d="M680.2 142.5c0 .9-.2 1.8-.6 2.6-1.5 2.7-5.4 3.3-8.7 1.4-1.8-1-3-2.6-3.5-4.2a7.2 7.2 0 003.7 5.6c3.3 1.9 7.1 1.2 8.7-1.4.8-1.2.8-2.6.4-4zM677.7 154.4c.9-1.4 3.2-1.5 5.2-.3 1.4.9 2.2 2.1 2.3 3.3.1-1.3-.8-2.8-2.3-3.8-2-1.2-4.3-1.1-5.2.3-.3.4-.4.9-.3 1.5 0-.4.1-.7.3-1z" class="st128"/><path d="M683.8 156.3l-.2.6c-.6 1-2.4 1.1-3.8.2a4.7 4.7 0 01-1.5-1.7c-.2 1 .5 2.2 1.7 3 1.5.9 3.2.8 3.8-.2.3-.6.3-1.3 0-1.9z" class="st128"/><path d="M702 139c3.3 2.1 4.5 6.2 2.7 9.2-1.9 3-6.1 3.7-9.4 1.6-3.3-2.1-4.5-6.2-2.7-9.2 1.8-2.9 6-3.6 9.4-1.6z" class="st129"/><path d="M694.4 144.4c1.9-3 6.1-3.7 9.4-1.6l1.6 1.3a7 7 0 00-3.5-5c-3.3-2.1-7.5-1.4-9.4 1.6-1.5 2.4-1 5.6 1.1 7.8-.2-1.4.1-2.9.8-4.1z" class="st128"/><path d="M707.3 143.3c0 1.7-.5 3.5-1.5 5.1a9 9 0 01-12.4 3.1 8.5 8.5 0 01-3.8-5.5c0 2.9 1.4 5.8 4.1 7.4a9 9 0 0012.4-3.1 9.3 9.3 0 001.2-7z" class="st128"/><path d="M681.7 130.6c-.2.6-1 .8-1.8.5-.8-.3-1.3-1-1.1-1.5.2-.6 1-.8 1.8-.5.8.3 1.3 1 1.1 1.5z" class="st129"/><path d="M682.1 129.7c.2.3.2.6.1.9-.3.8-1.4 1.1-2.5.7-.5-.2-.9-.5-1.2-.8.2.5.7.9 1.4 1.1 1.1.4 2.2.1 2.5-.7.1-.3 0-.8-.3-1.2z" class="st128"/><path d="M679.2 130c.2-.6 1-.8 1.8-.5l.6.3c-.2-.3-.5-.6-1-.7-.8-.3-1.6-.1-1.8.5-.1.4.1.9.5 1.2-.2-.3-.2-.5-.1-.8zM693.9 128.7c-.6-.2-1.2-.1-1.5.3l.8.1c.7.2 1.1.9.9 1.5l-.2.3c.4-.1.8-.3.9-.7.3-.6-.1-1.3-.9-1.5z" class="st128"/><path d="M693.5 131.3c-1.5-.4-2.4-1.7-2-2.9l.3-.6c-.4.3-.7.7-.8 1.1-.3 1.2.6 2.5 2 2.9 1.2.3 2.4-.1 3-.9-.7.5-1.6.7-2.5.4zM708.2 130.8l-.2.7c-.3.4-.8.5-1.1.2l-.2-.2.2.5c.3.3.8.1 1.1-.2.4-.4.4-.7.2-1zM696.3 119.5c.4-.3 1-.2 1.2.2l.1.6c.2-.3.3-.6.1-.9-.2-.4-.8-.4-1.2-.2-.2.1-.4.3-.4.6 0-.2.1-.2.2-.3zM708 123c-.1-.4-.6-.6-1.1-.5l-.5.3.3-.2c.5-.2 1 .1 1.1.5.1.2 0 .5-.2.7.4-.1.5-.4.4-.8zM697.2 114.3c.1-.6 1-.8 2-.6l.7.2c-.3-.3-.8-.6-1.4-.7-1-.2-1.9.1-2 .6-.1.4.3.8.9 1.1l-.2-.6zM664.6 145c-.8-1.6-1.9-2.6-2.6-2.3l-.2.2c.5.2 1.4 1.1 2 2.4.6 1.3.6 2.6.4 3.1h.5c.7-.3.6-1.9-.1-3.4z" class="st128"/><path d="M663.8 145.3c.7 1.5 1 2.9.6 3.1-.4.2-1.3-.9-2-2.4s-1-2.9-.6-3.1c.4-.2 1.3.9 2 2.4z" class="st125"/><path d="M663.8 145.3l-.2-.4c.6 1.3.8 2.5.4 2.7-.3.2-1.1-.7-1.8-2l.2.4c.7 1.5 1.6 2.6 2 2.4.4-.1.1-1.5-.6-3.1zM707.6 124.3c-.7.2-1.5-.1-1.7-.7-.1-.4 0-.7.2-1-.4.3-.6.9-.5 1.3.2.6 1 1 1.7.7.3-.1.6-.3.8-.6l-.5.3z" class="st128"/></g><g><path fill="#f3f2ed" d="M712.9 237l-27.4-14.5a5.6 5.6 0 00-7 1.4l-4.8 6.6c-1.5 2-.7 4.7 1.6 6l27.4 14.5 10.2-14z"/><path d="M677 226.2c1.5-2 4.6-2.7 7-1.4l27.3 14.5 1.6-2.2-27.4-14.5a5.6 5.6 0 00-7 1.4l-4.8 6.6-.4.7 3.7-5.1z" class="st131"/><path d="M707.6 244.2l-4.9 6.8 9.7 1.6 3.1-4.2 3-4.2-5.6-7.2z" class="st132"/><path d="M721 245.5l-6.1 8.4-2.5-1.3 6.1-8.4z" class="st133"/><path d="M727.9 246.7l-6.9-1.2-2.9 4-.1.2-3.1 4.2 4.4 4.7 4.3-5.9-.1-.1.1.1z" class="st132"/><g class="st134"><path d="M706.1 246.4l5.2-7.2 5.6 7.1 2.6 1.4 6.9 1.2 1.5-2.2-6.9-1.2-2.5-1.4-5.6-7.1-5.3 7.2-4.9 6.8zM721.9 254.8l.1.1v-.1z" class="st135"/></g><path d="M689.9 223c.6.3.8 1 .4 1.5l-10.8 14.8c-.4.5-1.2.7-1.8.4-.6-.3-.8-1-.4-1.5l10.8-14.8c.4-.5 1.2-.7 1.8-.4z" class="st133"/><path d="M689.9 223c-.4-.2-.9-.2-1.3 0l.3.1c.6.3.8 1 .4 1.5l-10.8 14.8-.5.4c.5.1 1.1 0 1.4-.5l10.8-14.8c.5-.5.3-1.2-.3-1.5z" class="st131"/><path d="M697.2 252.4c.2.1.3.3.2.5l-13.5 18.6c-.1.2-.4.2-.6.1l-17-9c-.2-.1-.3-.3-.2-.5l13.5-18.6c.1-.2.4-.2.6-.1l17 9zM669 264.1l14-19.2M672.6 265.9l13.9-19.1M676.1 267.8l14-19.2M679.7 269.7l13.9-19.2M668.2 259.1l17.9 9.5M670.5 255.9l17.9 9.5M672.8 252.7l17.9 9.5M675.2 249.5L693 259M677.5 246.3l17.8 9.5M687.9 247.5l2.3-3.1" class="st136"/><g><path d="M711.9 232.2c.2.1.5.1.6-.1l13.5-18.6c.1-.2 0-.4-.2-.5l-17-9c-.2-.1-.5-.1-.6.1l-13.5 18.6c-.1.2 0 .4.2.5l17 9zM711.6 205.5l-13.9 19.2M715.2 207.4l-14 19.1M718.7 209.2l-13.9 19.2M722.2 211.1l-13.9 19.2" class="st136"/><g><path d="M706 207l17.9 9.5M703.7 210.2l17.9 9.5M701.4 213.4l17.9 9.5M699.1 216.6l17.8 9.5M696.8 219.8l17.8 9.5" class="st136"/></g><path d="M702.6 227.3l-2.3 3.1" class="st136"/></g><path fill="none" stroke="#71717b" stroke-miterlimit="10" stroke-width=".6" d="M723.6 252.7l5.3 2.8"/><path d="M729.3 254c.8.4 1 1.3.5 1.9-.5.7-1.5.9-2.2.5-.8-.4-1-1.3-.5-1.9.4-.7 1.4-.9 2.2-.5z" class="st133"/><path d="M729.3 254c-.4-.2-.9-.3-1.3-.2l.3.1c.8.4 1 1.3.5 1.9-.2.3-.6.5-1 .6.7.2 1.6 0 2-.6.5-.5.3-1.4-.5-1.8z" class="st131"/><path fill="#71717b" d="M693.6 242.9c.3.1.3.4.2.6-.2.2-.5.3-.8.2l-9.3-5c-.3-.1-.3-.4-.2-.6.2-.2.5-.3.8-.2l9.3 5z"/></g><g><path d="M456.6 135.7s-4.9-2.3-2.5-7.9l-1.5-2.6s-3.7 3.7-1.6 8.8c2.1 5.1 6.2 4.8 6.2 4.8l-.6-3.1z" class="st139"/><path d="M452.7 125.1l.3.5a8 8 0 00-.9 7.9c1.4 3.4 3.7 4.4 5.1 4.7l.1.5s-4.1.3-6.2-4.8c-2.1-5.1 1.6-8.8 1.6-8.8z" class="st131"/><path d="M463.3 157.3a6.7 6.7 0 008.8 3.8l7.3-2.9a6.7 6.7 0 003.8-8.8l-7.1-18.1a6.7 6.7 0 00-8.8-3.8l-7.3 2.9a6.7 6.7 0 00-3.8 8.8l7.1 18.1z" class="st132"/><path d="M457.6 132.1a6.7 6.7 0 00-.3 5.7l7.1 18.1a6.7 6.7 0 008.8 3.8l7.3-2.9c.9-.4 1.8-.9 2.4-1.6a7.4 7.4 0 01-3.4 3.1l-7.3 2.9a6.7 6.7 0 01-8.8-3.8l-7.1-18.1a6.5 6.5 0 011.3-7.2z" class="st131"/><path d="M452.2 109.3c-3.4 8.1 1 17.7 9.9 21.5 8.9 3.8 18.9.3 22.4-7.7 3.5-8.1-1-17.7-9.9-21.5-8.9-3.9-18.9-.4-22.4 7.7z" class="st132"/><path d="M454.4 112.5c-3.2 7.5.5 16.4 8.3 19.7 7.8 3.3 16.7-.1 20-7.6 3.2-7.5-.5-16.4-8.3-19.7a15 15 0 00-20 7.6z" class="st140"/><path d="M478.4 130.1c-4.7 4.5-12.1 6.4-20.5 1.3-8-4.8-10-12.6-6.3-21.2 1.1-2.6 2.8-4.8 4.8-6.5 0 0-8.9 16.3 3.7 24 11.5 7.1 18.3 2.4 18.3 2.4z" class="st141"/><path d="M452.9 127l1.4-.9c.8-.6.6-2.3-.5-3.8s-2.6-2.3-3.4-1.7l-1.3.9 3.8 5.5z" class="st132"/><path d="M449.1 121.5c-.8.6-.6 2.3.5 3.8s2.6 2.3 3.4 1.7c.8-.6.6-2.3-.5-3.8s-2.6-2.2-3.4-1.7zM479.6 111.8s-1-2.7-4.6-4.7c0 0-2.8-1.6-3.3-.6 0 0-.7 1.1 1.9 1.8 0 0 4 1 6 3.5zM501.8 128a3.7 3.7 0 00-3.1 4.4l.3 1.9a3.9 3.9 0 004.4 3.2 3.7 3.7 0 003.1-4.4l-.3-1.9a3.7 3.7 0 00-4.4-3.2z" class="st141"/><path d="M505.5 132.2c-.7 0-1.2.6-1.2 1.3 0 .7.6 1.2 1.3 1.2l3.8-.2c.7 0 1.2-.6 1.2-1.3 0-.7-.6-1.2-1.3-1.2l-3.8.2z" class="st141"/><path d="M505.6 129.8c-.7.2-1.2.9-1 1.6.2.7.9 1.1 1.7.9l4-1c.7-.2 1.2-.9 1-1.6-.2-.7-.9-1.1-1.7-.9l-4 1z" class="st141"/><path d="M503.5 128.2c-.6.4-.8 1.3-.4 1.8.4.6 1.2.7 1.9.3l3.4-2.4c.6-.4.8-1.2.4-1.8-.4-.6-1.2-.7-1.9-.3l-3.4 2.4z" class="st141"/><path d="M500.4 129.3c-.3.6 0 1.3.6 1.6.6.3 1.4.1 1.7-.5l1.5-3.3c.3-.6 0-1.3-.6-1.6-.6-.3-1.4 0-1.7.5l-1.5 3.3zM504.3 133.8c-.6-.2-1.3.1-1.6.7-.2.6.1 1.4.7 1.6l3.4 1.3c.6.2 1.3-.1 1.6-.7.2-.7-.1-1.4-.7-1.6l-3.4-1.3z" class="st141"/><g class="st134"><path d="M505.7 129.7l2.4-2.3c.4-.4.7-.8.6-1.3.4.6.2 1.4-.4 1.8l-2.6 1.8zM503.9 128l.2-1.3c.1-.3.1-.7-.1-.9.9.7 0 1.8-.1 2.2zM503.2 137c.6-.1 1.1-.3 1.6-.7l1.8.7c.6.2 1.3-.1 1.6-.7l.1-.6c.2.3.3.7.1 1.1-.2.6-1 1-1.6.7l-1.8-.7c-.5.3-1 .6-1.6.7-1.9.3-3.8-.9-4.3-2.8a3.8 3.8 0 004.1 2.3zM506.4 132.2l3.7-1.5c.7-.4 1.1-.8 1-1.4l.1.3c.2.7-.3 1.4-1 1.6l-3.8 1zM507.5 134.6l-1 .1 2.7-.7c.7-.2 1.2-.6 1.2-1.3v-.1l.2.6c0 .7-.5 1.3-1.2 1.3l-1.9.1z" class="st135"/></g><path d="M498.3 137.1s-11.8 3.6-14.3-.4l3.1-8.1s3.8 2.3 10 1.2c0 0-.4.3.4 4.6l.8 2.7z" class="st141"/><path d="M497.9 135.6l.4 1.5s-11.8 3.6-14.3-.4l.4-1.1c2.8 2.9 11.6.6 13.5 0z" class="st131"/><path d="M497 129.8c.1 0 .1 0 0 0 .1 0 0 0 0 .1v-.1z" class="st141"/><path d="M497.9 129.2c-.7.1-1.2.9-1 1.8l1 5.4c.2.8.9 1.4 1.6 1.3.7-.1 1.2-.9 1-1.8l-1-5.4c-.1-.8-.8-1.4-1.6-1.3z" class="st139"/><path d="M498.8 137.5c.7-.1 1.2-.9 1-1.8l-1-5.4c-.1-.5-.4-.9-.7-1.1.7 0 1.3.5 1.5 1.3l1 5.4c.2.8-.3 1.6-1 1.8-.3.1-.6 0-.9-.2h.1z" class="st131"/><path d="M483.3 125.7s-1-1-3.1-.9l-9.9.3s-2.4 0-4.5 2-6.1 5.4-6.1 5.4-1.2 1-.5 2.6c.6 1.7 6.4 15 6.4 15s1.2 1.9.5 3.4.8 1.8.8 1.8 1.1.1.8 1.5c-.4 1.4 2.3 9.5 6.8 6.9 4.5-2.6 17.9-9.5 17.9-9.5s2.5-1.2 1-4.1c-1.5-2.8-2.5-1.4-1.8-4 0 0 .4-1.4-.5-1.9s-.3-1-.3-1 .9-.6.5-1.5 1.3-1.9-1.1-2.9l-6.9-13.1z" class="st141"/><g class="st134"><path d="M490.8 143.2c-.1-.7 1-1.6-1.2-2.5l-6.8-13.1s-1-1-3.1-.9l-9.9.3s-2.4 0-4.5 2-6.1 5.4-6.1 5.4l-.2.2c-.2-1.3.7-2.1.7-2.1s4-3.4 6.1-5.4c2.1-2 4.5-2 4.5-2l9.9-.3c2.1-.1 3.1.9 3.1.9l6.8 13.1c2.4 1 .8 2 1.1 2.9.5.9-.4 1.5-.4 1.5zM492.9 152c-1.5-2.8-2.5-1.4-1.8-4 0 0 .4-1.4-.5-1.9s-.3-1-.3-1 .6-.4.6-1l.2.1c.9.5.5 1.9.5 1.9-.7 2.6.3 1.2 1.8 4 .8 1.5.4 2.6-.1 3.3a3 3 0 00-.4-1.4z" class="st135"/></g><path d="M476.2 128.3l-1.8 3.2c-.2.4-.3.9-.1 1.4l3.2 10.9c.3.9 1.1 1.2 2.1 1.2l9.3-.7c.5-.2.9-.6 1-1.1l1.1-2.2M472.7 141.1c-.7.3-.8 1.4-.4 2.3.5.9 1.4 1.4 2 1.1.7-.3.8-1.4.4-2.3-.4-1-1.3-1.4-2-1.1zM471.1 134c-.6.3-.7 1.1-.3 1.9.4.8 1.1 1.2 1.7.9.6-.3.7-1.1.3-1.9-.3-.8-1.1-1.2-1.7-.9z" class="st142"/><path d="M474.5 142.5c-.5-.9-1.4-1.4-2-1.1l-.2.1.5-.5c.7-.3 1.6.2 2 1.1.4.8.3 1.7-.2 2.1.2-.4.2-1-.1-1.7zM472.6 135.2c-.4-.8-1.1-1.2-1.7-.9l-.2.1.4-.5c.6-.3 1.3.1 1.7.9.3.7.3 1.4-.2 1.8.3-.3.2-.9 0-1.4z" class="st131"/><path d="M479.7 141.1c.3.8 1 1.1 1.8 1.1l8.7-.5c.7-.2 1.1-1.1.8-1.9l-3.7-11.2c-.3-.8-.9-1.2-1.8-1.1l-8.7.5c-.7.2-1.1 1.1-.8 1.9l3.7 11.2zM473.6 141.8c-.4.2-.6.8-.3 1.2.2.4.8.6 1.2.4l3.4-1.8c.4-.2.6-.8.3-1.2-.2-.4-.8-.6-1.2-.4l-3.4 1.8z" class="st132"/><path d="M473.6 141.8l3.4-1.8c.4-.2 1 0 1.2.4l.1.3c-.3-.4-.7-.5-1.1-.3l-3.4 1.8c-.3.2-.5.5-.4.9l-.1-.1c-.3-.4-.1-.9.3-1.2z" class="st131"/><path d="M479.6 133.6c.1.5.7.7 1.2.5l5.4-.4c.5-.2.8-.7.7-1.1l-1-3.1c-.1-.5-.5-.6-1.2-.5l-5.4.4c-.5.2-.8.7-.7 1.1l1 3.1z" class="st140"/><g><path d="M483.1 161.2s.8-.7-.4-3.3c-1.2-2.6-3.4-11.5-15.2-5.4l8.7 14.1s1.2 1.1 2.3.4c1.1-.8 4.6-5.8 4.6-5.8z" class="st141"/><path d="M479 157.6l-2.2-3.1c-.6-.9-.4-2.2.6-2.9.2-.2.5-.3.7-.3 2.6 1.5 3.6 4.6 4.3 6.2l-.5.5a2 2 0 01-2.9-.4z" class="st139"/><path d="M481.9 162.4s.8-.7-.4-3.3c-1.2-2.5-3.6-11.3-14-6.7 11.8-6.1 14 2.8 15.2 5.4 1.2 2.6.4 3.3.4 3.3s.1.2-1.2 1.3c-.4.3 0 0 0 0z" class="st131"/><use class="st139" xlink:href="#reuse-0"/><use class="st139" xlink:href="#reuse-0"/><g class="st134"><path d="M494.4 164.2s-.8-2.2-2.5-1.5c2.6-2.5 3.6.7 3.6.7l-6.5 11.8h-.7l6.1-11zM487.2 167c-1.3-2.9-3.1-4.3-4.1-5.2-.5-.4-.9-.6-1.1-.6l.8-.7s.4-.5 1.5.4c1 .9 2.7 2.2 4 5l-1.1 1.1z" class="st135"/></g><path d="M488.6 171.5c-.8 1.5-.7 3.1.1 3.6.9.4 2.2-.4 3-1.9l3.5-6.7c.8-1.5.7-3.1-.1-3.6-.9-.5-2.2.4-3 1.9l-3.5 6.7z" class="st132"/><path d="M495.5 164.1c-.9-.5-2.2.4-3 1.9l-3.5 6.7c-.4.7-.6 1.5-.5 2.1-.5-.7-.5-2 .2-3.3l3.5-6.7c.8-1.5 2.1-2.4 3-1.9.5.2.7.8.7 1.5l-.4-.3z" class="st131"/></g><g><path d="M460.1 156.5a4 4 0 00-2.1-5.1l-1.8-.8c-2-.8-4.3.1-5.1 2.1a4 4 0 002.1 5.1l1.8.8c2 .7 4.3-.2 5.1-2.1z" class="st141"/><path d="M454.4 157.4c.3-.6.1-1.4-.5-1.7-.6-.3-1.4-.1-1.7.5l-1.8 3.4c-.3.6-.1 1.4.5 1.7.6.3 1.4.1 1.7-.5l1.8-3.4z" class="st141"/><path d="M456.5 158.7c.2-.7-.1-1.5-.8-1.7-.7-.2-1.4.2-1.6 1l-1.3 4c-.2.7.1 1.5.8 1.7.7.2 1.4-.2 1.6-1l1.3-4z" class="st141"/><path d="M459 157.8c0-.8-.6-1.4-1.3-1.4-.7 0-1.3.7-1.2 1.5l.2 4.2c0 .8.6 1.4 1.3 1.4.7 0 1.3-.7 1.2-1.5l-.2-4.2z" class="st141"/><path d="M459.7 154.5c-.4-.6-1.1-.7-1.7-.3-.6.4-.8 1.2-.4 1.7l2 3.1c.4.6 1.1.7 1.7.3.6-.4.8-1.2.4-1.7l-2-3.1zM453.7 155.4c.5-.4.6-1.2.2-1.8-.4-.6-1.2-.7-1.8-.3l-2.9 2.2c-.5.4-.6 1.2-.2 1.8.4.6 1.2.7 1.8.3l2.9-2.2z" class="st141"/><g class="st134"><path d="M460.5 158.8c.6-.4.8-1.2.4-1.7l-1.3-2.1a4 4 0 00-1.2-3.4 4 4 0 011.9 3.9l1.3 2.1c.4.6.2 1.3-.4 1.7-.6.4-1.4.2-1.7-.3.3.1.7 0 1-.2zM457.2 162.9c.7 0 1-.4 1.2-1.5l.6-3.2c.1.1-.1-.1 0 0l.2 3.8c0 .8-.5 1.4-1.2 1.5-.5 0-.9-.2-1.1-.6h.3zM451.9 160.5l2.1-2.3-1.5 2.7c-.5.7-1.3.7-1.7.4l-.5-.4c.6.1 1.1 0 1.6-.4zM450.4 157.4l1.3-.5-1.1.8c-.7.4-1.4 0-1.7-.3v-.1c.4.1.7.3 1.5.1zM454.5 162.2l1.9-3.3-1.2 3.9c-.2.7-1 1.2-1.6 1l-.7-.5c.7 0 1-.1 1.6-1.1z" class="st135"/></g><path d="M459.9 150.4l-6-1.6s-.9-2.5 2.1-10.1l1.7-3.9c1-2.3 3.7-3.4 6.1-2.3 2.3 1 3.4 3.7 2.3 6.1 0-.1-1.5 5.2-6.2 11.8z" class="st141"/><path d="M464.1 138.2c1-2.3 0-5-2.3-6.1l-.2-.1c.8-.1 1.6 0 2.3.4 2.3 1 3.4 3.7 2.3 6.1 0 0-1.6 5.3-6.2 11.9l-1.9-.5c4.4-6.5 6-11.7 6-11.7z" class="st131"/><g><path d="M456.9 136.7c.4-.1.9-.2 1.4 0 1.2.4 1.8 1.5 1.5 2.6l-1.2 3.6c-.3 1.1-1.6 1.6-2.7 1.2-.6-.2-1-.6-1.3-1.1l1.4-4.4.9-1.9z" class="st139"/></g><path d="M452.2 149.8c-.2.7.4 1.5 1.2 1.7l5.4 1.3c.8.2 1.6-.2 1.8-.9.2-.7-.4-1.5-1.2-1.7l-5.4-1.3c-.8-.3-1.6.2-1.8.9z" class="st139"/><path d="M460 152.2c.2-.7-.4-1.5-1.2-1.7l-5.4-1.3h-.9c.3-.4 1-.6 1.6-.4l5.4 1.3c.8.2 1.4 1 1.2 1.7-.1.4-.4.8-.9.9l.2-.5z" class="st131"/></g><g><path d="M504.4 154.9s-5-10.5-15.4-8.3c-3.7.8-5.3 1.6-5.3 1.6l1.5 8.7s8.5.6 13.2 4.3c0 0 1.1.7 1.9.1l4.1-6.4z" class="st141"/><path d="M500.5 152.7l-3-2.3c-.8-.6-1-1.9-.3-2.8 2.7 1.3 4.6 3.5 5.8 5.1-.8.5-1.8.6-2.5 0z" class="st139"/><path d="M489.1 147.6c-2.7.3-4.7.3-5.5.6 0 0 1.6-.8 5.3-1.6 10.4-2.2 15.4 8.3 15.4 8.3l-.7 1.2c-.9-1.8-5.7-9.5-14.5-8.5z" class="st131"/><path d="M511.1 169s-2.3.7-5.4-3.8c0 0-2-2.2-5-2.9 0 0-1.2-.3-.7-1.8.5-1.4 4-5.9 4-5.9s.4-.5 1.5.4 3.7 2 5 4.9l3.4-3.3c2.7-2.8 3.8.5 3.8.5l-6.6 11.9z" class="st139"/><path d="M516.9 158s-1.1-3.3-3.8-.5a28.2 28.2 0 00-2.9 3.2c-1.3-2.9-4.4-3.9-5.4-4.8-.7-.6-1.1-.6-1.3-.5l.5-.7s.4-.5 1.5.4 3.7 2 5 4.9l3.4-3.3c2.7-2.8 3.8.5 3.8.5l-6.5 11.8h-.3l6-11z" class="st131"/><path d="M510.7 165.4c-.8 1.5-.7 3.1.1 3.6.9.5 2.2-.4 3-1.9l3.5-6.7c.8-1.5.7-3.1-.1-3.6-.9-.5-2.2.4-3 1.9l-3.5 6.7z" class="st132"/><path d="M517.4 158c-.9-.5-2.2.4-3 1.9l-3.5 6.7c-.3.6-.5 1.3-.5 1.9-.4-.7-.3-1.9.3-3.1l3.5-6.7c.8-1.5 2.1-2.4 3-1.9.5.3.7.9.7 1.7l-.5-.5z" class="st131"/></g><path d="M471.8 134.5c-.4.2-.5.6-.3 1s.6.5 1 .3l2.8-1.5c.4-.2.5-.6.3-1s-.6-.5-1-.3l-2.8 1.5z" class="st132"/><path d="M475.6 133.8c-.2-.4-.6-.5-1-.3l-2.8 1.5c-.2.1-.3.2-.3.4-.1-.3 0-.7.3-.9l2.8-1.5c.4-.2.8 0 1 .3v.5z" class="st131"/><g><path d="M479.8 136.2c-.3.6 0 1.3.6 1.6.6.3 1.3 0 1.6-.6l.2-.4-2.2-.8-.2.2z" class="st143"/><path d="M479.9 135.9c-.2.5 0 1.2.6 1.4.6.3 1.3.1 1.5-.5.2-.5 0-1.2-.6-1.4-.6-.2-1.2 0-1.5.5z" class="st139"/><path d="M482.2 140.1c-.2.5 0 1 .5 1.2.5.2 1 0 1.2-.5l.1-.3-1.7-.7-.1.3z" class="st144"/><path d="M482.2 139.9c-.2.4 0 .9.5 1.1.5.2 1 .1 1.2-.4.2-.4 0-.9-.5-1.1-.4-.1-1 0-1.2.4z" class="st145"/><path d="M486.1 139.8c-.2.5 0 1 .5 1.2.5.2 1 0 1.2-.5l.1-.3-1.7-.7-.1.3z" class="st144"/><path d="M486.2 139.6c-.2.4 0 .9.5 1.1.5.2 1 .1 1.2-.4.2-.4 0-.9-.5-1.1-.5-.1-1 0-1.2.4z" class="st145"/><path d="M485.9 135.8c-.3.6 0 1.3.6 1.6.6.3 1.3 0 1.6-.6l.2-.4-2.2-.8-.2.2z" class="st143"/><path d="M486 135.6c-.2.5 0 1.2.6 1.4.6.3 1.3.1 1.5-.5.2-.5-.1-1.2-.6-1.4-.6-.3-1.3-.1-1.5.5z" class="st139"/><path d="M483 136c-.3.6 0 1.3.6 1.6.6.3 1.3 0 1.6-.6l.2-.4-2.2-.8-.2.2z" class="st143"/><path d="M483.1 135.7c-.2.5 0 1.2.6 1.4.6.3 1.3.1 1.5-.5.2-.5 0-1.2-.6-1.4-.6-.2-1.3 0-1.5.5z" class="st139"/></g><path d="M470.2 106.8a1 1 0 01-1.1.6 1 1 0 01-.6-1.1 1 1 0 011.1-.6c.5.1.8.6.6 1.1z" class="st141"/></g><path d="M417-48.8c5.1 18.7 26.4 34.8 53.2 40.4 14.5 3 31.2 3.4 41.9 10.7 5 3.4 7.9 7.8 10.8 12.2l13.9 21.3a52 52 0 0016.4 17.8c11.6 7 28.5 8.4 44.1 7.7 33.5-1.4 66.7-10.5 99.9-6.7 3.4.4 6.8.9 10.1 1.6a36 36 0 0042.8-35.4v-69.4H417zM368 152.4c-9.7-57.2 38.8-66.9 34.1-93.7C393.4 10 299.2 10.3 287.1 0H0v333c33.8-42.4 87.4-63.3 135.7-63.8 84.7-.9 232.2 48.5 274.8-10.8 26.6-37.1-36.4-69.5-42.5-106z" class="st141"/><path fill="none" stroke="#fff" stroke-miterlimit="10" d="M367 154.6s18-53.8 39-29.9 4 43.6-10 44.4-33-22.2-8-40.1 68.8 2.9 68.8 2.9"/></svg>